<?xml version="1.0" encoding="UTF-8" standalone="no"?>
<svg
   xmlns:dc="http://purl.org/dc/elements/1.1/"
   xmlns:cc="http://creativecommons.org/ns#"
   xmlns:rdf="http://www.w3.org/1999/02/22-rdf-syntax-ns#"
   xmlns:svg="http://www.w3.org/2000/svg"
   xmlns="http://www.w3.org/2000/svg"
   width="31.972673mm"
   height="49.010693mm"
   viewBox="0 0 31.972674 49.010692"
   version="1.1"
   id="svg2760">
  <defs
     id="defs2754" />
  <metadata
     id="metadata2757">
    <rdf:RDF>
      <cc:Work
         rdf:about="">
        <dc:format>image/svg+xml</dc:format>
        <dc:type
           rdf:resource="http://purl.org/dc/dcmitype/StillImage" />
        <dc:title></dc:title>
      </cc:Work>
    </rdf:RDF>
  </metadata>
  <g
     id="layer5"
     style="display:inline"
     transform="translate(-88.96279,-114.23372)">
    <g
       id="g3435"
       transform="matrix(0.33,0,0,0.33,68.757311,70.214816)">
      <path
         style="fill:none;stroke:#000000;stroke-width:0.264583px;stroke-linecap:butt;stroke-linejoin:miter;stroke-opacity:1"
         d="m 86.91877,137.48969 27.12919,-3.95085 4.21425,17.12036 c -0.0273,-0.0637 0.15134,2.98703 4.21424,5.00442 1.50672,0.74815 14.63222,1.69805 20.79841,3.69166 6.53225,2.11197 6.22998,4.77409 6.22998,4.77409 0.18493,0.0555 -2.85849,3.71708 -6.50121,6.42462 -6.86411,5.73077 -7.69919,6.78408 -14.93283,9.71641 -16.73138,5.58689 -32.681552,4.51184 -45.400862,2.29821 -0.377546,-0.10845 -3.992658,-0.88734 -7.958022,-2.47711 -4.846902,-1.94319 -10.643239,-4.196 -11.99481,-5.8083 -1.418921,-1.15316 -0.525395,-4.04419 1.08377,-4.86474 2.258872,-1.04793 16.000097,-9.30748 22.537109,-13.91273 2.239019,-1.57736 2.80095,-3.20686 2.80095,-3.20686 -0.882601,-4.93639 -1.680455,-9.87279 -2.220165,-14.80918 z"
         id="path3408" />
      <path
         style="fill:none;stroke:#000000;stroke-width:0.264583px;stroke-linecap:butt;stroke-linejoin:miter;stroke-opacity:1"
         d="m 62.93127,170.11517 86.56111,-5.9355"
         id="path3410" />
      <path
         style="fill:none;stroke:#000000;stroke-width:0.264583px;stroke-linecap:butt;stroke-linejoin:miter;stroke-opacity:1"
         d="m 94.225737,174.11716 c 0,0 -0.268178,3.74452 0.445829,8.12897 0.786974,4.83252 2.298513,10.11278 3.18139,11.68234 0.696801,1.23876 1.599402,4.23709 2.907114,6.86668 1.85253,3.7251 4.25753,7.01414 5.79301,6.13672 0.40259,-0.23005 1.44123,-0.54384 2.51245,-1.69451 1.06546,-1.14446 2.1613,-3.12098 3.3782,-5.1306 1.87909,-3.10315 3.42858,-7.44212 5.21693,-11.12758 1.00507,-2.07129 1.68276,-4.33689 2.34676,-6.22033 1.60015,-4.53881 2.75702,-6.84734 3.10395,-8.00806 0.42095,-1.40838 -1.9338,-2.80305 -4.18364,-3.68223 -2.33429,-0.91219 -4.55368,-1.12477 -8.17222,-1.34755 -1.0931,-0.0673 -2.43916,0.10612 -3.50661,0.13813 -5.36771,0.16097 -9.099315,0.27621 -9.489495,0.58836 -0.205666,0.16453 -1.316992,0.31799 -2.111188,1.01821 -1.012048,0.89228 -1.42248,2.65145 -1.42248,2.65145 z"
         id="path3412" />
      <path
         style="fill:none;stroke:#000000;stroke-width:0.264583px;stroke-linecap:butt;stroke-linejoin:miter;stroke-opacity:1"
         d="m 117.11826,144.38957 c -0.66857,1.36499 4.84235,5.24763 7.01623,2.52584 0.43414,-0.54357 0.83095,-0.65273 1.10508,-1.29096 0.56712,-1.32039 1.18028,-2.19462 0.0175,-4.04137 -1.59034,-2.52585 -3.08714,-2.61939 -4.02264,-2.43229 -0.50921,0.10184 -2.05021,0.25596 -2.94359,1.30543 -0.4036,0.47412 -0.97117,1.1723 -1.13746,1.93573 -0.14186,0.65127 -0.28588,1.5225 -0.0351,1.99762 z"
         id="path3414" />
      <path
         style="fill:none;stroke:#000000;stroke-width:0.264583px;stroke-linecap:butt;stroke-linejoin:miter;stroke-opacity:1"
         d="m 87.581527,144.89115 c 0,0 -1.617088,-2.97544 -4.010379,-2.3286 -2.393291,0.64683 -3.444567,1.48917 -4.01038,2.45797 -0.459795,0.78728 -1.423037,2.58734 -0.388101,4.91595 1.034936,2.32861 4.333804,3.42824 5.886204,2.26393 0.607425,-0.45557 1.810438,-1.21836 2.248653,-2.39905 0.681737,-1.83679 0.516554,-4.092 0.47718,-4.32824 z"
         id="path3422" />
      <path
         style="display:inline;fill:none;stroke:#000000;stroke-width:0.264583px;stroke-linecap:butt;stroke-linejoin:miter;stroke-opacity:1"
         d="m 151.83111,274.10052 c 0,0 4.11619,1.21616 4.86459,1.68392 0.7484,0.46773 1.53076,1.92079 1.21615,3.55489 -0.33789,1.75503 -2.2452,2.33869 -3.55489,2.43229 -1.3097,0.0935 -2.33875,-1.49681 -3.08714,-2.61941 -0.7484,-1.1226 0.56129,-5.33233 0.56129,-5.33233 0,0 -2.24519,-35.45532 -2.71293,-37.70051 -0.46775,-2.24519 -2.99359,-3.27424 -4.86459,-3.92909 -1.87099,-0.65484 -6.36138,1.40325 -9.44851,2.33874 -3.08714,0.9355 -4.11619,0.46775 -4.11619,0.46775 0,0 -1.49679,-0.0935 -9.72916,-0.56129 -8.23238,-0.46775 -9.54207,-3.36779 -11.31951,-6.92268 -1.77745,-3.55489 -2.17877,-11.50538 -2.17877,-11.50538 -0.91774,3.25977 -0.40646,14.39149 -2.96647,15.62157 -4.08202,1.60889 -13.938897,-0.0935 -17.306686,-1.6839 -3.367788,-1.59034 -9.635616,-2.61939 -12.629205,-2.33874 -4.764477,0.27036 -4.980054,2.65518 -5.051683,3.46134 -0.09355,2.61939 -1.777443,43.5006 -1.777443,43.5006 0,0 0,-0.0935 0,0 0,0.062 -0.194641,2.39068 -0.611311,4.05065 -0.211244,0.84157 -0.550078,1.46089 -0.805495,1.62876 -0.797251,0.52398 -3.447777,0.86906 -4.383274,-0.72128 -0.935497,-1.59034 -0.489346,-3.17354 -0.253529,-3.46408 0.374199,-0.46104 1.189026,-1.5876 2.68582,-0.93275 1.496795,0.65484 2.794301,1.78018 2.9814,1.78018"
         id="path3420" />
      <path
         style="display:inline;fill:none;stroke:#000000;stroke-width:0.264583px;stroke-linecap:butt;stroke-linejoin:miter;stroke-opacity:1"
         d="m 106.27243,207.30607 c 0,0 -2.2452,0.3742 -3.36779,2.43229 -1.1226,2.0581 -0.84195,5.23878 0.65484,5.80008 1.4968,0.5613 4.50023,0.76304 6.45493,-0.5613 0.70227,-0.4758 1.31572,-1.39586 1.4968,-2.33874 0.0706,-0.36748 0.46775,-3.55489 -1.21615,-4.67748 -1.68389,-1.1226 -4.02263,-0.65485 -4.02263,-0.65485 z"
         id="path3418" />
    </g>
  </g>
</svg>
