    <svg
        xmlns:dc="http://purl.org/dc/elements/1.1/"
        xmlns:cc="http://creativecommons.org/ns#"
        xmlns:rdf="http://www.w3.org/1999/02/22-rdf-syntax-ns#"
        xmlns:svg="http://www.w3.org/2000/svg"
        xmlns="http://www.w3.org/2000/svg"
        xmlns:xlink="http://www.w3.org/1999/xlink"
        xmlns:sodipodi="http://sodipodi.sourceforge.net/DTD/sodipodi-0.dtd"
        xmlns:inkscape="http://www.inkscape.org/namespaces/inkscape"
        width="90.524323mm"
        height="216.97832mm"
        viewBox="0 0 90.524323 216.97832"
        version="1.1"
        id="svg947"
        inkscape:version="1.0.2 (e86c8708, 2021-01-15)"
        sodipodi:docname="filigrana.svg">
       <defs
          id="defs941" />
       <sodipodi:namedview
          id="base"
          pagecolor="#ffffff"
          bordercolor="#666666"
          borderopacity="1.0"
          inkscape:pageopacity="0.0"
          inkscape:pageshadow="2"
          inkscape:zoom="0.51316815"
          inkscape:cx="58.381126"
          inkscape:cy="517.10169"
          inkscape:document-units="mm"
          inkscape:current-layer="layer1"
          inkscape:document-rotation="0"
          showgrid="false"
          inkscape:window-width="1440"
          inkscape:window-height="776"
          inkscape:window-x="85"
          inkscape:window-y="23"
          inkscape:window-maximized="0"
          fit-margin-top="0"
          fit-margin-left="0"
          fit-margin-right="0"
          fit-margin-bottom="0" />
       <metadata
          id="metadata944">
         <rdf:RDF>
           <cc:Work
              rdf:about="">
             <dc:format>image/svg+xml</dc:format>
             <dc:type
                rdf:resource="http://purl.org/dc/dcmitype/StillImage" />
             <dc:title></dc:title>
           </cc:Work>
         </rdf:RDF>
       </metadata>
       <g
          inkscape:label="immagini"
          inkscape:groupmode="layer"
          id="layer1"
          style="display:inline;opacity:1"
          transform="translate(-85.127179,-82.248927)">
         <image
            sodipodi:absref="http://lezioni.meneghetti.univr.it//imageapi/tests/m0257_0_0016v0016v__tVISPL_00.jp2/full/200,/0/default.jpg"
            xlink:href="http://lezioni.meneghetti.univr.it//imageapi/tests/m0257_0_0016v0016v__tVISPL_00.jp2/full/200,/0/default.jpg"
            transform="rotate(-179.91567)"
            y="-192.3772"
            x="-137.77252"
            id="image1534"
            preserveAspectRatio="none"
            height="110.25389"
            width="52.362103" />
         <image
            sodipodi:absref="http://lezioni.meneghetti.univr.it//imageapi/tests/m0257_0_0001r0001r__tVISPL_00.jp2/full/200,/0/default.jpg"
            xlink:href="http://lezioni.meneghetti.univr.it//imageapi/tests/m0257_0_0001r0001r__tVISPL_00.jp2/full/200,/0/default.jpg"
            y="190.88882"
            x="86.516594"
            id="image1520"
            preserveAspectRatio="none"
            height="108.33842"
            width="48.228786" />
       </g>
       <g
          inkscape:groupmode="layer"
          id="layer4"
          inkscape:label="Tracciato"
          style="display:inline"
          transform="translate(-85.127179,-82.248927)">
         <g
            id="g2183"
            transform="matrix(0.31,0,0,0.31,76.696993,154.56355)">
           <path
              style="display:inline;fill:none;stroke:#000000;stroke-width:0.264583px;stroke-linecap:butt;stroke-linejoin:miter;stroke-opacity:1"
              d="m 113.62543,10.60504 -0.18937,31.246995 c 0,0 -0.0825,1.01886 -0.61792,1.133591 -0.5354,0.114729 -2.71257,-4.583441 -3.25069,-4.550971 -0.66378,0.04005 -0.99531,0.114847 -1.37676,1.988659 -0.53303,2.618417 -0.11473,25.699592 -0.11473,25.699592 l 0.39467,19.841231 -19.37689,0.399524 0.292701,15.987229"
              id="path1539"
              sodipodi:nodetypes="ccssscccc" />
           <path
              style="display:inline;fill:none;stroke:#000000;stroke-width:0.264583px;stroke-linecap:butt;stroke-linejoin:miter;stroke-opacity:1"
              d="m 113.62543,10.60504 c 0,0 -4.25196,-4.2204991 -4.20832,-6.168859 0.045,-2.0087266 -0.031,-4.15618238 3.609,-5.18284399 3.63998,-1.02666161 5.41331,2.98665199 5.31997,4.29331229 -0.2781,2.2221963 -2.21264,3.8276973 -2.55162,4.2325292 -0.87807,1.0486429 -2.16903,2.8258615 -2.16903,2.8258615 z"
              id="path1545"
              sodipodi:nodetypes="csscsc" />
           <path
              style="display:inline;fill:none;stroke:#000000;stroke-width:0.264583px;stroke-linecap:butt;stroke-linejoin:miter;stroke-opacity:1"
              d="m 89.386441,102.35089 4.500768,0.0874 -17.451151,64.74378 28.096362,3.83925 -10.470697,-68.58303 -4.013766,54.27309"
              id="path1541" />
           <path
              style="display:inline;fill:none;stroke:#000000;stroke-width:0.264583px;stroke-linecap:butt;stroke-linejoin:miter;stroke-opacity:1"
              d="m 113.43606,41.852035 v 0 0 0 0 0 0 0 c 0,0 1.34758,1.578604 1.75765,1.131249 0.41008,-0.447352 1.30274,-3.160045 1.56574,-3.690672 0.4748,-0.957967 1.30479,-0.894708 1.30479,-0.894708 0,0 1.67758,0.260957 1.6403,2.199492 -0.0373,1.938535 -0.22368,30.942001 -0.22368,30.942001 l 0.49762,13.953468 20.32423,0.524496 -0.26225,18.357359 -10.48992,-0.13112 -10.62105,64.25077 28.71616,-1.31124 c 0,0 -1.44236,-7.08069 -4.58934,-19.93085 -3.14697,-12.85015 -13.50577,-43.00868 -13.50577,-43.00868 l 1.31124,54.94097"
              id="path1543"
              sodipodi:nodetypes="ccccccccsscscccccccscc" />
         </g>
       </g>
    </svg>   