<?xml version="1.0" encoding="UTF-8" standalone="no"?>
<svg
   xmlns:ooo="http://xml.openoffice.org/svg/export"
   xmlns:dc="http://purl.org/dc/elements/1.1/"
   xmlns:cc="http://creativecommons.org/ns#"
   xmlns:rdf="http://www.w3.org/1999/02/22-rdf-syntax-ns#"
   xmlns:svg="http://www.w3.org/2000/svg"
   xmlns="http://www.w3.org/2000/svg"
   xmlns:sodipodi="http://sodipodi.sourceforge.net/DTD/sodipodi-0.dtd"
   xmlns:inkscape="http://www.inkscape.org/namespaces/inkscape"
   version="1.2"
   width="700"
   height="700"
   viewBox="1500 2028 19755.548 19755.555"
   preserveAspectRatio="xMidYMid"
   xml:space="preserve"
   id="svg3587"
   inkscape:version="0.48.5 r10040"
   sodipodi:docname="UniversitàVerona_spirale.svg"
   style="fill-rule:evenodd;stroke-width:28.22200012;stroke-linejoin:round"><metadata
     id="metadata4149"><rdf:RDF><cc:Work
         rdf:about=""><dc:format>image/svg+xml</dc:format><dc:type
           rdf:resource="http://purl.org/dc/dcmitype/StillImage" /><dc:title></dc:title></cc:Work></rdf:RDF></metadata><sodipodi:namedview
     pagecolor="#ffffff"
     bordercolor="#666666"
     borderopacity="1"
     objecttolerance="10"
     gridtolerance="10"
     guidetolerance="10"
     inkscape:pageopacity="0"
     inkscape:pageshadow="2"
     inkscape:window-width="1394"
     inkscape:window-height="872"
     id="namedview4147"
     showgrid="false"
     fit-margin-top="0"
     fit-margin-left="0"
     fit-margin-right="0"
     fit-margin-bottom="0"
     inkscape:zoom="0.55546875"
     inkscape:cx="425.49908"
     inkscape:cy="302.13814"
     inkscape:window-x="112"
     inkscape:window-y="58"
     inkscape:window-maximized="0"
     inkscape:current-layer="g3641" /><defs
     class="ClipPathGroup"
     id="defs3589"><clipPath
       id="presentation_clip_path"
       clipPathUnits="userSpaceOnUse"><rect
         x="1500"
         y="2028"
         width="1629"
         height="1651"
         id="rect3592" /></clipPath><clipPath
       id="presentation_clip_path_shrink"
       clipPathUnits="userSpaceOnUse"><rect
         x="1501"
         y="2029"
         width="1626"
         height="1648"
         id="rect3595" /></clipPath></defs><defs
     class="TextShapeIndex"
     id="defs3597"><g
       ooo:slide="id1"
       ooo:id-list="id3 id4 id5 id6 id7 id8 id9 id10 id11 id12 id13 id14 id15 id16 id17 id18 id19 id20 id21 id22 id23 id24 id25 id26 id27 id28 id29 id30 id31 id32 id33 id34 id35 id36 id37 id38 id39 id40 id41 id42 id43 id44 id45 id46 id47 id48 id49 id50 id51 id52 id53 id54 id55 id56 id57 id58 id59 id60 id61 id62 id63 id64 id65 id66 id67 id68 id69 id70 id71 id72 id73 id74"
       id="g3599" /></defs><defs
     class="EmbeddedBulletChars"
     id="defs3601"><g
       id="bullet-char-template(57356)"
       transform="scale(4.8828125e-4,-4.8828125e-4)"><path
         d="M 580,1141 1163,571 580,0 -4,571 580,1141 z"
         id="path3604"
         inkscape:connector-curvature="0" /></g><g
       id="bullet-char-template(57354)"
       transform="scale(4.8828125e-4,-4.8828125e-4)"><path
         d="m 8,1128 1129,0 L 1137,0 8,0 8,1128 z"
         id="path3607"
         inkscape:connector-curvature="0" /></g><g
       id="bullet-char-template(10146)"
       transform="scale(4.8828125e-4,-4.8828125e-4)"><path
         d="M 174,0 602,739 174,1481 1456,739 174,0 z m 1184,739 -1049,607 350,-607 699,0 z"
         id="path3610"
         inkscape:connector-curvature="0" /></g><g
       id="bullet-char-template(10132)"
       transform="scale(4.8828125e-4,-4.8828125e-4)"><path
         d="M 2015,739 1276,0 717,0 l 543,543 -1086,0 0,393 1086,0 -543,545 557,0 741,-742 z"
         id="path3613"
         inkscape:connector-curvature="0" /></g><g
       id="bullet-char-template(10007)"
       transform="scale(4.8828125e-4,-4.8828125e-4)"><path
         d="m 0,-2 c -7,16 -16,29 -25,39 l 381,530 c -94,256 -141,385 -141,387 0,25 13,38 40,38 9,0 21,-2 34,-5 21,4 42,12 65,25 l 27,-13 111,-251 280,301 64,-25 24,25 c 21,-10 41,-24 62,-43 C 886,937 835,863 770,784 769,783 710,716 594,584 L 774,223 c 0,-27 -21,-55 -63,-84 l 16,-20 C 717,90 699,76 672,76 641,76 570,178 457,381 L 164,-76 c -22,-34 -53,-51 -92,-51 -42,0 -63,17 -64,51 -7,9 -10,24 -10,44 0,9 1,19 2,30 z"
         id="path3616"
         inkscape:connector-curvature="0" /></g><g
       id="bullet-char-template(10004)"
       transform="scale(4.8828125e-4,-4.8828125e-4)"><path
         d="M 285,-33 C 182,-33 111,30 74,156 52,228 41,333 41,471 c 0,78 14,145 41,201 34,71 87,106 158,106 53,0 88,-31 106,-94 l 23,-176 c 8,-64 28,-97 59,-98 l 735,706 c 11,11 33,17 66,17 42,0 63,-15 63,-46 l 0,-122 c 0,-36 -10,-64 -30,-84 L 442,47 C 390,-6 338,-33 285,-33 z"
         id="path3619"
         inkscape:connector-curvature="0" /></g><g
       id="bullet-char-template(9679)"
       transform="scale(4.8828125e-4,-4.8828125e-4)"><path
         d="M 813,0 C 632,0 489,54 383,161 276,268 223,411 223,592 c 0,181 53,324 160,431 106,107 249,161 430,161 179,0 323,-54 432,-161 108,-107 162,-251 162,-431 0,-180 -54,-324 -162,-431 C 1136,54 992,0 813,0 z"
         id="path3622"
         inkscape:connector-curvature="0" /></g><g
       id="bullet-char-template(8226)"
       transform="scale(4.8828125e-4,-4.8828125e-4)"><path
         d="m 346,457 c -73,0 -137,26 -191,78 -54,51 -81,114 -81,188 0,73 27,136 81,188 54,52 118,78 191,78 73,0 134,-26 185,-79 51,-51 77,-114 77,-187 0,-75 -25,-137 -76,-188 -50,-52 -112,-78 -186,-78 z"
         id="path3625"
         inkscape:connector-curvature="0" /></g><g
       id="bullet-char-template(8211)"
       transform="scale(4.8828125e-4,-4.8828125e-4)"><path
         d="m -4,459 1139,0 0,147 -1139,0 0,-147 z"
         id="path3628"
         inkscape:connector-curvature="0" /></g><g
       id="bullet-char-template(61548)"
       transform="scale(4.8828125e-4,-4.8828125e-4)"><path
         d="m 173,740 c 0,163 58,303 173,419 116,115 255,173 419,173 163,0 302,-58 418,-173 116,-116 174,-256 174,-419 0,-163 -58,-303 -174,-418 C 1067,206 928,148 765,148 601,148 462,206 346,322 231,437 173,577 173,740 z"
         id="path3631"
         inkscape:connector-curvature="0" /></g></defs><defs
     class="TextEmbeddedBitmaps"
     id="defs3633" /><g
     id="g3637"
     transform="matrix(10,0,0,10,-13500,-15006.446)"><g
       id="g3641"
       class="Page"><path
         sodipodi:type="spiral"
         style="fill:#000000;fill-opacity:0.39075635;stroke:#000000;stroke-width:1.34750843;stroke-linecap:butt;stroke-linejoin:miter;stroke-miterlimit:4;stroke-opacity:1;stroke-dasharray:none"
         id="path5082"
         sodipodi:cx="133.22081"
         sodipodi:cy="322.92545"
         sodipodi:expansion="1"
         sodipodi:revolution="3.0282965"
         sodipodi:radius="520.53735"
         sodipodi:argument="-18.222813"
         sodipodi:t0="0.33123112"
         d="M 270.89561,426.72176 C 219.95348,522.53949 94.447665,546.91595 3.5547318,494.91374 -110.76047,429.51104 -138.94485,277.13925 -73.080974,167.38961 6.65787,34.519963 186.06678,2.518898 314.62641,82.310168 466.08602,176.31444 501.90951,382.86032 408.14958,530.20081 299.92382,700.27385 66.177575,739.92384 -99.924315,632.16771 -288.62705,509.74961 -332.10658,248.76017 -210.33495,63.910558 -73.74481,-143.43358 214.51813,-190.74495 418.10546,-54.943805 644.09969,95.80366 695.24471,411.36233 545.40355,633.67986 530.0725,656.42635 512.92373,677.94443 494.18545,697.977"
         transform="matrix(2.0944394,0,0,2.0943612,2121.5193,2078.6786)" /><g
         id="g4133"
         class="com.sun.star.drawing.ClosedBezierShape"
         transform="matrix(0.74212424,0,0,0.7420965,412.58149,816.6203)"><g
           id="id73"><rect
             style="fill:none;stroke:none"
             id="rect4136"
             height="1652"
             width="1630"
             y="2028"
             x="1500"
             class="BoundingBox" /><path
             sodipodi:nodetypes="cccc"
             style="fill:#231f20;stroke:none"
             inkscape:connector-curvature="0"
             id="path4138"
             d="m 2314,3679 c -542.6667,0 -271.3333,0 0,0 z m 0,-17 c -542.6667,11.3333 -271.3333,5.6667 0,0 z" /></g></g><g
         id="id3"
         transform="matrix(0.74212424,0,0,0.7420965,614.88259,606.78606)"><rect
           class="BoundingBox"
           x="1720"
           y="2250"
           width="1190"
           height="1205"
           id="rect3646"
           style="fill:none;stroke:none" /></g><g
         id="id4"
         transform="matrix(0.74212424,0,0,0.7420965,614.88259,606.78606)"><rect
           class="BoundingBox"
           x="1729"
           y="2568"
           width="191"
           height="193"
           id="rect3653"
           style="fill:none;stroke:none" /><path
           d="m 1792,2760 c -1,0 -1,0 -2,-1 0,0 -13,-10 -22,-12 -6,-1 -12,2 -17,5 -2,1 -4,2 -6,3 -6,1 -13,-3 -14,-3 -2,-1 -2,-3 -2,-5 1,-2 3,-2 5,-1 2,1 7,2 10,2 1,0 2,-1 4,-2 6,-3 13,-7 21,-6 11,2 25,14 26,14 1,2 1,4 0,5 -1,1 -2,1 -3,1 z m 51,-43 c -1,0 -3,-1 -3,-3 0,0 -4,-13 -13,-17 -3,-1 -8,2 -14,5 -6,4 -12,8 -18,6 -5,-2 -7,-8 -10,-14 -1,-5 -3,-11 -5,-12 -5,-2 -15,1 -21,3 -2,1 -4,0 -4,-2 -1,-2 0,-4 1,-4 2,-1 18,-8 27,-3 6,3 8,9 10,16 1,3 2,9 4,9 3,2 8,-1 13,-4 6,-4 13,-9 20,-6 12,5 16,21 16,21 1,2 0,4 -2,5 l -1,0 z m 29,-40 c -2,0 -3,-1 -4,-2 -2,-7 -9,-25 -18,-27 -5,-2 -12,1 -18,4 -7,3 -13,6 -19,3 -5,-2 -8,-9 -10,-15 -2,-6 -5,-12 -8,-14 -10,-3 -17,1 -17,1 -1,1 -4,0 -5,-1 0,-2 0,-4 2,-5 0,0 9,-5 22,-1 7,2 10,10 12,17 2,6 4,11 7,12 3,1 8,-1 13,-3 7,-4 15,-7 23,-5 13,4 22,29 23,32 1,1 0,3 -2,4 -1,0 -1,0 -1,0 z m 43,-35 c -1,0 -2,-1 -3,-2 -4,-7 -17,-26 -29,-27 -5,-1 -8,0 -12,1 -4,2 -9,3 -16,3 -10,-1 -15,-6 -25,-19 l -1,-1 c -10,-13 -13,-17 -21,-20 -7,-3 -15,-2 -15,-2 -1,1 -3,0 -4,-2 0,-2 1,-4 3,-4 0,0 9,-2 18,1 10,3 14,8 24,22 l 1,2 c 11,13 13,15 21,16 5,0 9,-1 13,-2 4,-2 9,-3 15,-2 18,2 33,29 34,30 1,2 0,4 -1,5 -1,1 -1,1 -2,1 z"
           id="path3655"
           inkscape:connector-curvature="0"
           style="fill:#231f20;stroke:none" /></g><g
         id="id5"
         transform="matrix(0.74212424,0,0,0.7420965,614.88259,606.78606)"><rect
           class="BoundingBox"
           x="1732"
           y="2430"
           width="963"
           height="1026"
           id="rect3660"
           style="fill:none;stroke:none" /><path
           d="m 2314,3454 c -2,0 -4,-2 -4,-4 l 0,-20 c 0,-5 -2,-28 -3,-36 0,-1 0,-3 0,-5 l -27,9 c 4,25 5,50 5,51 0,2 -1,4 -3,4 -2,0 -4,-1 -4,-3 0,-1 -1,-28 -6,-53 l 0,-1 c -2,-11 -5,-22 -10,-30 l 0,-1 c -2,-2 -3,-4 -5,-6 -2,-2 -5,-3 -8,-3 -3,0 -6,2 -8,5 3,2 8,6 13,14 6,12 6,67 6,73 0,2 -2,3 -4,3 -2,0 -3,-1 -3,-3 0,-24 -2,-62 -6,-69 -3,-7 -7,-11 -10,-13 -10,19 -13,60 -13,77 0,2 -1,4 -3,3 -2,0 -3,-1 -3,-3 0,-3 0,-17 1,-32 l -19,-14 c -1,5 -1,11 -1,17 0,13 -1,23 -1,24 l 0,1 c 0,1 -2,3 -4,3 -1,0 -1,-1 -2,-1 l 0,-1 c 0,0 -1,0 0,0 l -1,0 c 0,-1 0,-2 0,-2 0,0 0,-3 1,-8 0,-8 0,-21 -1,-35 l -22,9 c 1,13 0,24 0,28 0,2 -2,3 -4,3 -1,0 -3,-2 -3,-4 1,-7 1,-17 0,-29 l 0,-1 c 0,-10 -1,-19 -3,-28 0,-1 0,-1 0,-2 -2,-9 -5,-17 -9,-22 l 0,-1 c -1,0 -1,0 -1,-1 -2,-2 -5,-4 -8,-4 -4,0 -7,0 -10,2 3,1 6,4 8,8 4,7 7,69 3,73 l -3,-2 -3,0 c 0,-12 1,-59 -3,-68 -2,-5 -6,-6 -7,-6 -6,6 -9,17 -11,28 l 0,1 c -3,17 -2,34 -2,34 0,2 -2,4 -4,4 -1,0 -3,-1 -3,-3 0,-2 -1,-17 2,-35 l -15,-9 c 0,6 -1,10 -1,11 -1,11 -2,24 -2,24 l -6,-1 c 0,0 0,-12 1,-23 0,-1 0,-1 0,-1 0,-5 1,-11 1,-13 0,-1 0,-1 0,-1 l -15,-1 c 1,16 0,30 0,31 0,2 -2,3 -4,3 -2,0 -3,-1 -3,-3 0,-1 3,-37 -6,-62 l -1,0 c 0,-1 0,-1 0,-1 -2,-6 -5,-11 -8,-14 l 0,-1 c -1,0 -1,0 -1,0 -3,-3 -6,-5 -10,-6 4,6 8,15 11,31 2,17 0,41 0,42 -1,2 -2,4 -4,3 -2,0 -3,-2 -3,-4 0,0 2,-23 0,-40 -3,-19 -9,-28 -12,-31 -1,1 -2,1 -2,2 -11,9 -10,42 -9,53 0,2 -1,4 -3,4 -2,0 -3,-1 -4,-3 0,-1 -2,-23 2,-41 l -13,-13 c -4,20 -3,40 -3,41 0,1 -1,3 -3,3 -1,0 -2,0 -3,-1 -1,-1 -3,-2 -3,-4 0,0 1,-24 -3,-50 l -14,3 c 1,15 1,28 1,31 0,2 -2,4 -4,4 -2,0 -3,-2 -3,-4 1,-17 -1,-64 -19,-70 -2,-1 -5,-1 -7,-1 l -1,0 -1,1 c 5,3 11,9 12,21 1,7 0,31 0,32 0,2 -2,3 -4,3 -2,0 -3,-2 -3,-4 0,-7 1,-25 1,-31 -2,-11 -9,-15 -12,-16 0,1 0,1 -1,1 -5,8 -7,20 -7,24 -1,2 -2,4 -4,3 -2,0 -3,-1 -3,-3 0,-1 1,-15 7,-25 l -13,-14 c -4,12 -3,24 -3,24 0,2 -1,3 -3,4 -2,-1 -4,-2 -4,-4 0,0 0,-2 0,-4 -1,1 -2,1 -3,1 -2,0 -4,-1 -3,-3 l 2,-64 c -3,-3 -9,-12 -6,-24 1,-7 3,-12 6,-14 l 0,-45 c -5,-3 -13,-9 -14,-28 -1,-14 6,-22 9,-24 l -9,-101 0,-1 c 0,-1 0,-2 1,-2 3,-5 12,-13 27,-23 l 0,-135 -49,30 0,387 c 0,2 -1,4 -3,4 -2,0 -4,-2 -4,-4 l 0,-132 -13,4 c -1,1 -2,0 -3,0 -1,-1 -2,-2 -2,-3 l 0,-140 c 0,-1 2,-3 4,-3 l 14,0 0,-17 -25,0 -2,244 c -1,2 -2,4 -4,4 -2,0 -3,-2 -3,-4 l 2,-248 c 0,-2 2,-3 3,-3 l 29,0 0,-29 -53,0 -10,219 c 0,2 -1,4 -3,4 -2,0 -4,-2 -4,-4 l 11,-223 c 0,-1 1,-3 3,-3 l 56,0 0,-17 -88,0 -1,186 c 0,2 -1,3 -3,3 -2,0 -3,-1 -3,-3 l 0,-188 -28,-41 c 0,-1 -1,-2 0,-3 l 0,-1 58,-79 c 0,-1 1,-2 2,-2 l 1,0 118,-61 0,-141 -16,0 c -1,0 -2,-1 -3,-2 0,-2 0,-3 1,-4 l 64,-72 c 0,0 1,0 1,-1 l 85,-42 c 1,-1 3,0 4,1 l 54,51 c 1,1 1,2 1,3 l 0,61 0,23 0,22 439,-23 c 1,0 2,1 3,2 1,1 0,3 0,4 l -63,74 c 0,0 -1,1 -2,1 l -490,31 1,41 c 9,-10 22,-18 43,-18 18,0 31,6 41,16 5,6 8,13 10,19 5,-20 15,-46 39,-57 8,-4 16,-6 26,-6 39,0 56,35 63,66 1,-5 3,-11 4,-17 0,-1 1,-1 1,-2 4,-11 9,-22 17,-32 0,0 0,-1 1,-1 11,-13 26,-21 47,-22 19,0 34,6 45,18 7,8 12,17 15,27 2,-6 5,-13 9,-21 0,0 0,-1 1,-1 4,-9 11,-17 20,-23 l 0,-1 1,0 c 7,-4 15,-7 25,-7 18,0 33,6 43,18 6,6 10,14 13,21 4,-18 15,-48 43,-49 12,0 22,4 30,12 23,24 25,75 25,88 6,0 10,0 19,3 4,2 7,5 9,7 2,2 3,3 4,4 4,2 8,2 9,2 2,0 3,2 3,4 0,1 -1,3 -3,3 -1,0 -8,0 -13,-3 -1,-2 -3,-3 -4,-5 -3,-2 -5,-4 -8,-5 -10,-4 -11,-3 -21,-3 -12,-1 -18,-2 -29,-13 l -3,-4 c -6,-6 -14,-15 -21,-15 -11,0 -16,8 -18,10 0,5 0,10 0,15 -1,11 -1,19 0,22 10,1 16,8 23,17 l 1,1 c 7,9 11,9 15,8 2,0 9,-5 13,-9 2,-1 4,-1 5,1 1,1 1,3 0,4 -2,2 -12,10 -17,11 -8,1 -14,-2 -21,-11 l -1,0 c -7,-9 -12,-15 -20,-15 -12,1 -15,3 -19,7 -2,2 -6,4 -11,5 -9,2 -17,-5 -24,-12 -2,-2 -4,-5 -7,-6 -6,-5 -16,3 -16,3 -2,2 -4,2 -5,0 -1,-1 -1,-3 0,-5 0,0 10,-8 18,-7 1,-6 1,-22 -2,-39 -2,-1 -3,-2 -4,-2 0,0 -1,1 -2,2 -3,1 -6,3 -10,3 -6,-1 -8,-3 -10,-5 -1,-1 -2,-2 -4,-3 -3,-2 -5,-2 -7,-2 -1,4 -1,6 -1,7 l 0,3 0,24 0,1 -1,0 0,34 c 2,3 5,7 7,10 4,7 8,14 15,16 13,5 19,-5 19,-6 1,-2 3,-2 5,-1 2,1 2,3 1,4 -3,6 -12,15 -27,10 -9,-4 -15,-12 -19,-19 -2,-4 -4,-7 -7,-10 l -1,0 c -2,-3 -5,-4 -8,-5 -10,-2 -16,1 -23,5 -4,2 -9,5 -16,5 -10,1 -18,-7 -24,-13 -1,-2 -3,-3 -4,-4 -2,-1 -4,0 -4,0 -2,0 -4,-1 -4,-3 -1,-2 0,-4 2,-4 1,0 4,-1 9,1 2,1 4,2 6,5 1,1 2,2 3,3 0,-15 -2,-58 -18,-74 -4,-4 -8,-5 -13,-5 -4,0 -7,1 -9,2 -1,0 -1,0 -1,0 -2,2 -4,3 -5,5 -1,1 -2,2 -3,3 -3,6 -6,13 -8,21 l 0,1 c -4,24 -2,53 -1,59 2,2 3,5 5,7 4,6 6,9 10,9 11,0 13,-15 13,-15 0,-2 2,-3 4,-3 1,1 3,2 2,4 -1,7 -6,21 -19,21 -8,0 -12,-6 -16,-12 -1,-2 -3,-5 -5,-7 -3,-3 -6,-5 -11,-5 -13,0 -16,6 -20,13 -3,6 -8,13 -19,13 -5,0 -8,-2 -10,-4 -1,-2 -2,-3 -5,-5 -6,-2 -12,1 -12,2 -2,1 -4,0 -5,-2 -1,-1 -1,-3 1,-4 0,0 7,-5 15,-3 0,-11 -2,-47 -6,-59 -6,-14 -11,-21 -20,-24 -4,-2 -8,-1 -10,-1 -2,1 -3,2 -5,4 -2,2 -4,5 -5,8 l -1,1 c -3,7 -5,16 -7,25 l 0,1 c -4,27 -1,57 -1,57 0,1 0,1 0,1 6,3 10,7 13,11 3,3 5,5 7,6 9,1 12,0 14,-1 1,-1 1,-2 1,-2 0,-2 2,-3 4,-3 1,0 3,1 3,3 0,0 0,4 -4,7 -4,3 -10,4 -19,2 -5,-1 -8,-4 -11,-8 -4,-5 -9,-10 -19,-10 l -1,0 c -6,0 -11,4 -17,9 -5,5 -12,10 -21,12 -15,4 -25,-7 -30,-13 -1,-1 -2,-2 -2,-3 -3,0 -4,0 -5,0 0,2 -2,4 -4,4 -2,0 -3,-1 -3,-3 0,-1 0,-4 3,-6 2,-2 6,-3 11,-1 1,0 2,1 3,2 0,-12 2,-42 2,-48 0,-6 -2,-16 -9,-22 -5,-4 -8,-5 -9,-5 -5,4 -8,11 -10,18 l 0,1 c -4,14 -3,29 -3,29 l -2,81 c 0,1 0,1 0,1 l -1,23 c 65,-30 152,-58 248,-66 207,-16 337,97 339,98 1,1 1,3 0,5 -1,1 -3,1 -5,0 -1,-1 -130,-112 -334,-96 -98,8 -185,37 -249,66 -1,1 -2,2 -3,2 -8,4 -17,8 -25,12 0,1 -1,1 -2,1 -7,4 -14,8 -21,11 0,1 -1,1 -2,1 -6,4 -12,7 -17,11 0,0 -1,1 -2,1 -5,3 -10,6 -15,9 0,1 -1,1 -2,2 -14,10 -23,17 -25,20 7,17 142,122 354,122 2,0 4,0 5,0 217,-1 310,-89 311,-90 l -1,-22 c -25,17 -137,87 -300,87 -181,-1 -314,-74 -332,-93 -2,-1 -3,-3 -3,-5 1,-13 181,-104 353,-112 165,-7 282,75 299,87 11,-9 29,-19 52,-19 53,-1 65,23 65,32 0,1 1,3 -5,9 -10,11 -35,29 -63,29 -32,0 -52,-13 -59,-19 l 10,238 5,136 0,1 2,30 c 0,2 -2,4 -4,4 -2,0 -3,-2 -3,-3 l -1,-27 -13,5 c 4,13 6,24 7,27 0,2 -1,4 -3,4 -1,1 -3,-1 -4,-2 -1,-7 -4,-19 -7,-30 l 0,-1 c -3,-7 -5,-15 -8,-21 0,-1 0,-1 0,-1 -4,-9 -8,-17 -12,-21 l 0,-1 c -1,0 -2,-1 -2,-1 -1,-1 -2,-1 -3,-1 l 1,3 c 3,5 4,8 8,18 8,20 10,62 11,64 0,2 -2,3 -4,3 -2,0 -3,-1 -3,-3 0,0 -3,-42 -10,-62 -4,-10 -5,-12 -8,-17 l -1,-2 c 0,1 0,2 -1,3 l 0,1 c -5,12 -5,36 -2,59 l 0,1 c 1,9 2,18 3,26 1,2 0,4 -2,4 -2,1 -4,-1 -4,-2 -1,-3 -2,-12 -4,-24 l -23,8 c 3,12 4,22 4,25 0,2 -1,3 -3,4 -2,0 -4,-2 -4,-3 -1,-9 -2,-18 -4,-27 0,-1 0,-1 0,-1 -3,-13 -7,-27 -11,-37 -1,0 -1,0 -1,0 -4,-9 -10,-16 -16,-16 l -1,0 c 3,2 6,5 9,9 11,16 14,74 14,76 0,2 -1,4 -3,4 -2,0 -3,-2 -3,-4 -1,-16 -5,-60 -13,-72 -5,-6 -8,-8 -10,-8 0,0 -1,1 -1,2 0,1 -1,1 -1,1 -8,20 -5,67 -3,85 0,2 -1,4 -3,4 -2,0 -4,-1 -4,-3 0,-4 -3,-29 -2,-53 l -15,-3 c 1,10 3,22 3,33 l 1,0 0,1 c 1,12 1,23 2,25 0,2 -2,4 -3,4 -2,0 -4,-1 -4,-3 -1,-7 -1,-15 -2,-22 l -21,3 c 1,11 1,20 1,23 0,2 -2,3 -3,3 -2,0 -4,-1 -4,-3 0,-24 -5,-87 -29,-87 l -1,0 c -2,0 -4,0 -5,2 5,3 13,10 16,24 4,14 3,62 3,64 0,2 -2,3 -4,3 -2,0 -3,-1 -3,-3 0,-1 1,-49 -2,-62 -4,-13 -11,-19 -15,-21 -1,0 -1,1 -2,2 l 0,1 c -4,8 -6,19 -8,31 l 0,1 c -1,9 -1,18 -1,25 l 0,1 c -1,14 0,23 0,24 0,2 -1,3 -3,3 -2,0 -4,-1 -4,-3 0,-1 0,-9 0,-21 -5,0 -11,0 -15,0 0,1 0,1 0,1 l 0,20 c 0,2 -1,4 -3,4 z m 3,-32 c 4,0 9,0 15,0 0,-6 0,-13 1,-21 l -16,-5 0,26 z m 74,-30 c 2,8 3,16 4,23 l 21,-3 c 0,-9 -1,-17 -2,-25 l 0,-1 -23,6 z m -190,-3 19,14 c 2,-14 5,-28 10,-38 l -14,-18 c -8,9 -13,24 -15,42 z m -35,-15 c 1,7 2,15 3,22 l 21,-8 c -1,-8 -2,-15 -4,-23 l -20,9 z m 151,15 17,5 c 1,-10 4,-19 7,-27 l -19,-15 c -6,13 -5,27 -5,28 l 0,9 z m -48,-25 c 4,8 7,17 9,28 l 27,-9 c -3,-17 -10,-30 -20,-39 l -16,20 z m 211,-5 c 4,10 7,21 10,32 l 24,-8 c -1,-10 -2,-21 -2,-31 l -16,-7 -16,14 z m -97,8 c 3,5 5,12 7,19 l 23,-7 c 0,-8 -1,-13 -1,-14 -2,-7 -5,-15 -11,-22 l -18,24 z m 37,7 15,3 c 1,-10 3,-19 5,-26 l -16,-13 c -3,11 -4,24 -4,36 z m -255,-56 c 2,2 5,4 7,6 13,13 20,34 24,53 3,-16 9,-29 17,-38 1,0 1,0 1,0 0,-1 1,-2 2,-3 3,-3 7,-5 11,-7 -20,-2 -41,-6 -62,-11 z m 114,14 c 15,7 26,21 31,41 1,-11 5,-34 27,-45 -15,1 -31,3 -48,3 -3,1 -6,1 -10,1 z m -186,30 16,10 c 2,-8 5,-17 9,-23 l -15,-18 c -6,9 -9,21 -10,31 z m 63,-16 c 4,5 7,13 9,21 l 19,-8 c -3,-11 -8,-21 -15,-28 l -13,15 z m 170,0 18,15 c 1,-1 2,-2 2,-3 l 1,0 c 0,-1 0,-1 0,-1 3,-3 6,-5 9,-6 l -2,-22 c -14,3 -22,9 -28,17 z m 37,5 c 6,0 12,4 16,10 l 16,-23 c -7,-7 -18,-11 -34,-10 l 2,23 z m -293,7 16,1 c 0,-9 -1,-19 -4,-30 l -17,6 c 2,7 4,15 5,23 z m 484,-16 c 3,6 5,11 6,17 l 14,-5 0,-15 c 0,0 -1,-4 -3,-9 l -17,12 z m -333,-1 13,17 c 4,-5 9,-9 15,-9 5,0 9,2 13,5 1,1 2,3 3,4 l 15,-18 c -7,-4 -16,-7 -26,-8 -13,-2 -25,2 -33,9 z m 239,-5 c 6,2 12,8 17,16 l 15,-12 c -3,-6 -14,-30 -32,-32 l 0,28 z m -57,-1 c 5,6 9,11 11,17 2,-17 8,-31 18,-41 -16,4 -35,8 -54,11 10,2 18,7 25,13 z m 96,4 13,6 c 1,-8 2,-14 4,-20 l -13,-9 c -3,10 -4,20 -4,23 z m -72,-8 16,13 c 1,-1 1,-1 2,-2 l 0,-1 1,0 c 2,-3 4,-4 7,-5 l 0,-28 c -13,3 -21,11 -26,23 z m -320,-5 15,17 1,0 c 5,-5 11,-8 18,-7 4,0 8,2 11,5 l 12,-15 c -10,-9 -23,-12 -39,-10 -8,1 -14,4 -18,10 z m -19,-2 c 1,5 2,11 3,16 6,-18 18,-29 33,-31 2,0 3,0 5,0 -21,-6 -42,-13 -62,-20 10,10 17,22 20,34 0,0 0,1 1,1 z m 453,-7 c 4,5 8,11 11,19 l 16,-13 c -3,-8 -9,-19 -15,-27 l -12,21 z m -486,-2 c 3,4 6,8 8,13 l 17,-6 c -3,-8 -7,-16 -13,-23 l -12,16 z m 411,-13 c 13,4 22,16 27,25 2,-11 6,-28 15,-40 -12,5 -27,10 -42,15 z m -564,-93 c 12,6 229,123 387,116 176,-9 269,-68 281,-76 l -1,-24 c -4,3 -11,6 -21,11 0,0 -1,0 -1,1 -4,1 -8,3 -13,5 0,1 -1,1 -2,1 -9,4 -19,8 -31,13 0,0 -1,0 -2,1 -9,3 -18,6 -27,9 0,0 -1,1 -2,1 -5,1 -10,3 -16,5 0,0 -1,0 -2,0 -9,3 -17,5 -26,7 -1,1 -1,1 -1,1 -1,0 -1,0 -2,0 -13,3 -27,6 -41,9 -1,0 -1,0 -2,0 -6,1 -12,2 -18,3 0,1 0,1 -1,1 -9,1 -19,2 -29,4 l -1,0 c -19,2 -37,3 -57,3 -20,1 -39,0 -58,-2 l -1,0 c -18,-1 -36,-4 -54,-7 l -1,0 -1,-1 c -6,-1 -13,-2 -20,-4 l -1,0 -1,0 c -8,-2 -16,-4 -23,-6 -1,0 -2,0 -3,-1 -17,-5 -33,-10 -49,-15 -1,0 -2,-1 -2,-1 -7,-3 -13,-5 -19,-7 l -1,0 c 0,-1 -1,-1 -1,-1 -7,-3 -14,-6 -21,-9 -1,0 -1,0 -2,-1 -64,-28 -107,-57 -116,-64 -1,1 -2,4 -3,9 -1,10 4,17 5,19 z m 101,98 13,14 c 2,-5 4,-9 7,-12 1,0 1,0 1,0 l -11,-22 c -5,5 -8,12 -10,20 z m 502,2 14,10 c 1,-2 2,-4 4,-5 l 1,-1 c 1,0 2,-1 3,-1 3,-1 6,-1 9,1 l 12,-23 c -3,-2 -5,-4 -8,-6 -5,-2 -11,-2 -16,0 -10,3 -16,14 -19,25 z m 50,-22 c 7,9 14,20 18,30 l -3,-60 c -6,4 -17,11 -35,19 3,0 6,1 8,2 4,2 8,5 11,9 l 1,0 z m -582,-36 c 13,16 19,41 21,62 1,-2 1,-4 2,-6 l 0,-1 c 3,-11 8,-21 15,-27 0,-1 1,-1 1,-1 l 0,-1 c 4,-2 8,-4 12,-4 -19,-8 -36,-15 -51,-22 z m 62,54 c 1,0 2,0 4,0 4,1 8,3 11,6 l 12,-17 c -5,-5 -12,-9 -20,-12 -10,-4 -18,-4 -24,0 l 12,24 c 2,-1 3,-1 5,-1 z m -73,-33 c 5,8 7,18 9,28 l 14,-3 c -3,-14 -7,-28 -15,-38 l -8,13 z m 289,22 c 4,0 9,0 14,0 0,-23 -4,-74 -28,-75 -2,0 -5,1 -7,3 5,3 14,11 17,23 2,11 4,37 4,49 z m -14,-81 1,0 c 32,1 34,65 34,81 l 2,0 c 18,-1 36,-2 53,-4 -2,-13 -7,-58 6,-75 3,-4 7,-6 11,-7 7,-1 13,1 19,6 17,15 20,55 20,68 12,-3 25,-5 36,-8 -3,-14 -14,-60 -2,-79 4,-5 8,-8 14,-9 6,-1 12,1 17,5 17,14 23,54 25,67 8,-2 15,-5 22,-7 -2,-11 -6,-48 0,-71 0,0 0,-1 1,-1 1,-5 3,-9 6,-12 3,-4 8,-7 14,-7 10,0 23,7 30,38 2,12 3,23 3,30 10,-5 17,-9 20,-10 l -5,-119 c -19,10 -153,80 -328,89 -148,8 -320,-92 -340,-105 -2,3 -7,8 -6,19 0,19 11,22 11,22 2,1 3,2 3,3 l 0,48 c 3,3 11,9 24,17 1,-9 4,-25 13,-33 5,-3 10,-4 17,-2 24,6 25,55 25,65 10,5 21,10 32,15 0,-12 2,-41 14,-50 4,-3 9,-4 13,-3 24,7 24,59 24,74 14,5 28,9 44,14 -1,-14 -2,-46 9,-60 l 0,-1 c 1,0 1,0 1,0 0,-1 1,-1 1,-2 4,-3 9,-4 14,-4 32,6 30,65 29,79 16,3 32,6 48,7 0,-14 -2,-58 13,-73 3,-4 7,-5 12,-5 z m -18,79 c 8,0 17,1 25,1 0,-8 -1,-32 -4,-47 -2,-10 -10,-16 -14,-18 -8,15 -8,48 -7,64 z m 118,-71 c -8,15 -6,51 -3,68 8,-1 16,-2 24,-3 -1,-9 -2,-33 -4,-43 -4,-14 -13,-20 -17,-22 z m 5,-5 c 6,3 15,10 18,26 3,9 4,34 4,43 5,-1 9,-1 13,-2 -1,-11 -4,-50 -19,-64 -4,-3 -8,-4 -13,-4 -1,0 -2,1 -3,1 z m -199,64 c 5,1 10,2 15,3 1,-15 2,-66 -24,-71 -3,0 -5,0 -7,2 5,5 14,16 17,32 2,15 0,28 -1,34 z m -26,-7 c 6,2 13,4 19,6 1,-6 3,-18 1,-32 -2,-13 -10,-23 -14,-28 -7,13 -7,41 -6,54 z m 305,-71 c -8,16 -1,53 4,70 8,-2 15,-4 22,-6 -1,-16 -6,-51 -15,-59 -6,-6 -9,-6 -10,-6 l -1,1 z m -518,15 -2,52 c 1,-10 5,-22 14,-30 5,-3 10,-5 16,-6 1,0 1,0 1,0 1,0 2,0 3,0 -15,-7 -26,-13 -32,-16 z m 10,36 14,14 c 2,-2 3,-3 5,-4 1,-1 1,-1 2,-2 l -5,-20 c -3,0 -7,2 -10,4 -2,2 -5,5 -6,8 z m 28,7 c 3,0 5,0 8,1 3,1 5,3 7,5 l 9,-13 c -4,-4 -8,-7 -13,-9 -6,-2 -11,-3 -16,-4 l 5,20 z m 485,-65 c 3,1 6,3 11,7 11,11 16,48 17,62 4,-1 8,-2 11,-3 -1,-12 -7,-51 -23,-64 -3,-3 -7,-4 -11,-4 -2,0 -4,1 -5,2 z m -382,55 c 5,2 9,3 14,5 0,-20 -2,-60 -18,-64 -2,-1 -3,-1 -4,-1 3,5 8,15 9,24 2,14 0,29 -1,36 z m 456,-67 c -4,19 -2,49 0,65 10,-4 19,-7 27,-11 -1,-13 -5,-42 -12,-49 -6,-7 -12,-6 -15,-5 z m -479,57 c 5,3 11,5 16,7 1,-7 3,-20 2,-32 -1,-8 -6,-16 -9,-21 -7,10 -9,34 -9,46 z m 483,-64 c 5,0 11,1 16,7 9,10 13,39 14,51 3,-1 5,-2 8,-3 -1,-20 -6,-64 -27,-64 -4,0 -7,2 -9,5 -1,1 -2,2 -3,4 l 1,0 z m -539,37 c 3,2 7,4 10,6 0,-17 -4,-47 -17,-54 2,5 5,12 7,19 2,13 1,24 0,29 z m -31,-17 c 7,4 15,9 25,14 0,-6 1,-15 -1,-25 -2,-9 -7,-18 -9,-22 -2,0 -3,1 -4,2 -8,6 -11,23 -11,31 z m -36,-119 c 18,11 189,113 336,105 187,-10 326,-89 328,-90 l 0,-1 -3,-74 c -20,17 -116,87 -311,88 -2,0 -3,0 -5,0 -217,0 -337,-102 -353,-117 l 8,89 z m -55,-111 0,131 11,-3 0,-128 -11,0 z m 180,57 c 58,22 139,43 235,43 106,0 191,-30 243,-56 -20,-12 -101,-57 -216,-57 -161,0 -244,57 -262,70 z m -92,-48 c 5,7 36,26 85,45 8,-7 93,-74 269,-74 125,0 210,52 223,61 28,-14 45,-26 50,-29 l -1,-5 0,-1 1,-1 c 1,-3 5,-9 12,-16 -20,-14 -134,-92 -294,-85 -160,7 -330,91 -345,105 z m 634,-3 c 3,5 23,22 59,22 31,0 59,-26 61,-31 0,-3 -7,-26 -58,-25 -38,0 -59,27 -62,34 z m -649,-419 1,393 c 3,-2 6,-4 10,-6 l 0,-323 c 0,-2 1,-46 31,-46 7,0 12,2 17,7 12,13 11,38 11,39 l 2,57 7,-1 1,-117 -80,-3 z m 42,25 c -23,0 -24,38 -24,39 l 0,319 c 4,-3 8,-5 12,-8 l 6,-305 c 0,-1 0,-21 5,-32 2,-6 6,-11 7,-12 -2,-1 -4,-1 -6,-1 z m 12,5 c -1,0 -4,5 -7,11 -4,10 -5,29 -5,29 l -5,301 c 5,-2 11,-5 16,-8 l 1,-40 0,-1 0,-104 c 0,0 1,-10 5,-23 l 0,-1 c 2,-5 4,-10 7,-16 l -1,-53 -2,-61 c 0,0 1,-23 -9,-34 z m 6,296 0,33 c 7,-3 14,-7 21,-10 l 1,-23 -22,0 z m -212,-4 90,0 0,-27 -113,-7 23,34 z m 212,-3 22,0 1,-31 -22,0 -1,31 z m -236,-38 110,6 -59,-76 -51,70 z m 57,-75 62,81 51,-32 0,-107 -113,58 z m 245,68 c 3,4 8,7 13,8 l 0,-16 0,-42 c 0,-1 0,-8 -3,-15 0,-1 0,-1 -1,-2 -3,-8 -9,-17 -21,-17 1,1 2,2 3,2 10,9 12,21 12,28 0,7 -2,51 -3,53 l 0,1 z m -65,7 22,0 1,-34 -23,1 0,33 z m 85,-12 0,12 c 7,-2 13,-6 18,-10 0,-1 1,-1 2,-2 0,0 0,-1 -1,-1 l 0,-3 -19,4 z m 26,-8 0,3 c 4,-2 8,-4 13,-4 2,0 3,0 5,0 0,-3 -1,-12 -1,-23 l -18,-1 1,24 0,1 z m -26,-26 0,27 19,-4 -1,-23 -18,0 z m 113,17 c 2,1 3,3 4,4 2,2 3,2 5,2 1,0 2,0 3,0 1,-8 1,-39 -7,-63 -3,-9 -6,-17 -12,-23 -4,-4 -9,-7 -14,-9 -2,-1 -3,-1 -5,-1 9,5 14,13 19,25 6,15 7,62 7,65 z m 18,-33 c 1,14 1,26 1,34 1,-1 2,-3 3,-5 3,-5 6,-10 13,-14 0,-2 0,-10 -1,-19 l -16,4 z m -213,-18 c -3,9 -3,16 -3,17 l 0,23 23,-1 c 0,-4 0,-16 3,-28 l -23,-11 z m 325,33 c 3,2 6,3 9,3 3,-1 6,-2 9,-3 0,-10 0,-60 -20,-82 -4,-3 -7,-6 -11,-7 -1,0 -1,0 -1,-1 -3,-1 -7,-2 -11,-2 -2,0 -3,1 -5,1 4,1 7,3 10,6 21,22 20,81 20,85 z m -82,-2 c 3,0 7,1 9,2 0,-5 0,-14 0,-23 l -17,0 c 1,10 2,17 2,22 2,-1 3,-1 6,-1 z m 210,-3 c 3,2 6,3 9,2 4,0 5,-2 8,-4 1,-1 3,-2 5,-3 0,-3 1,-9 1,-17 l -24,0 c 1,10 1,19 1,22 z m -347,0 19,1 c 0,-7 1,-16 2,-24 l -20,-4 c -1,7 -2,12 -2,12 l 0,1 1,14 z m 243,-22 c 1,10 1,18 1,23 4,-2 7,-4 12,-4 0,-3 1,-11 0,-20 l -13,1 z m 20,18 c 2,1 3,1 5,1 3,1 5,1 7,3 l 1,-26 -13,-1 c 1,11 0,19 0,23 z m -287,3 17,0 -1,-19 c 0,0 1,-4 0,-10 l -19,10 c 2,5 3,10 3,14 l 0,5 z m 354,-14 1,0 c 2,2 4,4 6,6 1,1 2,2 3,3 -1,-17 -2,-41 -3,-48 -3,-12 -10,-33 -27,-33 l -1,0 c 7,4 15,11 18,25 0,1 0,2 0,2 0,1 0,1 0,1 5,20 3,41 3,44 z m 47,-14 c 0,9 -1,16 -1,21 2,-1 4,-1 6,-1 0,-4 -1,-11 0,-20 l -5,0 z m -275,-5 c 1,6 3,12 4,17 l 16,-4 c -1,-6 -3,-13 -4,-20 l -16,7 z m -206,-1 23,12 c 2,-8 6,-14 12,-19 l -11,-23 c -8,4 -13,10 -17,16 0,1 -1,1 -1,2 -3,4 -4,8 -6,12 z m 234,10 16,0 c 0,-7 1,-15 2,-22 l -13,-6 c -3,11 -5,21 -5,28 z m -171,-16 c 5,3 9,9 12,14 l 20,-10 c -1,-7 -4,-14 -10,-20 -3,-4 -6,-6 -10,-8 l -12,24 z m 279,-8 c 2,7 3,14 4,21 l 14,-2 c -1,-7 -2,-15 -3,-23 l -15,4 z m 108,20 24,0 c -1,-9 -1,-19 -3,-29 l -23,6 c 1,5 1,14 2,23 z m -344,-5 20,4 c 1,-8 3,-16 6,-22 l -17,-13 c -5,11 -8,22 -9,31 z m 442,-2 c 5,3 9,3 15,4 0,-5 -1,-13 -2,-23 l -14,0 c 1,9 1,16 1,19 z m -181,2 13,1 0,-19 -17,-2 c 2,6 3,13 4,20 z m 113,-2 6,0 c 0,-5 0,-11 1,-18 l -9,0 c 1,6 2,13 2,18 z m -283,-18 c 2,4 5,9 7,14 l 16,-8 c -3,-7 -5,-14 -9,-20 l -14,14 z m 332,-1 c 3,3 5,6 8,9 l 3,3 c 0,0 1,1 2,2 -1,-5 -1,-11 -2,-17 -1,-7 -3,-15 -6,-21 l 0,-1 c -1,-3 -3,-6 -6,-8 -2,-2 -5,-4 -7,-5 -2,0 -4,0 -6,0 5,3 10,7 12,13 3,10 2,21 2,25 z m -481,9 c 3,0 7,1 9,2 l 11,-24 c -5,-2 -11,-3 -18,-3 -8,0 -14,1 -20,3 l 11,23 c 1,0 3,-1 6,-1 l 1,0 z m 193,-13 13,5 c 1,-6 4,-13 7,-18 l -8,-11 c -5,7 -9,15 -12,24 z m 93,-10 c 2,4 4,8 6,13 l 15,-4 c -2,-6 -4,-13 -7,-18 l -14,9 z m 165,-12 c -3,6 -4,14 -5,23 4,-3 9,-6 17,-6 4,0 8,2 11,4 0,-5 0,-12 -2,-18 -2,-7 -11,-11 -14,-12 -3,2 -5,5 -7,9 z m -380,10 17,13 c 1,-3 2,-5 4,-7 2,-1 3,-3 5,-4 l -6,-23 c -9,5 -15,13 -20,21 z m 245,10 16,2 c 1,-3 2,-8 4,-13 l -12,-11 c -4,8 -6,16 -8,22 z m 77,-14 c 2,5 4,10 6,16 l 22,-6 c -2,-9 -5,-18 -9,-25 l -19,15 z m -264,4 c 6,2 10,5 14,10 1,0 1,1 2,1 l 15,-15 c -6,-8 -12,-14 -20,-19 l -11,23 z m 300,10 11,0 c 0,-6 1,-13 3,-20 l -12,-7 c -2,9 -3,17 -4,19 1,3 2,5 2,8 z m -86,-10 c 2,0 5,1 8,3 2,1 4,3 5,4 1,2 2,3 6,3 1,0 2,0 4,-2 1,-1 4,-2 6,-2 1,-1 2,-1 3,0 -7,-17 -19,-18 -23,-18 -4,3 -7,7 -9,11 0,1 0,1 0,1 z m 155,9 14,0 c -1,-8 -3,-16 -5,-24 l -13,7 c 2,5 3,11 4,17 z m -401,-33 6,22 c 6,-2 14,-2 20,0 l 11,-23 c -5,-2 -10,-3 -16,-3 -8,0 -15,2 -21,4 z m 171,6 c 3,2 6,4 9,7 2,2 4,4 5,7 l 14,-9 c -1,-3 -3,-5 -5,-7 -5,-5 -11,-9 -17,-12 l -6,14 z m -58,0 7,11 c 2,-2 4,-4 7,-6 1,0 3,-2 6,-4 l -1,-15 c -8,4 -14,8 -19,14 z m 117,0 12,11 c 3,-5 6,-8 11,-11 0,-1 1,-1 1,-1 l -9,-17 c -6,5 -11,11 -15,18 z m 54,0 c 3,2 6,5 8,8 l 19,-15 c -1,-1 -2,-2 -3,-3 -4,-4 -8,-8 -12,-10 l -12,20 z m 97,-9 c 2,1 5,3 7,5 2,2 4,5 6,8 l 13,-8 c -3,-8 -7,-16 -13,-22 -2,-2 -4,-3 -6,-4 l -7,21 z m -44,3 12,8 c 2,-3 3,-5 6,-7 l -10,-17 c -3,5 -6,11 -8,16 z m -198,-10 1,14 c 4,-1 8,-2 13,-2 4,0 8,0 11,1 l 6,-13 c -5,-2 -10,-2 -16,-2 -6,0 -11,1 -15,2 z m 130,12 c 4,0 6,0 9,1 l 11,-20 c -5,-2 -11,-3 -19,-3 -7,0 -14,2 -19,5 l 10,18 c 2,-1 5,-1 8,-1 z m 81,-24 10,19 c 3,-1 6,-2 9,-2 2,0 4,0 5,0 l 8,-23 c -4,-1 -8,-2 -12,-2 -8,1 -15,4 -20,8 z m -378,-66 -90,73 467,-29 56,-66 -433,22 z m -97,53 0,17 92,-75 0,-17 -92,75 z m 0,-22 0,13 92,-75 0,-12 -92,74 z m 1,-73 -1,64 18,-14 c -1,-9 -3,-45 10,-53 3,-2 6,-2 8,0 7,4 10,20 11,29 l 7,-5 c -1,-11 -3,-49 12,-55 3,-1 6,0 8,1 6,4 8,20 9,29 l 9,-7 0,-54 -86,64 -1,1 -1,0 -3,0 z m 31,3 0,1 c -7,3 -9,24 -8,41 l 17,-13 c -1,-13 -5,-26 -8,-28 0,-1 0,-1 -1,-1 z m 37,-31 -1,1 c -7,3 -9,24 -8,43 l 16,-13 c 0,-12 -2,-28 -6,-30 0,-1 0,-1 -1,-1 z m -71,20 -42,-67 -56,63 10,0 c 1,0 1,0 1,0 l 86,4 1,0 z m -37,-71 44,69 85,-62 -49,-47 -80,40 z m 277,687 c -5,0 -17,0 -18,0 -2,0 -3,-2 -3,-4 l 0,-5 0,-12 0,-14 c 0,-2 1,-4 3,-4 0,0 14,0 18,0 4,1 18,1 18,1 2,0 3,1 3,3 l 3,30 c 0,1 0,2 0,3 -1,0 -2,1 -3,1 0,0 -16,1 -19,1 -1,0 -1,0 -2,0 z m -15,-7 c 3,0 7,0 10,0 l 21,-13 -1,-5 -30,18 z m 32,-6 -9,6 c 3,0 7,-1 9,-1 l 0,-5 z m -32,-6 0,4 27,-16 c -3,0 -7,0 -9,-1 l -18,13 z m 0,-13 0,4 6,-4 -6,0 z m -85,25 c -4,0 -9,-1 -16,-3 -7,-2 -11,-4 -13,-6 l -1,0 c 0,-1 -1,-1 -1,-1 0,-1 -1,-2 -1,-2 l -2,-34 c 0,-1 0,-3 1,-3 1,-1 2,-1 3,-1 0,0 4,1 14,4 1,0 2,0 3,1 12,3 16,5 16,5 2,0 2,1 2,3 l 1,33 c 0,2 -1,3 -3,4 0,0 -1,0 -3,0 z m -21,-12 c 1,0 2,1 3,1 l 17,-10 0,-4 -20,13 z m -4,-9 0,4 23,-16 c 1,0 1,-1 1,-1 l 0,-1 c -1,0 -3,0 -5,-1 l -19,15 z m -1,-10 0,2 12,-10 -1,0 -1,0 -10,8 z m 218,30 c -1,0 -3,-1 -3,-3 l -1,-9 -1,-11 0,-1 -1,-12 c 0,-2 1,-3 3,-3 0,0 11,-2 17,-3 1,0 2,0 3,0 1,0 1,0 1,0 5,-1 12,-3 12,-3 2,0 3,0 3,0 1,1 2,2 2,3 l 0,7 0,1 1,11 0,1 0,12 c 0,1 0,2 -1,3 -1,0 -7,5 -17,6 -4,0 -7,1 -10,1 -5,0 -7,0 -7,0 l -1,0 z m 3,-10 0,3 c 1,0 2,0 3,0 l 23,-17 0,-4 -26,18 z m 26,-6 -9,7 c 4,0 7,-2 9,-3 l 0,-4 z m -27,-6 0,4 26,-18 0,-1 c -2,0 -5,1 -8,1 l -18,14 z m 84,1 c -1,0 -2,0 -3,-1 0,-1 -1,-2 -1,-3 0,0 1,-9 0,-15 -1,-1 -1,-2 -1,-4 -1,-5 -3,-11 -3,-11 0,-2 1,-4 2,-4 0,0 16,-5 22,-8 7,-2 14,-4 14,-4 1,-1 2,0 3,0 0,1 1,2 1,3 l 2,9 c 0,1 0,2 0,3 l 3,19 c 0,2 -1,3 -2,4 0,0 -14,6 -20,8 -6,2 -16,4 -17,4 z m 3,-9 c 0,1 0,1 0,1 2,0 4,-1 6,-1 3,-2 14,-12 21,-18 l 0,-3 -27,21 z m -1,-13 c 0,0 0,1 0,2 0,1 1,2 1,3 l 26,-20 -1,-5 -1,0 -25,20 z m -2,-11 c 0,1 0,2 0,3 l 8,-6 c -3,1 -6,2 -8,3 z m -369,31 c 0,0 -11,-1 -21,-6 l -4,-1 c -8,-4 -12,-6 -14,-10 0,0 0,-1 0,-2 l 0,-1 c 0,-6 1,-19 2,-28 0,-1 0,-2 1,-3 1,0 2,0 3,0 0,0 9,4 15,6 1,1 2,2 3,2 3,1 7,2 10,3 4,0 7,1 7,1 1,0 3,2 3,3 l -1,32 c 0,1 -1,2 -2,3 0,0 -1,1 -2,1 z m -20,-13 1,1 16,-8 0,-2 -17,9 z m -11,-5 c 0,1 1,1 3,2 l 26,-14 0,-3 c -1,0 -2,0 -3,0 l -26,15 z m -1,-11 c 0,1 0,2 0,4 l 17,-11 c 0,0 -1,0 -2,-1 -1,0 -1,0 -2,0 l -13,8 z m 1,-14 c 0,2 0,4 0,5 l 4,-3 c -1,0 -3,-1 -4,-2 z m 481,19 c -1,0 -2,-1 -2,-1 -1,0 -2,-1 -2,-3 l 0,-9 -1,0 -1,-25 c 0,-1 0,-3 2,-3 l 20,-9 10,-4 c 1,0 2,0 3,0 1,1 1,2 2,3 l 2,20 1,14 c 0,2 -1,3 -2,4 l -31,12 c -1,1 -1,1 -1,1 z m 2,-12 1,3 2,-1 21,-22 -24,20 z m 25,-11 -7,7 7,-3 0,-4 z m -26,-2 1,4 23,-20 -1,-5 -5,2 -18,19 z m -538,10 -1,0 -17,-8 -1,0 -10,-5 -4,-1 c -1,-1 -1,-2 -1,-4 l 0,-9 0,-1 0,-25 c 0,-1 1,-2 2,-3 1,0 2,0 3,0 l 33,18 c 1,1 2,2 1,3 l -1,32 c -1,1 -1,2 -2,3 -1,0 -1,0 -2,0 z m -20,-16 3,1 15,-8 0,-3 -18,10 z m -8,-9 0,5 26,-14 -5,-2 -21,11 z m 1,-13 0,5 13,-7 -6,-3 -7,5 z m 51,-55 c -1,0 -1,0 -2,0 -1,-1 -1,-2 -1,-3 l -1,-8 0,-1 -2,-11 -1,-14 c -1,-1 0,-3 2,-3 l 27,-10 1,0 c 1,0 2,0 3,1 0,0 0,1 0,2 l 4,34 c 0,1 -1,3 -2,3 l -27,10 -1,0 z m 3,-11 0,3 19,-17 0,-2 -19,16 z m -2,-11 1,3 19,-16 -1,-5 -19,18 z m 633,7 c -26,0 -37,-14 -37,-15 -1,-1 -1,-3 0,-4 0,-1 15,-17 40,-19 24,-2 43,8 44,9 1,0 1,1 2,2 0,1 0,2 -1,3 0,1 -14,22 -44,24 -1,0 -2,0 -4,0 z m -30,-17 c 4,4 15,11 34,10 19,-1 31,-12 36,-18 -6,-2 -21,-7 -37,-6 -17,1 -28,10 -33,14 z m -542,6 c -1,0 -2,0 -2,0 -1,-1 -2,-2 -2,-3 l -1,-5 c 0,-1 0,-1 0,-1 l -1,-12 -2,-16 c 0,-2 1,-3 2,-4 l 31,-9 c 1,-1 2,0 3,1 1,1 1,1 1,2 l 4,33 c 0,2 -1,3 -2,4 l -30,10 c -1,0 -1,0 -1,0 z m 25,-28 -22,20 23,-8 -1,-12 z m -24,8 0,4 23,-20 -1,-4 -22,20 z m -2,-15 1,7 12,-11 -13,4 z m 513,-60 c -2,0 -4,-1 -6,-2 -8,-3 -12,-11 -16,-18 -3,-5 -6,-11 -9,-13 -4,-2 -11,1 -18,4 -5,2 -10,4 -14,3 -6,0 -9,-4 -11,-8 -2,-3 -5,-6 -9,-9 -8,-5 -21,3 -21,3 -2,1 -4,1 -5,-1 -1,-1 0,-4 1,-5 1,0 16,-10 28,-3 6,3 9,8 11,11 3,3 4,5 7,6 2,0 7,-2 11,-4 7,-3 16,-7 23,-3 5,3 9,9 12,16 4,6 7,13 13,15 6,3 13,-4 14,-4 1,-1 3,-1 4,0 2,1 2,3 0,5 0,0 -7,7 -15,7 z m -738,-51 -64,-2 c -1,0 -2,-1 -3,-2 0,-1 0,-3 1,-4 l 32,-36 c 1,0 2,-1 3,-1 1,0 2,1 2,1 l 32,38 c 1,1 1,3 0,4 0,1 -2,2 -3,2 z m -56,-9 49,2 -25,-29 -24,27 z m 296,-165 c -1,0 -3,-1 -3,-2 -1,-1 0,-3 1,-4 l 40,-38 c 1,0 1,-1 2,-1 l 401,-26 c 1,0 3,0 3,2 1,1 1,2 0,4 l -37,42 c 0,1 -1,2 -2,2 l -405,21 z m 42,-38 -33,31 394,-21 30,-36 -391,26 z m -126,-76 -58,0 c -2,0 -3,-1 -4,-2 0,-1 0,-3 1,-4 l 31,-32 c 1,-1 1,-1 2,-1 1,0 2,0 3,1 l 28,32 c 1,1 1,3 0,4 0,1 -2,2 -3,2 z m -50,-7 43,0 -21,-23 -22,23 z"
           id="path3662"
           inkscape:connector-curvature="0"
           style="fill:#231f20;stroke:none" /></g><rect
         style="fill:none;stroke:none"
         id="rect3667"
         height="788.84857"
         width="635.25836"
         y="2321.0291"
         x="2139.948"
         class="BoundingBox" /><path
         sodipodi:nodetypes="sccccssccccsscccsccssccccscccscccccccccccccsscccccccccsccscccscccsccccccscccsccccccccccscccccccsccccccscccscccssccccccccccccccsccssscccsssccsssscscscsssscccsccccccsccccccccsccccsssscscccccccccccssscccccssscccccccccccsscccccsscccsccccccssscccccccccccsscccscsccsccccccsccccccsccccssssccccscscccsccsccccsccccccccscccccccccsccccccccccccccsccccccccccccccccccccccccccccccccccccccccccccsccscccsscsccccscccccsccsscscccccsccscscccccccccccccccccccccccccccccccccccccccccccccccccccccccccccccccccccccccccccccccccsccscccssccccccccccccsscscscccccssccccscccccccccscccsscccsccccssccccscccccccccccsccsccccccsccccccssccscccsccccsccccsccccccccccccccccccsccccscccccccccccccccccsccccscccccccccccccccccccccccsscccscccscccssccsscccscccsccccscccccccsccsccssccccs"
         style="fill:#231f20;stroke:none"
         inkscape:connector-curvature="0"
         id="path3669"
         d="m 2554.7954,3109.1355 c -1.4843,0 -2.9685,-0.7421 -2.9685,-2.2263 l -0.7422,-62.3361 c 0,-1.4842 0,-32.6522 17.0689,-33.3943 7.4212,0 12.6161,2.2262 17.811,6.6788 16.3267,17.0682 13.3582,58.6257 13.3582,60.8519 0,0.7421 -1.4842,2.2263 -2.9685,2.2263 -1.4842,0 -2.2264,-1.4842 -2.2264,-2.9684 0,0 2.2264,-41.5574 -11.8739,-56.3993 -2.9685,-2.9684 -5.937,-4.4526 -9.6477,-5.1947 2.9685,2.9684 5.937,6.6789 8.1634,12.6157 3.7106,8.163 6.6791,52.6888 6.6791,57.8835 0,1.4842 -0.7421,2.2263 -2.2263,2.2263 -1.4843,0 -2.2264,-0.7421 -2.9685,-2.2263 -0.7422,-13.3577 -3.7107,-49.7205 -5.937,-56.3993 -3.7107,-8.1631 -7.4213,-11.1315 -9.6476,-11.8736 -1.4843,0 -2.9685,0 -3.7107,0.7421 -6.6791,6.6789 -7.4212,24.4892 -7.4212,25.2313 l 1.4842,62.3361 c 0,1.4842 -0.7421,2.2263 -2.2263,2.2263 z m 67.5333,-48.9784 c -1.4843,0 -2.2264,-1.4842 -2.2264,-2.9684 l -6.6791,-146.193 0,-0.7421 -3.7106,-105.3777 c -0.7422,-1.4842 0.7421,-2.9684 2.2263,-2.9684 1.4843,0 2.2264,0.7421 2.2264,2.2263 l 0.7421,19.2945 63.8227,-5.1946 0,-12.6157 c 0,-4.4525 7.4213,-11.1314 17.0689,-16.3261 l -9.6476,-8.9052 -19.2953,23.005 c 0,0 -0.7421,0.7421 -1.4842,0.7421 l -25.9744,3.7105 c -0.7421,0 -0.7421,0 -1.4842,-0.7421 l -23.748,-19.2945 -9.6476,5.9368 c -1.4843,0.7421 -2.9685,0.7421 -3.7106,-0.7421 -0.7422,-0.7421 -0.7422,-2.2263 0.7421,-3.7105 l 4.4527,-2.9684 -0.7421,-27.4575 -63.0805,0.742 0,31.1681 c 0,1.4842 -0.7422,2.2263 -2.2264,2.2263 -1.4843,0 -2.9685,-0.7421 -2.9685,-2.2263 l 0.7421,-155.8403 c 0,-0.7421 0,-0.7421 0,-0.7421 l 0,-0.7421 0,-115.0249 -26.7165,-0.7421 c -1.4842,0 -2.2263,-0.7421 -2.2263,-1.4842 -0.7422,-0.7421 -0.7422,-1.4842 0,-2.2263 l 23.0058,-37.8469 c 0.7421,-0.7421 1.4843,-1.4842 2.2264,-1.4842 l 6.6791,0 0,-53.431 -14.8425,0 c -0.7421,0 -1.4842,-0.7421 -2.2264,-1.4842 0,-0.742 0,-1.4841 0,-2.2262 l 12.6162,-17.8104 c -1.4843,-2.2262 -2.9685,-6.6788 -2.9685,-16.3261 0,-17.0682 28.9428,-37.8469 30.4271,-38.589 0.7421,-0.7421 2.2263,-0.7421 2.9685,0.7421 1.4842,0.7421 0.7421,2.2263 0,2.9684 -8.1634,5.9368 -28.2008,23.005 -28.2008,34.8785 0,11.8736 2.2264,14.842 2.2264,14.842 1.4843,0.742 1.4843,2.2262 0.7421,2.9683 l -10.3897,14.842 76.4388,-1.4842 -12.6161,-17.0682 c -0.7422,-0.7421 -0.7422,-2.2263 0,-2.9684 0.7421,-1.4842 2.9685,-7.421 2.9685,-10.3894 0,-4.4526 -2.9685,-12.6156 -4.4528,-15.584 0,-1.4842 -28.6134,-19.5381 -25.5583,-24.4689 1.4843,0 -0.2104,-4.1609 27.2358,19.0956 0,0.7421 7.9701,14.2784 7.9701,20.9573 0,3.7105 -2.2263,8.9052 -2.9685,11.1315 l 14.8425,20.0366 c 0,0.7421 0.7422,1.4842 0,2.9684 0,0.7421 -1.4842,0.7421 -2.2263,0.7421 l -17.0689,0.742 2.9685,53.431 30.4271,1.4842 c 0.7421,0.7421 1.4842,0.7421 1.4842,1.4842 0.7422,0.7421 0.7422,1.4842 0.7422,2.2263 l -14.1004,39.3311 c 0,0.7421 -1.4842,1.4842 -2.2264,1.4842 l -15.5846,0 5.1949,114.2828 0.7421,23.7471 c 0.7421,0.7421 0.7421,0.7421 0.7421,1.4842 l -0.7421,0.7421 1.4843,18.5524 c 1.4842,2.2263 6.6791,8.1631 14.8424,7.421 4.4528,-0.7421 7.4213,-2.2263 9.6477,-3.7105 4.4527,-2.9684 8.9055,-5.9368 19.2952,-3.7105 7.4212,2.2263 11.1319,6.6789 13.3582,10.3894 2.9685,4.4526 5.937,7.4209 12.6161,8.9051 5.1949,0.7421 8.1634,-0.7421 11.874,-2.2262 3.7106,-2.2263 8.1634,-4.4526 17.811,-2.9684 8.1634,0.7421 13.3582,6.6788 19.2952,12.6156 5.1949,5.9368 10.3898,11.1315 17.0689,11.1315 6.6791,0 8.9055,-0.7421 11.1319,-2.2263 2.2263,-0.7421 4.4527,-1.4842 8.9055,-1.4842 7.4212,0.7421 11.1318,5.9367 11.1318,5.9367 0.7421,1.4842 0.7421,2.9684 -0.7421,3.7105 -1.4843,0.7421 -2.9685,0.7421 -3.7106,-0.7421 0,0 -2.2264,-2.9684 -7.4213,-3.7105 -2.9685,0 -3.7106,0 -5.937,1.4842 -2.2263,0.7421 -5.1948,2.2263 -14.1003,2.2263 -8.1634,0 -14.1004,-6.6788 -20.0374,-12.6156 -5.1949,-5.1947 -10.3897,-10.3894 -15.5846,-11.1315 -8.9055,-1.4842 -11.874,0.7421 -16.3267,2.2263 -3.7106,1.4842 -7.4213,3.7105 -14.1004,2.2263 -8.9055,-0.7421 -12.6161,-5.9368 -15.5846,-10.3893 -2.9685,-3.7105 -5.1949,-6.6789 -10.3897,-8.1631 -8.9055,-2.2263 -11.874,0 -15.5846,2.2263 -2.9685,2.2263 -5.937,4.4526 -11.874,5.1947 -6.6791,0.7421 -11.874,-2.2263 -15.5846,-5.1947 l 4.4527,97.9567 1.4843,-1.4842 c 0.7421,0 2.2263,0 2.9685,0.7421 l 24.4901,20.0366 23.7479,-3.7104 20.0374,-23.7471 c 0.7421,-0.7421 1.4842,-0.7421 2.2264,-0.7421 0.7421,0 0.7421,0 1.4842,0.7421 l 13.3582,11.1314 c 8.1634,-2.9684 17.811,-5.9368 26.7165,-5.9368 23.0059,0 37.8483,12.6157 37.8483,19.2946 0,8.163 -23.0058,20.7787 -38.5904,22.2629 -15.5846,1.4841 -34.1377,-2.2263 -43.0432,-8.9052 l 0,73.4675 0,22.2629 0,84.599 c 0,1.4842 -0.7421,2.2263 -2.2264,2.2263 -1.4842,0 -2.9685,-0.7421 -2.9685,-2.2263 l 0,-81.6306 -10.3897,0 c 0.7421,31.9102 2.2263,94.9884 2.2263,97.9568 0,1.4842 -1.4842,2.9684 -2.2263,2.9684 l -0.7422,0 c -0.7421,0 -2.2263,-1.4842 -2.2263,-2.9684 0,-0.7421 -2.2264,-111.3145 -2.2264,-115.7671 -0.7421,-1.4842 -0.7421,-3.7105 -0.7421,-5.9368 l 0,-0.7421 c -1.4843,-8.9051 -3.7106,-20.0366 -12.6161,-20.0366 -2.2264,0 -3.7107,0.7421 -5.1949,2.2263 -7.4212,6.6789 -9.6476,27.4576 -9.6476,42.2995 0,5.1947 2.2264,132.0932 2.2264,133.5774 0,1.4842 -0.7422,2.2263 -2.2264,2.2263 -1.4843,0 -2.9685,-0.7421 -2.9685,-2.2263 0,-5.1947 -1.4843,-118.7354 -2.2264,-132.0932 l -11.1319,0 5.937,143.9667 c 0,1.4842 -0.7421,2.9684 -2.2263,2.9684 z m -3.7107,-152.1298 11.874,0 c 0,-4.4525 0,-10.3893 0.7422,-17.0682 l -13.3583,0.7421 z m 48.9802,-18.5524 c 0,1.4842 0,2.9684 0,3.7105 0,1.4842 0.7422,5.9368 0.7422,13.3578 l 10.3897,0 0,-17.0683 z m -51.9486,-61.594 2.2263,58.6256 14.1004,-0.742 c 1.4842,-8.1631 4.4527,-15.5841 8.9055,-20.0367 2.2263,-2.9683 5.1948,-3.7104 8.9055,-3.7104 11.874,0 15.5846,12.6156 17.0688,22.2629 l 11.874,0 0,-60.852 z m 112.0607,-42.2995 c -23.0058,0 -43.7853,15.5841 -43.7853,20.0366 0,0.7421 0.7421,1.4842 1.4842,2.2263 5.937,5.9368 23.748,10.3894 40.8169,8.9052 17.0688,-1.4842 34.8798,-13.3578 34.1377,-17.0682 0,-2.9684 -11.1319,-14.0999 -32.6535,-14.0999 z m -185.531,-43.0416 0,11.8736 62.3384,-0.7421 0,-11.1315 z m 49.7223,-5.1946 11.874,0 -2.9685,-76.436 -58.6278,1.4842 0,74.9518 16.3267,0 0,-27.4576 c 0,-6.6789 3.7106,-18.5524 14.8425,-18.5524 l 0.7421,0 c 11.1319,0 14.8425,11.1314 15.5846,17.0682 z m -28.2007,0 23.0058,0 -2.2264,-28.1997 c 0,-0.7421 -1.4842,-12.6157 -10.3897,-12.6157 l -0.7421,0 c -8.9055,0 -9.6476,12.6157 -9.6476,13.3578 z m -21.5216,-100.9252 0,21.5208 57.8856,-2.2263 -0.7421,-19.2945 -17.0688,0 -0.7422,0 z m 0.7421,-117.9933 -0.7421,112.7987 17.8109,0 0,-18.5525 c 0,-5.9367 5.937,-11.8735 11.874,-11.8735 8.1634,0 11.1319,7.421 11.874,11.8735 l 0.7421,18.5525 14.8425,0 -5.1949,-112.0566 z m 28.9428,87.5674 c -3.7106,0 -6.6791,3.7105 -6.6791,6.6788 l 0,18.5525 14.1004,0 -0.7422,-18.5525 c 0,0 -0.7421,-6.6788 -6.6791,-6.6788 z m -56.4014,-93.5042 97.9604,1.4842 11.874,-34.1364 -26.7165,-1.4842 0.7421,14.8419 c 0,0.7421 0,1.4842 -0.7421,2.2263 0,0.7421 -0.7421,0.7421 -1.4843,0.7421 l -54.175,0 c -0.7421,0 -2.2264,-1.4842 -2.2264,-2.2263 l 0,-14.0998 -5.1949,0 z m 30.4271,-21.5208 48.238,0 -3.7106,-71.2413 -44.5274,1.4842 0,55.6573 0,0.7421 0,0.7421 z m 13.3582,484.589 c -0.7421,0 -2.2264,-0.7421 -2.2264,-2.2263 0,-0.7421 -2.9685,-11.8735 -1.4842,-22.2629 0,-0.7421 0,-0.7421 0,-0.7421 0,-5.1946 1.4842,-9.6472 3.7106,-12.6156 2.2264,-3.7105 5.937,-5.1947 9.6476,-5.9368 3.7106,-0.7421 7.4213,0.7421 10.3898,2.9684 10.3897,9.6473 10.3897,34.1365 10.3897,35.6207 0,0.742 -1.4842,2.2262 -2.2264,2.2262 l -27.4586,2.9684 z m 0.7421,-22.2629 c 0,5.9368 0.7422,12.6157 1.4843,17.0683 l 8.9055,-1.4842 c -0.7422,-3.7105 -2.2264,-9.6473 -3.7106,-11.1315 -2.2264,-2.9684 -4.4528,-3.7105 -6.6792,-4.4526 z m 0.7422,-5.1946 c 2.2263,0.7421 6.6791,2.2262 9.6476,5.9367 2.9685,3.7105 4.4527,11.1315 5.1948,14.842 l 8.9055,-0.7421 c -0.7421,-8.1631 -2.2263,-23.7471 -8.1633,-28.9418 -2.2264,-2.2263 -4.4528,-2.9684 -6.6792,-2.2263 -2.9684,0 -4.4527,1.4842 -5.9369,3.7105 -1.4843,1.4842 -2.2264,4.4526 -2.9685,7.421 z m 152.8776,-0.7421 c -1.4843,0 -2.9685,-0.7421 -2.9685,-2.2263 -0.7422,-8.1631 -5.1949,-64.5624 6.6791,-89.7937 l 0.7421,-0.7421 c 2.9685,-5.9368 6.6791,-9.6473 11.1319,-11.1314 3.7106,-0.7421 6.6791,0 9.6476,2.2262 8.9055,6.6789 9.6476,25.9734 9.6476,27.4576 0,1.4842 -0.7421,2.9684 -2.2264,2.9684 -1.4842,0 -2.9685,-0.7421 -2.9685,-2.2263 0,-5.1947 -1.4842,-19.2945 -7.4212,-23.7471 -1.4843,-1.4842 -3.7106,-2.2263 -5.1949,-1.4842 -2.9685,0.7421 -5.937,2.9684 -7.4212,6.6789 0.7421,1.4842 2.2263,3.7105 3.7106,6.6789 3.7106,8.163 2.9685,51.9467 2.9685,56.3993 0,1.4842 -1.4843,2.2263 -2.9685,2.9684 -1.4843,0 -2.2264,-1.4842 -2.2264,-2.9684 0,-19.2945 0,-48.9784 -2.2264,-54.9151 -0.7421,-0.7421 -1.4842,-2.2263 -2.2263,-2.9684 -7.4213,21.5208 -5.937,64.5624 -4.4528,83.8569 0,1.4842 -0.7421,2.9684 -2.2263,2.9684 z m -163.2674,-49.7205 c -0.7421,0 -1.4842,0 -1.4842,-0.7421 -0.7422,0 -1.4843,-0.7421 -1.4843,-1.4842 0,-1.4842 -0.7421,-17.8103 3.7106,-30.426 0,-0.742 0,-0.742 0,-0.742 2.9685,-8.1631 7.4213,-14.0999 15.5847,-14.842 4.4527,0 8.1633,1.4842 11.8739,4.4526 10.3898,9.6473 11.1319,34.8785 11.1319,36.3627 0,1.4842 -1.4842,2.2263 -2.2264,2.2263 z m 5.1949,-29.6839 c -2.2264,8.1631 -2.9685,17.8104 -2.9685,24.4892 l 14.1004,-2.2263 c 0,-2.9684 0,-11.1314 -3.7107,-17.0682 -2.9685,-2.9684 -5.937,-4.4526 -7.4212,-5.1947 z m 1.4842,-4.4525 c 2.9685,0.7421 6.6792,2.2262 9.6477,6.6788 4.4527,6.6789 5.1948,14.842 5.1948,19.2945 l 12.6161,-1.4842 c -0.7421,-6.6788 -2.2263,-23.747 -9.6476,-30.4259 -2.2264,-2.2263 -4.4527,-2.9684 -7.4212,-2.9684 -5.1949,0.7421 -8.1634,3.7105 -10.3898,8.9052 z m 66.7912,-8.1631 c -0.7421,0 -1.4842,0 -1.4842,-0.7421 -0.7422,0 -0.7422,-0.7421 -0.7422,-1.4842 l -0.7421,-14.0998 c 0,-0.7421 0,-1.4842 0.7421,-2.2263 0.7422,-0.7421 0.7422,-0.7421 1.4843,-0.7421 l 17.811,-0.7421 c 0.7421,0 2.2263,1.4842 2.2263,2.9684 l 0.7422,14.0998 c 0,0.7421 0,1.4842 -0.7422,1.4842 -0.7421,0.7421 -0.7421,0.7421 -1.4842,0.7421 z m 2.2264,-14.0998 0,8.9051 12.6161,0 -0.7421,-9.6472 z m 31.1692,11.8735 c -0.7421,0 -1.4842,0 -2.2264,-0.7421 0,0 -0.7421,-0.7421 -0.7421,-1.4842 l 0,-12.6156 c -0.7421,-1.4842 0.7421,-2.9684 2.2264,-2.9684 l 16.3267,-0.7421 c 0.7421,0 1.4843,0 2.2264,0.7421 0,0 0.7421,0.7421 0.7421,1.4842 l 0.7421,12.6156 c 0,1.4842 -1.4842,2.9684 -2.9685,2.9684 z m 1.4843,-12.6156 0.7421,7.4209 11.874,-0.7421 -0.7422,-7.4209 z m -172.915,-20.0366 c 0,0 -0.7421,0 -0.7421,-0.7421 l -23.0059,-7.421 c -0.7421,0 -0.7421,0 -0.7421,0 -0.7421,-0.7421 -0.7421,-0.7421 -0.7421,-1.4842 l -0.7421,0 c 0,-0.7421 0,-0.7421 0,-1.4842 l 1.4842,-21.5208 c 0,-0.7421 0,-1.4842 0.7421,-2.2263 0.7422,0 1.4843,0 2.2264,0 l 17.0689,3.7105 5.937,1.4842 c 0.7421,0 1.4842,1.4842 1.4842,2.2263 l -0.7421,24.4892 c 0,0.7421 0,1.4842 -0.7421,2.2263 -0.7422,0 -0.7422,0.7421 -1.4843,0.7421 z m -16.3267,-11.1315 3.7106,1.4842 10.3897,-6.6789 0,-0.7421 z m -3.7106,-8.163 -0.7422,4.4525 18.5531,-8.163 0.7422,-2.2263 -2.9685,-0.7421 z m 0,-10.3894 0,4.4526 5.9369,-2.9684 z m -322.8241,22.2629 c -0.7421,0 -1.4842,0 -1.4842,-0.7421 -1.4843,-0.7421 -1.4843,-2.9684 0,-3.7105 l 14.1003,-14.0998 c 0.7421,-0.7421 2.2264,-0.7421 3.7106,0 0.7422,1.4842 0.7422,2.9684 0,3.7105 l -14.8424,14.0998 c 0,0.7421 -0.7422,0.7421 -1.4843,0.7421 z m 575.8884,-2.9684 c -6.6791,0 -13.3582,-0.7421 -16.3267,-2.9684 -1.4843,-1.4842 -2.2264,-2.9684 -2.2264,-4.4526 0,-5.1946 7.4213,-11.1314 23.0059,-12.6156 12.6161,-1.4842 24.4901,3.7105 25.2322,8.9052 0,0.7421 0,2.2263 -0.7421,3.7104 -2.9685,3.7105 -12.6161,5.9368 -18.5531,6.6789 -2.9685,0.7421 -6.6792,0.7421 -10.3898,0.7421 z m 5.1949,-14.8419 c -14.1004,0.7421 -18.5531,5.1947 -18.5531,7.4209 0.7421,2.2263 13.3582,3.7105 23.0058,1.4842 10.3898,-1.4842 14.8425,-3.7104 15.5846,-4.4525 -0.7421,-1.4842 -8.9054,-5.9368 -20.0373,-4.4526 z m -301.3025,3.7105 -0.7421,0 -24.4901,-8.9052 c -1.4842,-0.7421 -2.2263,-1.4842 -2.2263,-2.9684 l 0,-8.163 c 0,-0.7421 0,-0.7421 0,-0.7421 l 0,-14.842 c 0,-0.7421 0.7421,-1.4842 1.4842,-2.2263 0.7421,0 1.4842,-0.7421 2.2264,0 l 13.3582,3.7105 0.7421,0 10.3898,2.9684 c 1.4842,0.7421 2.2263,1.4842 2.2263,2.9684 l 0,2.2263 0,9.6472 0,13.3578 c 0,1.4842 -0.7421,2.2263 -1.4842,2.2263 0,0.7421 -0.7421,0.7421 -1.4843,0.7421 z m -8.1633,-8.1631 5.937,2.2263 0,-5.9368 z m -8.1634,-2.9684 2.2264,0.7421 11.874,-7.421 0,-3.7104 z m -5.937,-2.2263 19.2953,-13.3577 -7.4213,-2.2263 -11.874,9.6473 z m 0,-18.5524 0,5.9368 5.937,-4.4526 z m -205.5684,30.426 c -0.7421,0 -0.7421,0 -0.7421,0 -0.7421,-0.7421 -1.4843,-1.4842 -1.4843,-2.2263 l -1.4842,-3.7105 0,-0.7421 -0.7421,-8.9052 c 0,-0.7421 0,-0.7421 0,-0.7421 l -1.4843,-9.6472 c 0,-0.7421 0.7421,-2.2263 1.4843,-2.2263 l 20.0373,-6.6789 2.9685,-0.7421 c 0.7421,-0.7421 1.4843,0 2.2264,0 0.7421,0.7421 0.7421,0.7421 1.4842,1.4842 l 0.7422,7.421 2.9685,18.5524 c 0.7421,1.4842 -0.7422,2.2263 -2.2264,2.9684 z m 2.9685,-5.9368 0,0.7421 2.9685,-0.7421 13.3582,-14.0998 0,-0.7421 z m 17.0689,-7.421 -5.1949,5.1947 5.937,-1.4842 z m -20.0374,-2.2263 2.2264,3.7105 15.5846,-14.8419 -0.7421,-2.9684 z m 58.6278,5.9368 c -0.7421,0 -0.7421,-0.7421 -0.7421,-0.7421 -0.7421,-0.7421 -0.7421,-1.4842 -0.7421,-1.4842 l -2.9685,-27.4575 c 0,-0.7421 0,-1.4842 0.7421,-2.2263 0.7421,0 0.7421,-0.7421 1.4842,-0.7421 l 25.2323,-2.2263 c 1.4842,0 2.9685,0.7421 2.9685,2.2263 l 0.7421,11.8735 1.4842,14.0998 c 0,1.4842 -0.7421,2.2263 -2.2263,2.2263 l -19.2953,2.9684 z m 2.9685,-8.163 0,2.2262 2.2264,0 16.3267,-15.584 0,-2.9684 z m 19.2952,-6.6789 -8.1633,7.4209 8.9055,-1.4841 z m -20.0373,-2.2263 0,2.9684 16.3267,-14.8419 -5.937,0 z m 94.9919,8.9052 -15.5846,-0.7421 -10.3898,-0.7421 c -1.4842,0 -2.2263,-0.7421 -2.2263,-2.2263 l 0,-2.2263 0,-10.3894 0,-11.8735 c 0,-0.7421 0,-1.4842 0.7421,-1.4842 0.7421,-0.7421 0.7421,-0.7421 1.4842,-0.7421 l 25.9744,0.7421 c 1.4842,0.7421 2.2264,1.4842 2.2264,2.9684 l 0,24.4892 c 0,0.7421 0,1.4842 -0.7422,1.4842 0,0.7421 -0.7421,0.7421 -1.4842,0.7421 z m -21.5216,-5.9368 5.1949,0 13.3582,-10.3894 0,-3.7105 z m -1.4843,-8.9052 0,3.7105 17.0689,-13.3577 -3.7106,0 z m 381.4519,-5.1947 c -2.9685,0 -6.6791,-0.742 -11.874,-2.2262 -5.1949,-1.4842 -8.9055,-5.1947 -11.874,-8.1631 -3.7106,-4.4526 -7.4212,-8.1631 -14.8425,-8.1631 -5.9369,0 -8.1633,2.9684 -11.1318,5.9368 -2.2264,2.9684 -4.4528,5.9368 -9.6476,8.1631 -15.5846,6.6788 -31.1693,-16.3262 -31.9114,-17.0683 -0.7421,-1.4841 -0.7421,-2.9683 0.7421,-3.7104 0.7422,-0.7421 2.2264,-0.7421 2.9685,0.7421 0.7422,0 14.8425,20.0366 25.9744,14.8419 3.7106,-1.4842 5.937,-3.7105 8.1634,-5.9368 2.9685,-3.7105 6.6791,-8.163 14.8424,-8.163 9.6477,0 14.1004,5.1946 18.5532,9.6472 2.9684,2.9684 5.1948,5.9368 9.6476,7.421 9.6476,2.2263 14.1003,0.7421 14.1003,0.7421 1.4843,-0.7421 2.9685,0 2.9685,1.4842 0.7421,1.4842 0,2.9684 -0.7421,2.9684 -0.7421,0.7421 -2.2264,1.4841 -5.937,1.4841 z m 61.5963,-5.1946 c -1.4842,0 -2.2264,-0.7421 -2.9685,-1.4842 -1.4842,-3.7105 -6.6791,-11.8736 -11.874,-12.6157 -2.9685,-0.7421 -6.6791,0.7421 -9.6476,1.4842 -4.4527,1.4842 -8.9055,3.7105 -14.1003,2.9684 -6.6792,-1.4842 -9.6477,-5.1947 -12.6162,-8.9051 -1.4842,-2.2263 -2.9685,-4.4526 -5.1948,-5.9368 -5.1949,-3.7105 -13.3583,-1.4842 -13.3583,-1.4842 -1.4842,0 -2.9685,-0.7421 -2.9685,-2.2263 -0.7421,-1.4842 0.7422,-2.9684 1.4843,-2.9684 0.7421,0 10.3897,-2.9684 17.811,2.9684 2.9685,1.4842 5.1948,4.4526 6.6791,6.6789 2.2264,2.9684 4.4527,5.9367 8.9055,6.6788 3.7106,0.7421 7.4212,-0.7421 11.1318,-2.2262 3.7107,-1.4842 8.1634,-2.9684 12.6162,-2.2263 8.9054,1.4842 15.5846,14.0998 16.3267,15.584 0,0.7421 0,2.9684 -1.4843,2.9684 0,0.7421 -0.7421,0.7421 -0.7421,0.7421 z m -264.9383,-123.9301 c -1.4843,0 -2.9685,-1.4842 -2.9685,-2.9684 l -3.7107,-112.0566 -2.2263,-46.7521 -141.7458,38.589 0,15.5841 c 0,1.4842 -0.7421,2.9683 -2.2263,2.9683 -1.4843,0 -2.2264,-1.4841 -2.2264,-2.9683 l -0.7421,-15.5841 -134.3245,-39.3311 1.4842,61.594 c 0.7422,1.4842 -0.7421,2.9684 -2.2263,2.9684 -1.4843,0 -2.2264,-1.4842 -2.2264,-2.2263 l -2.2264,-66.0466 0,-0.7421 0,-0.7421 c 0,0 0.7421,-0.742 1.4843,-0.742 l 26.7164,-13.3578 0,-15.584 0,-0.7421 c 0.7422,-0.7421 0.7422,-0.7421 1.4843,-1.4842 l 31.1692,-18.5524 0,-11.1315 0,-0.7421 c 0,-0.7421 0.7421,-1.4842 0.7421,-1.4842 l 26.7165,-15.584 0,-23.7471 c 0,-0.7421 0,-1.4842 0.7421,-2.2263 l 28.2007,-26.7154 c 0.7422,0 0.7422,-0.7421 1.4843,-0.7421 l 61.5963,-8.9052 c 0.7421,0 1.4843,0 2.2264,0.7421 l 25.2322,28.9418 c 0.7421,0.7421 0.7421,1.4842 0.7421,2.2263 l 0,34.8785 23.0059,9.6473 c 0.7421,0.7421 0.7421,0.7421 1.4842,1.4841 l 0,0.7421 0.7422,17.0683 20.7794,9.6472 c 0.7422,0.7421 1.4843,0.7421 1.4843,1.4842 0,0.7421 0,0.7421 0,1.4842 l 0,15.584 34.1377,18.5524 c 0.7421,0 1.4842,0.7421 1.4842,1.4842 l 0,0.7421 0.7422,49.7205 5.1948,112.0566 c 0,1.4842 -0.7421,2.9684 -2.2263,2.9684 z m -285.7179,-166.9718 132.0981,39.3312 140.2615,-37.847 -25.9743,-14.0998 0,5.9368 c 0,1.4842 -0.7421,2.2263 -1.4843,2.2263 l -104.6395,34.1364 c -0.7421,0 -0.7421,0 -1.4842,0 l -117.9978,-34.8785 c -1.4842,0 -2.2264,-0.7421 -2.2264,-2.2263 l 0,-1.4842 z m 140.2615,5.1947 1.4843,18.5524 99.4446,-31.9101 0,-8.9052 0,-14.0998 z m -116.5135,-14.8419 112.8029,33.3943 -0.7421,-18.5524 -112.0608,-31.9101 0,13.3577 z m 3.7106,-21.5208 110.5765,31.9101 99.4447,-35.6206 -13.3582,-5.9368 0,5.1947 c 0,1.4842 -0.7422,2.2263 -1.4843,2.2263 l -82.3758,27.4576 c -0.7421,0 -0.7421,0 -1.4842,0 l -86.0864,-27.4576 c -0.7422,-0.7421 -1.4843,-1.4842 -1.4843,-2.9684 l 0,-8.9051 z m 28.2007,-6.6789 81.6337,25.9734 0,-17.0682 -81.6337,-29.6839 0,8.9052 z m 86.0865,8.9052 0,17.0682 77.1809,-25.2313 -0.7421,-23.005 z m -82.3758,-34.1365 80.1494,29.6839 74.9545,-30.426 -15.5846,-6.6788 0,3.7105 c 0,0.7421 -0.7421,1.4842 -1.4842,2.2262 l -56.4015,23.005 c -0.7421,0 -1.4842,0 -1.4842,0 l -59.37,-27.4575 c -0.7421,-0.7421 -1.4842,-1.4842 -1.4842,-2.2263 l 0,-2.9684 z m 80.8915,-25.2312 2.2264,40.8153 50.4644,-21.5208 0,-37.847 z m -56.4014,15.584 53.4329,24.4892 -1.4842,-39.3311 -51.9487,-13.3578 0,22.2629 0,0.7421 z m 30.4271,-56.3993 24.4901,36.3627 53.4329,-19.2945 -22.2637,-25.2313 z m -28.2008,23.747 46.0117,11.1315 -23.0058,-32.6523 z m 283.4915,233.7604 -12.6161,0 c -1.4843,0 -2.2264,-0.7421 -2.2264,-2.2263 l -1.4842,-34.1364 c 0,-0.7421 0,-7.421 2.9685,-11.1314 1.4842,-1.4842 3.7106,-2.2263 5.937,-2.2263 6.6791,0 8.9055,8.9051 8.9055,14.0998 l 0.7421,33.3943 c 0,0.7421 0,1.4842 -0.7421,1.4842 0,0.7421 -0.7422,0.7421 -1.4843,0.7421 z m -9.6476,-4.4525 6.6791,0 -0.7421,-31.1681 c 0,0 0,-8.9052 -3.7106,-8.9052 -0.7422,0 -1.4843,0 -2.2264,0.7421 -1.4843,1.4842 -1.4843,5.9368 -1.4843,6.6789 z m -13.3582,4.4525 -11.874,0 c -1.4843,0 -2.2264,-0.7421 -2.2264,-2.2263 l -1.4843,-34.1364 c 0,-0.7421 0,-7.421 3.7107,-11.1314 0.7421,-1.4842 2.9685,-2.2263 4.4527,-2.2263 6.6791,0 8.9055,8.163 8.9055,12.6156 l 0.7421,34.8785 c 0,0.7421 0,1.4842 -0.7421,1.4842 0,0.7421 -0.7421,0.7421 -1.4842,0.7421 z m -9.6477,-4.4525 6.6792,0 -0.7422,-32.6523 c 0,-1.4842 -0.7421,-7.421 -3.7106,-7.421 0,0 -0.7421,0 -1.4842,0.7421 -1.4843,1.4842 -1.4843,5.1947 -1.4843,7.421 z m 3.7107,-100.1831 c -0.7422,0 -0.7422,-0.7421 -1.4843,-0.7421 -0.7421,-0.7421 -0.7421,-1.4842 -0.7421,-2.2263 l -0.7421,-39.3311 c 0,-0.7421 0,-8.9051 3.7106,-13.3577 2.2264,-1.4842 4.4527,-2.9684 7.4212,-2.9684 6.6791,0 8.9055,6.6789 10.3898,8.9052 0.7421,2.9684 2.2263,26.7154 3.7106,46.0099 0,0.7421 0,1.4842 -0.7421,2.2263 -0.7422,0.7421 -1.4843,0.7421 -2.2264,0.7421 z m 8.1633,-53.4309 c -1.4842,0 -2.9685,0.7421 -3.7106,1.4842 -2.2264,2.2263 -2.2264,7.4209 -2.2264,9.6472 l 0.7422,37.1049 14.1003,-0.7421 c -1.4842,-15.5841 -2.9685,-39.3312 -3.7106,-41.5574 -0.7421,-2.9684 -2.2264,-5.9368 -5.1949,-5.9368 z" /><text
         xml:space="preserve"
         style="font-size:50.26560593px;font-style:normal;font-variant:normal;font-weight:normal;font-stretch:normal;text-align:center;line-height:125%;letter-spacing:0px;word-spacing:0px;writing-mode:lr-tb;text-anchor:middle;fill:#000000;fill-opacity:1;stroke:none;font-family:Sathu;-inkscape-font-specification:Sathu"
         x="2105.0876"
         y="2062.5891"
         id="text5046"
         sodipodi:linespacing="125%"
         transform="scale(1.0000187,0.99998131)"><tspan
           sodipodi:role="line"
           id="tspan5048"
           x="2105.0876"
           y="2062.5891"
           style="font-size:75.39841461px">Dipartimento</tspan><tspan
           sodipodi:role="line"
           x="2105.0876"
           y="2156.8372"
           id="tspan5050"
           style="font-size:75.39841461px">di Culture e Civiltà</tspan></text>
<text
         xml:space="preserve"
         style="font-size:50.26560593px;font-style:normal;font-variant:normal;font-weight:normal;font-stretch:normal;text-align:center;line-height:125%;letter-spacing:0px;word-spacing:0px;writing-mode:lr-tb;text-anchor:middle;fill:#000000;fill-opacity:1;stroke:none;font-family:Sathu;-inkscape-font-specification:Sathu"
         x="2909.6765"
         y="2107.9958"
         id="text5052"
         sodipodi:linespacing="125%"
         transform="scale(1.0000187,0.99998131)"><tspan
           sodipodi:role="line"
           x="2916.8923"
           y="2107.9958"
           id="tspan5058"
           style="font-size:75.39841461px">Dipartimento </tspan><tspan
           sodipodi:role="line"
           x="2909.6765"
           y="2202.2439"
           id="tspan5056"
           style="font-size:75.39841461px">di informatica</tspan></text>
<text
         xml:space="preserve"
         style="font-size:50.26560593px;font-style:normal;font-variant:normal;font-weight:normal;font-stretch:normal;text-align:center;line-height:125%;letter-spacing:0px;word-spacing:0px;writing-mode:lr-tb;text-anchor:middle;fill:#000000;fill-opacity:1;stroke:none;font-family:Sathu;-inkscape-font-specification:Sathu"
         x="2350.1707"
         y="3284.2344"
         id="text5066"
         sodipodi:linespacing="125%"
         transform="scale(1.0000187,0.99998131)"><tspan
           sodipodi:role="line"
           id="tspan5068"
           x="2350.1707"
           y="3284.2344"
           style="font-size:75.39841461px">Fondazione Biblioteca</tspan><tspan
           sodipodi:role="line"
           x="2350.1707"
           y="3378.4824"
           id="tspan5070"
           style="font-size:75.39841461px">Capitolare</tspan></text>
</g></g></svg>