<?xml version="1.0" encoding="UTF-8" standalone="no"?>
<svg
   xmlns:ooo="http://xml.openoffice.org/svg/export"
   xmlns:dc="http://purl.org/dc/elements/1.1/"
   xmlns:cc="http://creativecommons.org/ns#"
   xmlns:rdf="http://www.w3.org/1999/02/22-rdf-syntax-ns#"
   xmlns:svg="http://www.w3.org/2000/svg"
   xmlns="http://www.w3.org/2000/svg"
   xmlns:sodipodi="http://sodipodi.sourceforge.net/DTD/sodipodi-0.dtd"
   xmlns:inkscape="http://www.inkscape.org/namespaces/inkscape"
   version="1.2"
   width="800"
   height="800"
   viewBox="1500 2028 22577.771 22577.777"
   preserveAspectRatio="xMidYMid"
   xml:space="preserve"
   id="svg3587"
   inkscape:version="0.48.5 r10040"
   sodipodi:docname="UniversitàVerona_scalato.svg"
   style="fill-rule:evenodd;stroke-width:28.22200012;stroke-linejoin:round"><metadata
     id="metadata4149"><rdf:RDF><cc:Work
         rdf:about=""><dc:format>image/svg+xml</dc:format><dc:type
           rdf:resource="http://purl.org/dc/dcmitype/StillImage" /><dc:title></dc:title></cc:Work></rdf:RDF></metadata><sodipodi:namedview
     pagecolor="#ffffff"
     bordercolor="#666666"
     borderopacity="1"
     objecttolerance="10"
     gridtolerance="10"
     guidetolerance="10"
     inkscape:pageopacity="0"
     inkscape:pageshadow="2"
     inkscape:window-width="1394"
     inkscape:window-height="872"
     id="namedview4147"
     showgrid="false"
     fit-margin-top="0"
     fit-margin-left="0"
     fit-margin-right="0"
     fit-margin-bottom="0"
     inkscape:zoom="0.55546875"
     inkscape:cx="425.49908"
     inkscape:cy="302.13814"
     inkscape:window-x="112"
     inkscape:window-y="58"
     inkscape:window-maximized="0"
     inkscape:current-layer="g3641" /><defs
     class="ClipPathGroup"
     id="defs3589"><clipPath
       id="presentation_clip_path"
       clipPathUnits="userSpaceOnUse"><rect
         x="1500"
         y="2028"
         width="1629"
         height="1651"
         id="rect3592" /></clipPath><clipPath
       id="presentation_clip_path_shrink"
       clipPathUnits="userSpaceOnUse"><rect
         x="1501"
         y="2029"
         width="1626"
         height="1648"
         id="rect3595" /></clipPath></defs><defs
     class="TextShapeIndex"
     id="defs3597"><g
       ooo:slide="id1"
       ooo:id-list="id3 id4 id5 id6 id7 id8 id9 id10 id11 id12 id13 id14 id15 id16 id17 id18 id19 id20 id21 id22 id23 id24 id25 id26 id27 id28 id29 id30 id31 id32 id33 id34 id35 id36 id37 id38 id39 id40 id41 id42 id43 id44 id45 id46 id47 id48 id49 id50 id51 id52 id53 id54 id55 id56 id57 id58 id59 id60 id61 id62 id63 id64 id65 id66 id67 id68 id69 id70 id71 id72 id73 id74"
       id="g3599" /></defs><defs
     class="EmbeddedBulletChars"
     id="defs3601"><g
       id="bullet-char-template(57356)"
       transform="scale(4.8828125e-4,-4.8828125e-4)"><path
         d="M 580,1141 1163,571 580,0 -4,571 580,1141 z"
         id="path3604"
         inkscape:connector-curvature="0" /></g><g
       id="bullet-char-template(57354)"
       transform="scale(4.8828125e-4,-4.8828125e-4)"><path
         d="m 8,1128 1129,0 L 1137,0 8,0 8,1128 z"
         id="path3607"
         inkscape:connector-curvature="0" /></g><g
       id="bullet-char-template(10146)"
       transform="scale(4.8828125e-4,-4.8828125e-4)"><path
         d="M 174,0 602,739 174,1481 1456,739 174,0 z m 1184,739 -1049,607 350,-607 699,0 z"
         id="path3610"
         inkscape:connector-curvature="0" /></g><g
       id="bullet-char-template(10132)"
       transform="scale(4.8828125e-4,-4.8828125e-4)"><path
         d="M 2015,739 1276,0 717,0 l 543,543 -1086,0 0,393 1086,0 -543,545 557,0 741,-742 z"
         id="path3613"
         inkscape:connector-curvature="0" /></g><g
       id="bullet-char-template(10007)"
       transform="scale(4.8828125e-4,-4.8828125e-4)"><path
         d="m 0,-2 c -7,16 -16,29 -25,39 l 381,530 c -94,256 -141,385 -141,387 0,25 13,38 40,38 9,0 21,-2 34,-5 21,4 42,12 65,25 l 27,-13 111,-251 280,301 64,-25 24,25 c 21,-10 41,-24 62,-43 C 886,937 835,863 770,784 769,783 710,716 594,584 L 774,223 c 0,-27 -21,-55 -63,-84 l 16,-20 C 717,90 699,76 672,76 641,76 570,178 457,381 L 164,-76 c -22,-34 -53,-51 -92,-51 -42,0 -63,17 -64,51 -7,9 -10,24 -10,44 0,9 1,19 2,30 z"
         id="path3616"
         inkscape:connector-curvature="0" /></g><g
       id="bullet-char-template(10004)"
       transform="scale(4.8828125e-4,-4.8828125e-4)"><path
         d="M 285,-33 C 182,-33 111,30 74,156 52,228 41,333 41,471 c 0,78 14,145 41,201 34,71 87,106 158,106 53,0 88,-31 106,-94 l 23,-176 c 8,-64 28,-97 59,-98 l 735,706 c 11,11 33,17 66,17 42,0 63,-15 63,-46 l 0,-122 c 0,-36 -10,-64 -30,-84 L 442,47 C 390,-6 338,-33 285,-33 z"
         id="path3619"
         inkscape:connector-curvature="0" /></g><g
       id="bullet-char-template(9679)"
       transform="scale(4.8828125e-4,-4.8828125e-4)"><path
         d="M 813,0 C 632,0 489,54 383,161 276,268 223,411 223,592 c 0,181 53,324 160,431 106,107 249,161 430,161 179,0 323,-54 432,-161 108,-107 162,-251 162,-431 0,-180 -54,-324 -162,-431 C 1136,54 992,0 813,0 z"
         id="path3622"
         inkscape:connector-curvature="0" /></g><g
       id="bullet-char-template(8226)"
       transform="scale(4.8828125e-4,-4.8828125e-4)"><path
         d="m 346,457 c -73,0 -137,26 -191,78 -54,51 -81,114 -81,188 0,73 27,136 81,188 54,52 118,78 191,78 73,0 134,-26 185,-79 51,-51 77,-114 77,-187 0,-75 -25,-137 -76,-188 -50,-52 -112,-78 -186,-78 z"
         id="path3625"
         inkscape:connector-curvature="0" /></g><g
       id="bullet-char-template(8211)"
       transform="scale(4.8828125e-4,-4.8828125e-4)"><path
         d="m -4,459 1139,0 0,147 -1139,0 0,-147 z"
         id="path3628"
         inkscape:connector-curvature="0" /></g><g
       id="bullet-char-template(61548)"
       transform="scale(4.8828125e-4,-4.8828125e-4)"><path
         d="m 173,740 c 0,163 58,303 173,419 116,115 255,173 419,173 163,0 302,-58 418,-173 116,-116 174,-256 174,-419 0,-163 -58,-303 -174,-418 C 1067,206 928,148 765,148 601,148 462,206 346,322 231,437 173,577 173,740 z"
         id="path3631"
         inkscape:connector-curvature="0" /></g></defs><defs
     class="TextEmbeddedBitmaps"
     id="defs3633" /><g
     id="g3637"
     transform="matrix(10,0,0,10,-13500,-12184.223)"><g
       id="g3641"
       class="Page"><path
         sodipodi:type="spiral"
         style="fill:#000000;fill-opacity:0.39075635;stroke:#000000;stroke-width:1;stroke-linecap:butt;stroke-linejoin:miter;stroke-miterlimit:4;stroke-opacity:1;stroke-dasharray:none"
         id="path5082"
         sodipodi:cx="133.22081"
         sodipodi:cy="322.92545"
         sodipodi:expansion="1"
         sodipodi:revolution="3.0282965"
         sodipodi:radius="520.53735"
         sodipodi:argument="-18.222813"
         sodipodi:t0="0.33123112"
         d="M 270.89561,426.72176 C 219.95348,522.53949 94.447665,546.91595 3.5547318,494.91374 -110.76047,429.51104 -138.94485,277.13925 -73.080974,167.38961 6.65787,34.519963 186.06678,2.518898 314.62641,82.310168 466.08602,176.31444 501.90951,382.86032 408.14958,530.20081 299.92382,700.27385 66.177575,739.92384 -99.924315,632.16771 -288.62705,509.74961 -332.10658,248.76017 -210.33495,63.910558 -73.74481,-143.43358 214.51813,-190.74495 418.10546,-54.943805 644.09969,95.80366 695.24471,411.36233 545.40355,633.67986 530.0725,656.42635 512.92373,677.94443 494.18545,697.977"
         transform="matrix(2.8222221,0,0,2.8222221,2302.7651,1700.6659)" /><g
         id="g3643"
         class="com.sun.star.drawing.ClosedBezierShape"
         transform="translate(279.44365,-289.60524)"><g
           id="id3"><rect
             style="fill:none;stroke:none"
             id="rect3646"
             height="1205"
             width="1190"
             y="2250"
             x="1720"
             class="BoundingBox" /></g></g><g
         id="g3650"
         class="com.sun.star.drawing.ClosedBezierShape"
         transform="translate(279.44365,-289.60524)"><g
           id="id4"><rect
             style="fill:none;stroke:none"
             id="rect3653"
             height="193"
             width="191"
             y="2568"
             x="1729"
             class="BoundingBox" /><path
             style="fill:#231f20;stroke:none"
             inkscape:connector-curvature="0"
             id="path3655"
             d="m 1792,2760 c -1,0 -1,0 -2,-1 0,0 -13,-10 -22,-12 -6,-1 -12,2 -17,5 -2,1 -4,2 -6,3 -6,1 -13,-3 -14,-3 -2,-1 -2,-3 -2,-5 1,-2 3,-2 5,-1 2,1 7,2 10,2 1,0 2,-1 4,-2 6,-3 13,-7 21,-6 11,2 25,14 26,14 1,2 1,4 0,5 -1,1 -2,1 -3,1 z m 51,-43 c -1,0 -3,-1 -3,-3 0,0 -4,-13 -13,-17 -3,-1 -8,2 -14,5 -6,4 -12,8 -18,6 -5,-2 -7,-8 -10,-14 -1,-5 -3,-11 -5,-12 -5,-2 -15,1 -21,3 -2,1 -4,0 -4,-2 -1,-2 0,-4 1,-4 2,-1 18,-8 27,-3 6,3 8,9 10,16 1,3 2,9 4,9 3,2 8,-1 13,-4 6,-4 13,-9 20,-6 12,5 16,21 16,21 1,2 0,4 -2,5 l -1,0 z m 29,-40 c -2,0 -3,-1 -4,-2 -2,-7 -9,-25 -18,-27 -5,-2 -12,1 -18,4 -7,3 -13,6 -19,3 -5,-2 -8,-9 -10,-15 -2,-6 -5,-12 -8,-14 -10,-3 -17,1 -17,1 -1,1 -4,0 -5,-1 0,-2 0,-4 2,-5 0,0 9,-5 22,-1 7,2 10,10 12,17 2,6 4,11 7,12 3,1 8,-1 13,-3 7,-4 15,-7 23,-5 13,4 22,29 23,32 1,1 0,3 -2,4 -1,0 -1,0 -1,0 z m 43,-35 c -1,0 -2,-1 -3,-2 -4,-7 -17,-26 -29,-27 -5,-1 -8,0 -12,1 -4,2 -9,3 -16,3 -10,-1 -15,-6 -25,-19 l -1,-1 c -10,-13 -13,-17 -21,-20 -7,-3 -15,-2 -15,-2 -1,1 -3,0 -4,-2 0,-2 1,-4 3,-4 0,0 9,-2 18,1 10,3 14,8 24,22 l 1,2 c 11,13 13,15 21,16 5,0 9,-1 13,-2 4,-2 9,-3 15,-2 18,2 33,29 34,30 1,2 0,4 -1,5 -1,1 -1,1 -2,1 z" /></g></g><g
         id="g3657"
         class="com.sun.star.drawing.ClosedBezierShape"
         transform="translate(279.44365,-289.60524)"><g
           id="id5"><rect
             style="fill:none;stroke:none"
             id="rect3660"
             height="1026"
             width="963"
             y="2430"
             x="1732"
             class="BoundingBox" /><path
             style="fill:#231f20;stroke:none"
             inkscape:connector-curvature="0"
             id="path3662"
             d="m 2314,3454 c -2,0 -4,-2 -4,-4 l 0,-20 c 0,-5 -2,-28 -3,-36 0,-1 0,-3 0,-5 l -27,9 c 4,25 5,50 5,51 0,2 -1,4 -3,4 -2,0 -4,-1 -4,-3 0,-1 -1,-28 -6,-53 l 0,-1 c -2,-11 -5,-22 -10,-30 l 0,-1 c -2,-2 -3,-4 -5,-6 -2,-2 -5,-3 -8,-3 -3,0 -6,2 -8,5 3,2 8,6 13,14 6,12 6,67 6,73 0,2 -2,3 -4,3 -2,0 -3,-1 -3,-3 0,-24 -2,-62 -6,-69 -3,-7 -7,-11 -10,-13 -10,19 -13,60 -13,77 0,2 -1,4 -3,3 -2,0 -3,-1 -3,-3 0,-3 0,-17 1,-32 l -19,-14 c -1,5 -1,11 -1,17 0,13 -1,23 -1,24 l 0,1 c 0,1 -2,3 -4,3 -1,0 -1,-1 -2,-1 l 0,-1 c 0,0 -1,0 0,0 l -1,0 c 0,-1 0,-2 0,-2 0,0 0,-3 1,-8 0,-8 0,-21 -1,-35 l -22,9 c 1,13 0,24 0,28 0,2 -2,3 -4,3 -1,0 -3,-2 -3,-4 1,-7 1,-17 0,-29 l 0,-1 c 0,-10 -1,-19 -3,-28 0,-1 0,-1 0,-2 -2,-9 -5,-17 -9,-22 l 0,-1 c -1,0 -1,0 -1,-1 -2,-2 -5,-4 -8,-4 -4,0 -7,0 -10,2 3,1 6,4 8,8 4,7 7,69 3,73 l -3,-2 -3,0 c 0,-12 1,-59 -3,-68 -2,-5 -6,-6 -7,-6 -6,6 -9,17 -11,28 l 0,1 c -3,17 -2,34 -2,34 0,2 -2,4 -4,4 -1,0 -3,-1 -3,-3 0,-2 -1,-17 2,-35 l -15,-9 c 0,6 -1,10 -1,11 -1,11 -2,24 -2,24 l -6,-1 c 0,0 0,-12 1,-23 0,-1 0,-1 0,-1 0,-5 1,-11 1,-13 0,-1 0,-1 0,-1 l -15,-1 c 1,16 0,30 0,31 0,2 -2,3 -4,3 -2,0 -3,-1 -3,-3 0,-1 3,-37 -6,-62 l -1,0 c 0,-1 0,-1 0,-1 -2,-6 -5,-11 -8,-14 l 0,-1 c -1,0 -1,0 -1,0 -3,-3 -6,-5 -10,-6 4,6 8,15 11,31 2,17 0,41 0,42 -1,2 -2,4 -4,3 -2,0 -3,-2 -3,-4 0,0 2,-23 0,-40 -3,-19 -9,-28 -12,-31 -1,1 -2,1 -2,2 -11,9 -10,42 -9,53 0,2 -1,4 -3,4 -2,0 -3,-1 -4,-3 0,-1 -2,-23 2,-41 l -13,-13 c -4,20 -3,40 -3,41 0,1 -1,3 -3,3 -1,0 -2,0 -3,-1 -1,-1 -3,-2 -3,-4 0,0 1,-24 -3,-50 l -14,3 c 1,15 1,28 1,31 0,2 -2,4 -4,4 -2,0 -3,-2 -3,-4 1,-17 -1,-64 -19,-70 -2,-1 -5,-1 -7,-1 l -1,0 -1,1 c 5,3 11,9 12,21 1,7 0,31 0,32 0,2 -2,3 -4,3 -2,0 -3,-2 -3,-4 0,-7 1,-25 1,-31 -2,-11 -9,-15 -12,-16 0,1 0,1 -1,1 -5,8 -7,20 -7,24 -1,2 -2,4 -4,3 -2,0 -3,-1 -3,-3 0,-1 1,-15 7,-25 l -13,-14 c -4,12 -3,24 -3,24 0,2 -1,3 -3,4 -2,-1 -4,-2 -4,-4 0,0 0,-2 0,-4 -1,1 -2,1 -3,1 -2,0 -4,-1 -3,-3 l 2,-64 c -3,-3 -9,-12 -6,-24 1,-7 3,-12 6,-14 l 0,-45 c -5,-3 -13,-9 -14,-28 -1,-14 6,-22 9,-24 l -9,-101 0,-1 c 0,-1 0,-2 1,-2 3,-5 12,-13 27,-23 l 0,-135 -49,30 0,387 c 0,2 -1,4 -3,4 -2,0 -4,-2 -4,-4 l 0,-132 -13,4 c -1,1 -2,0 -3,0 -1,-1 -2,-2 -2,-3 l 0,-140 c 0,-1 2,-3 4,-3 l 14,0 0,-17 -25,0 -2,244 c -1,2 -2,4 -4,4 -2,0 -3,-2 -3,-4 l 2,-248 c 0,-2 2,-3 3,-3 l 29,0 0,-29 -53,0 -10,219 c 0,2 -1,4 -3,4 -2,0 -4,-2 -4,-4 l 11,-223 c 0,-1 1,-3 3,-3 l 56,0 0,-17 -88,0 -1,186 c 0,2 -1,3 -3,3 -2,0 -3,-1 -3,-3 l 0,-188 -28,-41 c 0,-1 -1,-2 0,-3 l 0,-1 58,-79 c 0,-1 1,-2 2,-2 l 1,0 118,-61 0,-141 -16,0 c -1,0 -2,-1 -3,-2 0,-2 0,-3 1,-4 l 64,-72 c 0,0 1,0 1,-1 l 85,-42 c 1,-1 3,0 4,1 l 54,51 c 1,1 1,2 1,3 l 0,61 0,23 0,22 439,-23 c 1,0 2,1 3,2 1,1 0,3 0,4 l -63,74 c 0,0 -1,1 -2,1 l -490,31 1,41 c 9,-10 22,-18 43,-18 18,0 31,6 41,16 5,6 8,13 10,19 5,-20 15,-46 39,-57 8,-4 16,-6 26,-6 39,0 56,35 63,66 1,-5 3,-11 4,-17 0,-1 1,-1 1,-2 4,-11 9,-22 17,-32 0,0 0,-1 1,-1 11,-13 26,-21 47,-22 19,0 34,6 45,18 7,8 12,17 15,27 2,-6 5,-13 9,-21 0,0 0,-1 1,-1 4,-9 11,-17 20,-23 l 0,-1 1,0 c 7,-4 15,-7 25,-7 18,0 33,6 43,18 6,6 10,14 13,21 4,-18 15,-48 43,-49 12,0 22,4 30,12 23,24 25,75 25,88 6,0 10,0 19,3 4,2 7,5 9,7 2,2 3,3 4,4 4,2 8,2 9,2 2,0 3,2 3,4 0,1 -1,3 -3,3 -1,0 -8,0 -13,-3 -1,-2 -3,-3 -4,-5 -3,-2 -5,-4 -8,-5 -10,-4 -11,-3 -21,-3 -12,-1 -18,-2 -29,-13 l -3,-4 c -6,-6 -14,-15 -21,-15 -11,0 -16,8 -18,10 0,5 0,10 0,15 -1,11 -1,19 0,22 10,1 16,8 23,17 l 1,1 c 7,9 11,9 15,8 2,0 9,-5 13,-9 2,-1 4,-1 5,1 1,1 1,3 0,4 -2,2 -12,10 -17,11 -8,1 -14,-2 -21,-11 l -1,0 c -7,-9 -12,-15 -20,-15 -12,1 -15,3 -19,7 -2,2 -6,4 -11,5 -9,2 -17,-5 -24,-12 -2,-2 -4,-5 -7,-6 -6,-5 -16,3 -16,3 -2,2 -4,2 -5,0 -1,-1 -1,-3 0,-5 0,0 10,-8 18,-7 1,-6 1,-22 -2,-39 -2,-1 -3,-2 -4,-2 0,0 -1,1 -2,2 -3,1 -6,3 -10,3 -6,-1 -8,-3 -10,-5 -1,-1 -2,-2 -4,-3 -3,-2 -5,-2 -7,-2 -1,4 -1,6 -1,7 l 0,3 0,24 0,1 -1,0 0,34 c 2,3 5,7 7,10 4,7 8,14 15,16 13,5 19,-5 19,-6 1,-2 3,-2 5,-1 2,1 2,3 1,4 -3,6 -12,15 -27,10 -9,-4 -15,-12 -19,-19 -2,-4 -4,-7 -7,-10 l -1,0 c -2,-3 -5,-4 -8,-5 -10,-2 -16,1 -23,5 -4,2 -9,5 -16,5 -10,1 -18,-7 -24,-13 -1,-2 -3,-3 -4,-4 -2,-1 -4,0 -4,0 -2,0 -4,-1 -4,-3 -1,-2 0,-4 2,-4 1,0 4,-1 9,1 2,1 4,2 6,5 1,1 2,2 3,3 0,-15 -2,-58 -18,-74 -4,-4 -8,-5 -13,-5 -4,0 -7,1 -9,2 -1,0 -1,0 -1,0 -2,2 -4,3 -5,5 -1,1 -2,2 -3,3 -3,6 -6,13 -8,21 l 0,1 c -4,24 -2,53 -1,59 2,2 3,5 5,7 4,6 6,9 10,9 11,0 13,-15 13,-15 0,-2 2,-3 4,-3 1,1 3,2 2,4 -1,7 -6,21 -19,21 -8,0 -12,-6 -16,-12 -1,-2 -3,-5 -5,-7 -3,-3 -6,-5 -11,-5 -13,0 -16,6 -20,13 -3,6 -8,13 -19,13 -5,0 -8,-2 -10,-4 -1,-2 -2,-3 -5,-5 -6,-2 -12,1 -12,2 -2,1 -4,0 -5,-2 -1,-1 -1,-3 1,-4 0,0 7,-5 15,-3 0,-11 -2,-47 -6,-59 -6,-14 -11,-21 -20,-24 -4,-2 -8,-1 -10,-1 -2,1 -3,2 -5,4 -2,2 -4,5 -5,8 l -1,1 c -3,7 -5,16 -7,25 l 0,1 c -4,27 -1,57 -1,57 0,1 0,1 0,1 6,3 10,7 13,11 3,3 5,5 7,6 9,1 12,0 14,-1 1,-1 1,-2 1,-2 0,-2 2,-3 4,-3 1,0 3,1 3,3 0,0 0,4 -4,7 -4,3 -10,4 -19,2 -5,-1 -8,-4 -11,-8 -4,-5 -9,-10 -19,-10 l -1,0 c -6,0 -11,4 -17,9 -5,5 -12,10 -21,12 -15,4 -25,-7 -30,-13 -1,-1 -2,-2 -2,-3 -3,0 -4,0 -5,0 0,2 -2,4 -4,4 -2,0 -3,-1 -3,-3 0,-1 0,-4 3,-6 2,-2 6,-3 11,-1 1,0 2,1 3,2 0,-12 2,-42 2,-48 0,-6 -2,-16 -9,-22 -5,-4 -8,-5 -9,-5 -5,4 -8,11 -10,18 l 0,1 c -4,14 -3,29 -3,29 l -2,81 c 0,1 0,1 0,1 l -1,23 c 65,-30 152,-58 248,-66 207,-16 337,97 339,98 1,1 1,3 0,5 -1,1 -3,1 -5,0 -1,-1 -130,-112 -334,-96 -98,8 -185,37 -249,66 -1,1 -2,2 -3,2 -8,4 -17,8 -25,12 0,1 -1,1 -2,1 -7,4 -14,8 -21,11 0,1 -1,1 -2,1 -6,4 -12,7 -17,11 0,0 -1,1 -2,1 -5,3 -10,6 -15,9 0,1 -1,1 -2,2 -14,10 -23,17 -25,20 7,17 142,122 354,122 2,0 4,0 5,0 217,-1 310,-89 311,-90 l -1,-22 c -25,17 -137,87 -300,87 -181,-1 -314,-74 -332,-93 -2,-1 -3,-3 -3,-5 1,-13 181,-104 353,-112 165,-7 282,75 299,87 11,-9 29,-19 52,-19 53,-1 65,23 65,32 0,1 1,3 -5,9 -10,11 -35,29 -63,29 -32,0 -52,-13 -59,-19 l 10,238 5,136 0,1 2,30 c 0,2 -2,4 -4,4 -2,0 -3,-2 -3,-3 l -1,-27 -13,5 c 4,13 6,24 7,27 0,2 -1,4 -3,4 -1,1 -3,-1 -4,-2 -1,-7 -4,-19 -7,-30 l 0,-1 c -3,-7 -5,-15 -8,-21 0,-1 0,-1 0,-1 -4,-9 -8,-17 -12,-21 l 0,-1 c -1,0 -2,-1 -2,-1 -1,-1 -2,-1 -3,-1 l 1,3 c 3,5 4,8 8,18 8,20 10,62 11,64 0,2 -2,3 -4,3 -2,0 -3,-1 -3,-3 0,0 -3,-42 -10,-62 -4,-10 -5,-12 -8,-17 l -1,-2 c 0,1 0,2 -1,3 l 0,1 c -5,12 -5,36 -2,59 l 0,1 c 1,9 2,18 3,26 1,2 0,4 -2,4 -2,1 -4,-1 -4,-2 -1,-3 -2,-12 -4,-24 l -23,8 c 3,12 4,22 4,25 0,2 -1,3 -3,4 -2,0 -4,-2 -4,-3 -1,-9 -2,-18 -4,-27 0,-1 0,-1 0,-1 -3,-13 -7,-27 -11,-37 -1,0 -1,0 -1,0 -4,-9 -10,-16 -16,-16 l -1,0 c 3,2 6,5 9,9 11,16 14,74 14,76 0,2 -1,4 -3,4 -2,0 -3,-2 -3,-4 -1,-16 -5,-60 -13,-72 -5,-6 -8,-8 -10,-8 0,0 -1,1 -1,2 0,1 -1,1 -1,1 -8,20 -5,67 -3,85 0,2 -1,4 -3,4 -2,0 -4,-1 -4,-3 0,-4 -3,-29 -2,-53 l -15,-3 c 1,10 3,22 3,33 l 1,0 0,1 c 1,12 1,23 2,25 0,2 -2,4 -3,4 -2,0 -4,-1 -4,-3 -1,-7 -1,-15 -2,-22 l -21,3 c 1,11 1,20 1,23 0,2 -2,3 -3,3 -2,0 -4,-1 -4,-3 0,-24 -5,-87 -29,-87 l -1,0 c -2,0 -4,0 -5,2 5,3 13,10 16,24 4,14 3,62 3,64 0,2 -2,3 -4,3 -2,0 -3,-1 -3,-3 0,-1 1,-49 -2,-62 -4,-13 -11,-19 -15,-21 -1,0 -1,1 -2,2 l 0,1 c -4,8 -6,19 -8,31 l 0,1 c -1,9 -1,18 -1,25 l 0,1 c -1,14 0,23 0,24 0,2 -1,3 -3,3 -2,0 -4,-1 -4,-3 0,-1 0,-9 0,-21 -5,0 -11,0 -15,0 0,1 0,1 0,1 l 0,20 c 0,2 -1,4 -3,4 z m 3,-32 c 4,0 9,0 15,0 0,-6 0,-13 1,-21 l -16,-5 0,26 z m 74,-30 c 2,8 3,16 4,23 l 21,-3 c 0,-9 -1,-17 -2,-25 l 0,-1 -23,6 z m -190,-3 19,14 c 2,-14 5,-28 10,-38 l -14,-18 c -8,9 -13,24 -15,42 z m -35,-15 c 1,7 2,15 3,22 l 21,-8 c -1,-8 -2,-15 -4,-23 l -20,9 z m 151,15 17,5 c 1,-10 4,-19 7,-27 l -19,-15 c -6,13 -5,27 -5,28 l 0,9 z m -48,-25 c 4,8 7,17 9,28 l 27,-9 c -3,-17 -10,-30 -20,-39 l -16,20 z m 211,-5 c 4,10 7,21 10,32 l 24,-8 c -1,-10 -2,-21 -2,-31 l -16,-7 -16,14 z m -97,8 c 3,5 5,12 7,19 l 23,-7 c 0,-8 -1,-13 -1,-14 -2,-7 -5,-15 -11,-22 l -18,24 z m 37,7 15,3 c 1,-10 3,-19 5,-26 l -16,-13 c -3,11 -4,24 -4,36 z m -255,-56 c 2,2 5,4 7,6 13,13 20,34 24,53 3,-16 9,-29 17,-38 1,0 1,0 1,0 0,-1 1,-2 2,-3 3,-3 7,-5 11,-7 -20,-2 -41,-6 -62,-11 z m 114,14 c 15,7 26,21 31,41 1,-11 5,-34 27,-45 -15,1 -31,3 -48,3 -3,1 -6,1 -10,1 z m -186,30 16,10 c 2,-8 5,-17 9,-23 l -15,-18 c -6,9 -9,21 -10,31 z m 63,-16 c 4,5 7,13 9,21 l 19,-8 c -3,-11 -8,-21 -15,-28 l -13,15 z m 170,0 18,15 c 1,-1 2,-2 2,-3 l 1,0 c 0,-1 0,-1 0,-1 3,-3 6,-5 9,-6 l -2,-22 c -14,3 -22,9 -28,17 z m 37,5 c 6,0 12,4 16,10 l 16,-23 c -7,-7 -18,-11 -34,-10 l 2,23 z m -293,7 16,1 c 0,-9 -1,-19 -4,-30 l -17,6 c 2,7 4,15 5,23 z m 484,-16 c 3,6 5,11 6,17 l 14,-5 0,-15 c 0,0 -1,-4 -3,-9 l -17,12 z m -333,-1 13,17 c 4,-5 9,-9 15,-9 5,0 9,2 13,5 1,1 2,3 3,4 l 15,-18 c -7,-4 -16,-7 -26,-8 -13,-2 -25,2 -33,9 z m 239,-5 c 6,2 12,8 17,16 l 15,-12 c -3,-6 -14,-30 -32,-32 l 0,28 z m -57,-1 c 5,6 9,11 11,17 2,-17 8,-31 18,-41 -16,4 -35,8 -54,11 10,2 18,7 25,13 z m 96,4 13,6 c 1,-8 2,-14 4,-20 l -13,-9 c -3,10 -4,20 -4,23 z m -72,-8 16,13 c 1,-1 1,-1 2,-2 l 0,-1 1,0 c 2,-3 4,-4 7,-5 l 0,-28 c -13,3 -21,11 -26,23 z m -320,-5 15,17 1,0 c 5,-5 11,-8 18,-7 4,0 8,2 11,5 l 12,-15 c -10,-9 -23,-12 -39,-10 -8,1 -14,4 -18,10 z m -19,-2 c 1,5 2,11 3,16 6,-18 18,-29 33,-31 2,0 3,0 5,0 -21,-6 -42,-13 -62,-20 10,10 17,22 20,34 0,0 0,1 1,1 z m 453,-7 c 4,5 8,11 11,19 l 16,-13 c -3,-8 -9,-19 -15,-27 l -12,21 z m -486,-2 c 3,4 6,8 8,13 l 17,-6 c -3,-8 -7,-16 -13,-23 l -12,16 z m 411,-13 c 13,4 22,16 27,25 2,-11 6,-28 15,-40 -12,5 -27,10 -42,15 z m -564,-93 c 12,6 229,123 387,116 176,-9 269,-68 281,-76 l -1,-24 c -4,3 -11,6 -21,11 0,0 -1,0 -1,1 -4,1 -8,3 -13,5 0,1 -1,1 -2,1 -9,4 -19,8 -31,13 0,0 -1,0 -2,1 -9,3 -18,6 -27,9 0,0 -1,1 -2,1 -5,1 -10,3 -16,5 0,0 -1,0 -2,0 -9,3 -17,5 -26,7 -1,1 -1,1 -1,1 -1,0 -1,0 -2,0 -13,3 -27,6 -41,9 -1,0 -1,0 -2,0 -6,1 -12,2 -18,3 0,1 0,1 -1,1 -9,1 -19,2 -29,4 l -1,0 c -19,2 -37,3 -57,3 -20,1 -39,0 -58,-2 l -1,0 c -18,-1 -36,-4 -54,-7 l -1,0 -1,-1 c -6,-1 -13,-2 -20,-4 l -1,0 -1,0 c -8,-2 -16,-4 -23,-6 -1,0 -2,0 -3,-1 -17,-5 -33,-10 -49,-15 -1,0 -2,-1 -2,-1 -7,-3 -13,-5 -19,-7 l -1,0 c 0,-1 -1,-1 -1,-1 -7,-3 -14,-6 -21,-9 -1,0 -1,0 -2,-1 -64,-28 -107,-57 -116,-64 -1,1 -2,4 -3,9 -1,10 4,17 5,19 z m 101,98 13,14 c 2,-5 4,-9 7,-12 1,0 1,0 1,0 l -11,-22 c -5,5 -8,12 -10,20 z m 502,2 14,10 c 1,-2 2,-4 4,-5 l 1,-1 c 1,0 2,-1 3,-1 3,-1 6,-1 9,1 l 12,-23 c -3,-2 -5,-4 -8,-6 -5,-2 -11,-2 -16,0 -10,3 -16,14 -19,25 z m 50,-22 c 7,9 14,20 18,30 l -3,-60 c -6,4 -17,11 -35,19 3,0 6,1 8,2 4,2 8,5 11,9 l 1,0 z m -582,-36 c 13,16 19,41 21,62 1,-2 1,-4 2,-6 l 0,-1 c 3,-11 8,-21 15,-27 0,-1 1,-1 1,-1 l 0,-1 c 4,-2 8,-4 12,-4 -19,-8 -36,-15 -51,-22 z m 62,54 c 1,0 2,0 4,0 4,1 8,3 11,6 l 12,-17 c -5,-5 -12,-9 -20,-12 -10,-4 -18,-4 -24,0 l 12,24 c 2,-1 3,-1 5,-1 z m -73,-33 c 5,8 7,18 9,28 l 14,-3 c -3,-14 -7,-28 -15,-38 l -8,13 z m 289,22 c 4,0 9,0 14,0 0,-23 -4,-74 -28,-75 -2,0 -5,1 -7,3 5,3 14,11 17,23 2,11 4,37 4,49 z m -14,-81 1,0 c 32,1 34,65 34,81 l 2,0 c 18,-1 36,-2 53,-4 -2,-13 -7,-58 6,-75 3,-4 7,-6 11,-7 7,-1 13,1 19,6 17,15 20,55 20,68 12,-3 25,-5 36,-8 -3,-14 -14,-60 -2,-79 4,-5 8,-8 14,-9 6,-1 12,1 17,5 17,14 23,54 25,67 8,-2 15,-5 22,-7 -2,-11 -6,-48 0,-71 0,0 0,-1 1,-1 1,-5 3,-9 6,-12 3,-4 8,-7 14,-7 10,0 23,7 30,38 2,12 3,23 3,30 10,-5 17,-9 20,-10 l -5,-119 c -19,10 -153,80 -328,89 -148,8 -320,-92 -340,-105 -2,3 -7,8 -6,19 0,19 11,22 11,22 2,1 3,2 3,3 l 0,48 c 3,3 11,9 24,17 1,-9 4,-25 13,-33 5,-3 10,-4 17,-2 24,6 25,55 25,65 10,5 21,10 32,15 0,-12 2,-41 14,-50 4,-3 9,-4 13,-3 24,7 24,59 24,74 14,5 28,9 44,14 -1,-14 -2,-46 9,-60 l 0,-1 c 1,0 1,0 1,0 0,-1 1,-1 1,-2 4,-3 9,-4 14,-4 32,6 30,65 29,79 16,3 32,6 48,7 0,-14 -2,-58 13,-73 3,-4 7,-5 12,-5 z m -18,79 c 8,0 17,1 25,1 0,-8 -1,-32 -4,-47 -2,-10 -10,-16 -14,-18 -8,15 -8,48 -7,64 z m 118,-71 c -8,15 -6,51 -3,68 8,-1 16,-2 24,-3 -1,-9 -2,-33 -4,-43 -4,-14 -13,-20 -17,-22 z m 5,-5 c 6,3 15,10 18,26 3,9 4,34 4,43 5,-1 9,-1 13,-2 -1,-11 -4,-50 -19,-64 -4,-3 -8,-4 -13,-4 -1,0 -2,1 -3,1 z m -199,64 c 5,1 10,2 15,3 1,-15 2,-66 -24,-71 -3,0 -5,0 -7,2 5,5 14,16 17,32 2,15 0,28 -1,34 z m -26,-7 c 6,2 13,4 19,6 1,-6 3,-18 1,-32 -2,-13 -10,-23 -14,-28 -7,13 -7,41 -6,54 z m 305,-71 c -8,16 -1,53 4,70 8,-2 15,-4 22,-6 -1,-16 -6,-51 -15,-59 -6,-6 -9,-6 -10,-6 l -1,1 z m -518,15 -2,52 c 1,-10 5,-22 14,-30 5,-3 10,-5 16,-6 1,0 1,0 1,0 1,0 2,0 3,0 -15,-7 -26,-13 -32,-16 z m 10,36 14,14 c 2,-2 3,-3 5,-4 1,-1 1,-1 2,-2 l -5,-20 c -3,0 -7,2 -10,4 -2,2 -5,5 -6,8 z m 28,7 c 3,0 5,0 8,1 3,1 5,3 7,5 l 9,-13 c -4,-4 -8,-7 -13,-9 -6,-2 -11,-3 -16,-4 l 5,20 z m 485,-65 c 3,1 6,3 11,7 11,11 16,48 17,62 4,-1 8,-2 11,-3 -1,-12 -7,-51 -23,-64 -3,-3 -7,-4 -11,-4 -2,0 -4,1 -5,2 z m -382,55 c 5,2 9,3 14,5 0,-20 -2,-60 -18,-64 -2,-1 -3,-1 -4,-1 3,5 8,15 9,24 2,14 0,29 -1,36 z m 456,-67 c -4,19 -2,49 0,65 10,-4 19,-7 27,-11 -1,-13 -5,-42 -12,-49 -6,-7 -12,-6 -15,-5 z m -479,57 c 5,3 11,5 16,7 1,-7 3,-20 2,-32 -1,-8 -6,-16 -9,-21 -7,10 -9,34 -9,46 z m 483,-64 c 5,0 11,1 16,7 9,10 13,39 14,51 3,-1 5,-2 8,-3 -1,-20 -6,-64 -27,-64 -4,0 -7,2 -9,5 -1,1 -2,2 -3,4 l 1,0 z m -539,37 c 3,2 7,4 10,6 0,-17 -4,-47 -17,-54 2,5 5,12 7,19 2,13 1,24 0,29 z m -31,-17 c 7,4 15,9 25,14 0,-6 1,-15 -1,-25 -2,-9 -7,-18 -9,-22 -2,0 -3,1 -4,2 -8,6 -11,23 -11,31 z m -36,-119 c 18,11 189,113 336,105 187,-10 326,-89 328,-90 l 0,-1 -3,-74 c -20,17 -116,87 -311,88 -2,0 -3,0 -5,0 -217,0 -337,-102 -353,-117 l 8,89 z m -55,-111 0,131 11,-3 0,-128 -11,0 z m 180,57 c 58,22 139,43 235,43 106,0 191,-30 243,-56 -20,-12 -101,-57 -216,-57 -161,0 -244,57 -262,70 z m -92,-48 c 5,7 36,26 85,45 8,-7 93,-74 269,-74 125,0 210,52 223,61 28,-14 45,-26 50,-29 l -1,-5 0,-1 1,-1 c 1,-3 5,-9 12,-16 -20,-14 -134,-92 -294,-85 -160,7 -330,91 -345,105 z m 634,-3 c 3,5 23,22 59,22 31,0 59,-26 61,-31 0,-3 -7,-26 -58,-25 -38,0 -59,27 -62,34 z m -649,-419 1,393 c 3,-2 6,-4 10,-6 l 0,-323 c 0,-2 1,-46 31,-46 7,0 12,2 17,7 12,13 11,38 11,39 l 2,57 7,-1 1,-117 -80,-3 z m 42,25 c -23,0 -24,38 -24,39 l 0,319 c 4,-3 8,-5 12,-8 l 6,-305 c 0,-1 0,-21 5,-32 2,-6 6,-11 7,-12 -2,-1 -4,-1 -6,-1 z m 12,5 c -1,0 -4,5 -7,11 -4,10 -5,29 -5,29 l -5,301 c 5,-2 11,-5 16,-8 l 1,-40 0,-1 0,-104 c 0,0 1,-10 5,-23 l 0,-1 c 2,-5 4,-10 7,-16 l -1,-53 -2,-61 c 0,0 1,-23 -9,-34 z m 6,296 0,33 c 7,-3 14,-7 21,-10 l 1,-23 -22,0 z m -212,-4 90,0 0,-27 -113,-7 23,34 z m 212,-3 22,0 1,-31 -22,0 -1,31 z m -236,-38 110,6 -59,-76 -51,70 z m 57,-75 62,81 51,-32 0,-107 -113,58 z m 245,68 c 3,4 8,7 13,8 l 0,-16 0,-42 c 0,-1 0,-8 -3,-15 0,-1 0,-1 -1,-2 -3,-8 -9,-17 -21,-17 1,1 2,2 3,2 10,9 12,21 12,28 0,7 -2,51 -3,53 l 0,1 z m -65,7 22,0 1,-34 -23,1 0,33 z m 85,-12 0,12 c 7,-2 13,-6 18,-10 0,-1 1,-1 2,-2 0,0 0,-1 -1,-1 l 0,-3 -19,4 z m 26,-8 0,3 c 4,-2 8,-4 13,-4 2,0 3,0 5,0 0,-3 -1,-12 -1,-23 l -18,-1 1,24 0,1 z m -26,-26 0,27 19,-4 -1,-23 -18,0 z m 113,17 c 2,1 3,3 4,4 2,2 3,2 5,2 1,0 2,0 3,0 1,-8 1,-39 -7,-63 -3,-9 -6,-17 -12,-23 -4,-4 -9,-7 -14,-9 -2,-1 -3,-1 -5,-1 9,5 14,13 19,25 6,15 7,62 7,65 z m 18,-33 c 1,14 1,26 1,34 1,-1 2,-3 3,-5 3,-5 6,-10 13,-14 0,-2 0,-10 -1,-19 l -16,4 z m -213,-18 c -3,9 -3,16 -3,17 l 0,23 23,-1 c 0,-4 0,-16 3,-28 l -23,-11 z m 325,33 c 3,2 6,3 9,3 3,-1 6,-2 9,-3 0,-10 0,-60 -20,-82 -4,-3 -7,-6 -11,-7 -1,0 -1,0 -1,-1 -3,-1 -7,-2 -11,-2 -2,0 -3,1 -5,1 4,1 7,3 10,6 21,22 20,81 20,85 z m -82,-2 c 3,0 7,1 9,2 0,-5 0,-14 0,-23 l -17,0 c 1,10 2,17 2,22 2,-1 3,-1 6,-1 z m 210,-3 c 3,2 6,3 9,2 4,0 5,-2 8,-4 1,-1 3,-2 5,-3 0,-3 1,-9 1,-17 l -24,0 c 1,10 1,19 1,22 z m -347,0 19,1 c 0,-7 1,-16 2,-24 l -20,-4 c -1,7 -2,12 -2,12 l 0,1 1,14 z m 243,-22 c 1,10 1,18 1,23 4,-2 7,-4 12,-4 0,-3 1,-11 0,-20 l -13,1 z m 20,18 c 2,1 3,1 5,1 3,1 5,1 7,3 l 1,-26 -13,-1 c 1,11 0,19 0,23 z m -287,3 17,0 -1,-19 c 0,0 1,-4 0,-10 l -19,10 c 2,5 3,10 3,14 l 0,5 z m 354,-14 1,0 c 2,2 4,4 6,6 1,1 2,2 3,3 -1,-17 -2,-41 -3,-48 -3,-12 -10,-33 -27,-33 l -1,0 c 7,4 15,11 18,25 0,1 0,2 0,2 0,1 0,1 0,1 5,20 3,41 3,44 z m 47,-14 c 0,9 -1,16 -1,21 2,-1 4,-1 6,-1 0,-4 -1,-11 0,-20 l -5,0 z m -275,-5 c 1,6 3,12 4,17 l 16,-4 c -1,-6 -3,-13 -4,-20 l -16,7 z m -206,-1 23,12 c 2,-8 6,-14 12,-19 l -11,-23 c -8,4 -13,10 -17,16 0,1 -1,1 -1,2 -3,4 -4,8 -6,12 z m 234,10 16,0 c 0,-7 1,-15 2,-22 l -13,-6 c -3,11 -5,21 -5,28 z m -171,-16 c 5,3 9,9 12,14 l 20,-10 c -1,-7 -4,-14 -10,-20 -3,-4 -6,-6 -10,-8 l -12,24 z m 279,-8 c 2,7 3,14 4,21 l 14,-2 c -1,-7 -2,-15 -3,-23 l -15,4 z m 108,20 24,0 c -1,-9 -1,-19 -3,-29 l -23,6 c 1,5 1,14 2,23 z m -344,-5 20,4 c 1,-8 3,-16 6,-22 l -17,-13 c -5,11 -8,22 -9,31 z m 442,-2 c 5,3 9,3 15,4 0,-5 -1,-13 -2,-23 l -14,0 c 1,9 1,16 1,19 z m -181,2 13,1 0,-19 -17,-2 c 2,6 3,13 4,20 z m 113,-2 6,0 c 0,-5 0,-11 1,-18 l -9,0 c 1,6 2,13 2,18 z m -283,-18 c 2,4 5,9 7,14 l 16,-8 c -3,-7 -5,-14 -9,-20 l -14,14 z m 332,-1 c 3,3 5,6 8,9 l 3,3 c 0,0 1,1 2,2 -1,-5 -1,-11 -2,-17 -1,-7 -3,-15 -6,-21 l 0,-1 c -1,-3 -3,-6 -6,-8 -2,-2 -5,-4 -7,-5 -2,0 -4,0 -6,0 5,3 10,7 12,13 3,10 2,21 2,25 z m -481,9 c 3,0 7,1 9,2 l 11,-24 c -5,-2 -11,-3 -18,-3 -8,0 -14,1 -20,3 l 11,23 c 1,0 3,-1 6,-1 l 1,0 z m 193,-13 13,5 c 1,-6 4,-13 7,-18 l -8,-11 c -5,7 -9,15 -12,24 z m 93,-10 c 2,4 4,8 6,13 l 15,-4 c -2,-6 -4,-13 -7,-18 l -14,9 z m 165,-12 c -3,6 -4,14 -5,23 4,-3 9,-6 17,-6 4,0 8,2 11,4 0,-5 0,-12 -2,-18 -2,-7 -11,-11 -14,-12 -3,2 -5,5 -7,9 z m -380,10 17,13 c 1,-3 2,-5 4,-7 2,-1 3,-3 5,-4 l -6,-23 c -9,5 -15,13 -20,21 z m 245,10 16,2 c 1,-3 2,-8 4,-13 l -12,-11 c -4,8 -6,16 -8,22 z m 77,-14 c 2,5 4,10 6,16 l 22,-6 c -2,-9 -5,-18 -9,-25 l -19,15 z m -264,4 c 6,2 10,5 14,10 1,0 1,1 2,1 l 15,-15 c -6,-8 -12,-14 -20,-19 l -11,23 z m 300,10 11,0 c 0,-6 1,-13 3,-20 l -12,-7 c -2,9 -3,17 -4,19 1,3 2,5 2,8 z m -86,-10 c 2,0 5,1 8,3 2,1 4,3 5,4 1,2 2,3 6,3 1,0 2,0 4,-2 1,-1 4,-2 6,-2 1,-1 2,-1 3,0 -7,-17 -19,-18 -23,-18 -4,3 -7,7 -9,11 0,1 0,1 0,1 z m 155,9 14,0 c -1,-8 -3,-16 -5,-24 l -13,7 c 2,5 3,11 4,17 z m -401,-33 6,22 c 6,-2 14,-2 20,0 l 11,-23 c -5,-2 -10,-3 -16,-3 -8,0 -15,2 -21,4 z m 171,6 c 3,2 6,4 9,7 2,2 4,4 5,7 l 14,-9 c -1,-3 -3,-5 -5,-7 -5,-5 -11,-9 -17,-12 l -6,14 z m -58,0 7,11 c 2,-2 4,-4 7,-6 1,0 3,-2 6,-4 l -1,-15 c -8,4 -14,8 -19,14 z m 117,0 12,11 c 3,-5 6,-8 11,-11 0,-1 1,-1 1,-1 l -9,-17 c -6,5 -11,11 -15,18 z m 54,0 c 3,2 6,5 8,8 l 19,-15 c -1,-1 -2,-2 -3,-3 -4,-4 -8,-8 -12,-10 l -12,20 z m 97,-9 c 2,1 5,3 7,5 2,2 4,5 6,8 l 13,-8 c -3,-8 -7,-16 -13,-22 -2,-2 -4,-3 -6,-4 l -7,21 z m -44,3 12,8 c 2,-3 3,-5 6,-7 l -10,-17 c -3,5 -6,11 -8,16 z m -198,-10 1,14 c 4,-1 8,-2 13,-2 4,0 8,0 11,1 l 6,-13 c -5,-2 -10,-2 -16,-2 -6,0 -11,1 -15,2 z m 130,12 c 4,0 6,0 9,1 l 11,-20 c -5,-2 -11,-3 -19,-3 -7,0 -14,2 -19,5 l 10,18 c 2,-1 5,-1 8,-1 z m 81,-24 10,19 c 3,-1 6,-2 9,-2 2,0 4,0 5,0 l 8,-23 c -4,-1 -8,-2 -12,-2 -8,1 -15,4 -20,8 z m -378,-66 -90,73 467,-29 56,-66 -433,22 z m -97,53 0,17 92,-75 0,-17 -92,75 z m 0,-22 0,13 92,-75 0,-12 -92,74 z m 1,-73 -1,64 18,-14 c -1,-9 -3,-45 10,-53 3,-2 6,-2 8,0 7,4 10,20 11,29 l 7,-5 c -1,-11 -3,-49 12,-55 3,-1 6,0 8,1 6,4 8,20 9,29 l 9,-7 0,-54 -86,64 -1,1 -1,0 -3,0 z m 31,3 0,1 c -7,3 -9,24 -8,41 l 17,-13 c -1,-13 -5,-26 -8,-28 0,-1 0,-1 -1,-1 z m 37,-31 -1,1 c -7,3 -9,24 -8,43 l 16,-13 c 0,-12 -2,-28 -6,-30 0,-1 0,-1 -1,-1 z m -71,20 -42,-67 -56,63 10,0 c 1,0 1,0 1,0 l 86,4 1,0 z m -37,-71 44,69 85,-62 -49,-47 -80,40 z m 277,687 c -5,0 -17,0 -18,0 -2,0 -3,-2 -3,-4 l 0,-5 0,-12 0,-14 c 0,-2 1,-4 3,-4 0,0 14,0 18,0 4,1 18,1 18,1 2,0 3,1 3,3 l 3,30 c 0,1 0,2 0,3 -1,0 -2,1 -3,1 0,0 -16,1 -19,1 -1,0 -1,0 -2,0 z m -15,-7 c 3,0 7,0 10,0 l 21,-13 -1,-5 -30,18 z m 32,-6 -9,6 c 3,0 7,-1 9,-1 l 0,-5 z m -32,-6 0,4 27,-16 c -3,0 -7,0 -9,-1 l -18,13 z m 0,-13 0,4 6,-4 -6,0 z m -85,25 c -4,0 -9,-1 -16,-3 -7,-2 -11,-4 -13,-6 l -1,0 c 0,-1 -1,-1 -1,-1 0,-1 -1,-2 -1,-2 l -2,-34 c 0,-1 0,-3 1,-3 1,-1 2,-1 3,-1 0,0 4,1 14,4 1,0 2,0 3,1 12,3 16,5 16,5 2,0 2,1 2,3 l 1,33 c 0,2 -1,3 -3,4 0,0 -1,0 -3,0 z m -21,-12 c 1,0 2,1 3,1 l 17,-10 0,-4 -20,13 z m -4,-9 0,4 23,-16 c 1,0 1,-1 1,-1 l 0,-1 c -1,0 -3,0 -5,-1 l -19,15 z m -1,-10 0,2 12,-10 -1,0 -1,0 -10,8 z m 218,30 c -1,0 -3,-1 -3,-3 l -1,-9 -1,-11 0,-1 -1,-12 c 0,-2 1,-3 3,-3 0,0 11,-2 17,-3 1,0 2,0 3,0 1,0 1,0 1,0 5,-1 12,-3 12,-3 2,0 3,0 3,0 1,1 2,2 2,3 l 0,7 0,1 1,11 0,1 0,12 c 0,1 0,2 -1,3 -1,0 -7,5 -17,6 -4,0 -7,1 -10,1 -5,0 -7,0 -7,0 l -1,0 z m 3,-10 0,3 c 1,0 2,0 3,0 l 23,-17 0,-4 -26,18 z m 26,-6 -9,7 c 4,0 7,-2 9,-3 l 0,-4 z m -27,-6 0,4 26,-18 0,-1 c -2,0 -5,1 -8,1 l -18,14 z m 84,1 c -1,0 -2,0 -3,-1 0,-1 -1,-2 -1,-3 0,0 1,-9 0,-15 -1,-1 -1,-2 -1,-4 -1,-5 -3,-11 -3,-11 0,-2 1,-4 2,-4 0,0 16,-5 22,-8 7,-2 14,-4 14,-4 1,-1 2,0 3,0 0,1 1,2 1,3 l 2,9 c 0,1 0,2 0,3 l 3,19 c 0,2 -1,3 -2,4 0,0 -14,6 -20,8 -6,2 -16,4 -17,4 z m 3,-9 c 0,1 0,1 0,1 2,0 4,-1 6,-1 3,-2 14,-12 21,-18 l 0,-3 -27,21 z m -1,-13 c 0,0 0,1 0,2 0,1 1,2 1,3 l 26,-20 -1,-5 -1,0 -25,20 z m -2,-11 c 0,1 0,2 0,3 l 8,-6 c -3,1 -6,2 -8,3 z m -369,31 c 0,0 -11,-1 -21,-6 l -4,-1 c -8,-4 -12,-6 -14,-10 0,0 0,-1 0,-2 l 0,-1 c 0,-6 1,-19 2,-28 0,-1 0,-2 1,-3 1,0 2,0 3,0 0,0 9,4 15,6 1,1 2,2 3,2 3,1 7,2 10,3 4,0 7,1 7,1 1,0 3,2 3,3 l -1,32 c 0,1 -1,2 -2,3 0,0 -1,1 -2,1 z m -20,-13 1,1 16,-8 0,-2 -17,9 z m -11,-5 c 0,1 1,1 3,2 l 26,-14 0,-3 c -1,0 -2,0 -3,0 l -26,15 z m -1,-11 c 0,1 0,2 0,4 l 17,-11 c 0,0 -1,0 -2,-1 -1,0 -1,0 -2,0 l -13,8 z m 1,-14 c 0,2 0,4 0,5 l 4,-3 c -1,0 -3,-1 -4,-2 z m 481,19 c -1,0 -2,-1 -2,-1 -1,0 -2,-1 -2,-3 l 0,-9 -1,0 -1,-25 c 0,-1 0,-3 2,-3 l 20,-9 10,-4 c 1,0 2,0 3,0 1,1 1,2 2,3 l 2,20 1,14 c 0,2 -1,3 -2,4 l -31,12 c -1,1 -1,1 -1,1 z m 2,-12 1,3 2,-1 21,-22 -24,20 z m 25,-11 -7,7 7,-3 0,-4 z m -26,-2 1,4 23,-20 -1,-5 -5,2 -18,19 z m -538,10 -1,0 -17,-8 -1,0 -10,-5 -4,-1 c -1,-1 -1,-2 -1,-4 l 0,-9 0,-1 0,-25 c 0,-1 1,-2 2,-3 1,0 2,0 3,0 l 33,18 c 1,1 2,2 1,3 l -1,32 c -1,1 -1,2 -2,3 -1,0 -1,0 -2,0 z m -20,-16 3,1 15,-8 0,-3 -18,10 z m -8,-9 0,5 26,-14 -5,-2 -21,11 z m 1,-13 0,5 13,-7 -6,-3 -7,5 z m 51,-55 c -1,0 -1,0 -2,0 -1,-1 -1,-2 -1,-3 l -1,-8 0,-1 -2,-11 -1,-14 c -1,-1 0,-3 2,-3 l 27,-10 1,0 c 1,0 2,0 3,1 0,0 0,1 0,2 l 4,34 c 0,1 -1,3 -2,3 l -27,10 -1,0 z m 3,-11 0,3 19,-17 0,-2 -19,16 z m -2,-11 1,3 19,-16 -1,-5 -19,18 z m 633,7 c -26,0 -37,-14 -37,-15 -1,-1 -1,-3 0,-4 0,-1 15,-17 40,-19 24,-2 43,8 44,9 1,0 1,1 2,2 0,1 0,2 -1,3 0,1 -14,22 -44,24 -1,0 -2,0 -4,0 z m -30,-17 c 4,4 15,11 34,10 19,-1 31,-12 36,-18 -6,-2 -21,-7 -37,-6 -17,1 -28,10 -33,14 z m -542,6 c -1,0 -2,0 -2,0 -1,-1 -2,-2 -2,-3 l -1,-5 c 0,-1 0,-1 0,-1 l -1,-12 -2,-16 c 0,-2 1,-3 2,-4 l 31,-9 c 1,-1 2,0 3,1 1,1 1,1 1,2 l 4,33 c 0,2 -1,3 -2,4 l -30,10 c -1,0 -1,0 -1,0 z m 25,-28 -22,20 23,-8 -1,-12 z m -24,8 0,4 23,-20 -1,-4 -22,20 z m -2,-15 1,7 12,-11 -13,4 z m 513,-60 c -2,0 -4,-1 -6,-2 -8,-3 -12,-11 -16,-18 -3,-5 -6,-11 -9,-13 -4,-2 -11,1 -18,4 -5,2 -10,4 -14,3 -6,0 -9,-4 -11,-8 -2,-3 -5,-6 -9,-9 -8,-5 -21,3 -21,3 -2,1 -4,1 -5,-1 -1,-1 0,-4 1,-5 1,0 16,-10 28,-3 6,3 9,8 11,11 3,3 4,5 7,6 2,0 7,-2 11,-4 7,-3 16,-7 23,-3 5,3 9,9 12,16 4,6 7,13 13,15 6,3 13,-4 14,-4 1,-1 3,-1 4,0 2,1 2,3 0,5 0,0 -7,7 -15,7 z m -738,-51 -64,-2 c -1,0 -2,-1 -3,-2 0,-1 0,-3 1,-4 l 32,-36 c 1,0 2,-1 3,-1 1,0 2,1 2,1 l 32,38 c 1,1 1,3 0,4 0,1 -2,2 -3,2 z m -56,-9 49,2 -25,-29 -24,27 z m 296,-165 c -1,0 -3,-1 -3,-2 -1,-1 0,-3 1,-4 l 40,-38 c 1,0 1,-1 2,-1 l 401,-26 c 1,0 3,0 3,2 1,1 1,2 0,4 l -37,42 c 0,1 -1,2 -2,2 l -405,21 z m 42,-38 -33,31 394,-21 30,-36 -391,26 z m -126,-76 -58,0 c -2,0 -3,-1 -4,-2 0,-1 0,-3 1,-4 l 31,-32 c 1,-1 1,-1 2,-1 1,0 2,0 3,1 l 28,32 c 1,1 1,3 0,4 0,1 -2,2 -3,2 z m -50,-7 43,0 -21,-23 -22,23 z" /></g></g><g
         id="id6"
         transform="translate(279.44365,-289.60524)"><rect
           class="BoundingBox"
           x="2055"
           y="2310"
           width="856"
           height="1063"
           id="rect3667"
           style="fill:none;stroke:none" /><path
           d="m 2614,3372 c -2,0 -4,-1 -4,-3 l -1,-84 c 0,-2 0,-44 23,-45 10,0 17,3 24,9 22,23 18,79 18,82 0,1 -2,3 -4,3 -2,0 -3,-2 -3,-4 0,0 3,-56 -16,-76 -4,-4 -8,-6 -13,-7 4,4 8,9 11,17 5,11 9,71 9,78 0,2 -1,3 -3,3 -2,0 -3,-1 -4,-3 -1,-18 -5,-67 -8,-76 -5,-11 -10,-15 -13,-16 -2,0 -4,0 -5,1 -9,9 -10,33 -10,34 l 2,84 c 0,2 -1,3 -3,3 z m 91,-66 c -2,0 -3,-2 -3,-4 l -9,-197 0,-1 -5,-142 c -1,-2 1,-4 3,-4 2,0 3,1 3,3 l 1,26 86,-7 0,-17 c 0,-6 10,-15 23,-22 l -13,-12 -26,31 c 0,0 -1,1 -2,1 l -35,5 c -1,0 -1,0 -2,-1 l -32,-26 -13,8 c -2,1 -4,1 -5,-1 -1,-1 -1,-3 1,-5 l 6,-4 -1,-37 -85,1 0,42 c 0,2 -1,3 -3,3 -2,0 -4,-1 -4,-3 l 1,-210 c 0,-1 0,-1 0,-1 l 0,-1 0,-155 -36,-1 c -2,0 -3,-1 -3,-2 -1,-1 -1,-2 0,-3 l 31,-51 c 1,-1 2,-2 3,-2 l 9,0 0,-72 -20,0 c -1,0 -2,-1 -3,-2 0,-1 0,-2 0,-3 l 17,-24 c -2,-3 -4,-9 -4,-22 0,-23 39,-51 41,-52 1,-1 3,-1 4,1 2,1 1,3 0,4 -11,8 -38,31 -38,47 0,16 3,20 3,20 2,1 2,3 1,4 l -14,20 103,-2 -17,-23 c -1,-1 -1,-3 0,-4 1,-2 4,-10 4,-14 0,-6 -4,-17 -6,-21 0,-2 -38.5561,-26.3283 -34.4394,-32.9727 2,0 -0.2835,-5.6069 36.6998,25.732 0,1 10.7396,19.2407 10.7396,28.2407 0,5 -3,12 -4,15 l 20,27 c 0,1 1,2 0,4 0,1 -2,1 -3,1 l -23,1 4,72 41,2 c 1,1 2,1 2,2 1,1 1,2 1,3 l -19,53 c 0,1 -2,2 -3,2 l -21,0 7,154 1,32 c 1,1 1,1 1,2 l -1,1 2,25 c 2,3 9,11 20,10 6,-1 10,-3 13,-5 6,-4 12,-8 26,-5 10,3 15,9 18,14 4,6 8,10 17,12 7,1 11,-1 16,-3 5,-3 11,-6 24,-4 11,1 18,9 26,17 7,8 14,15 23,15 9,0 12,-1 15,-3 3,-1 6,-2 12,-2 10,1 15,8 15,8 1,2 1,4 -1,5 -2,1 -4,1 -5,-1 0,0 -3,-4 -10,-5 -4,0 -5,0 -8,2 -3,1 -7,3 -19,3 -11,0 -19,-9 -27,-17 -7,-7 -14,-14 -21,-15 -12,-2 -16,1 -22,3 -5,2 -10,5 -19,3 -12,-1 -17,-8 -21,-14 -4,-5 -7,-9 -14,-11 -12,-3 -16,0 -21,3 -4,3 -8,6 -16,7 -9,1 -16,-3 -21,-7 l 6,132 2,-2 c 1,0 3,0 4,1 l 33,27 32,-5 27,-32 c 1,-1 2,-1 3,-1 1,0 1,0 2,1 l 18,15 c 11,-4 24,-8 36,-8 31,0 51,17 51,26 0,11 -31,28 -52,30 -21,2 -46,-3 -58,-12 l 0,99 0,30 0,114 c 0,2 -1,3 -3,3 -2,0 -4,-1 -4,-3 l 0,-110 -14,0 c 1,43 3,128 3,132 0,2 -2,4 -3,4 l -1,0 c -1,0 -3,-2 -3,-4 0,-1 -3,-150 -3,-156 -1,-2 -1,-5 -1,-8 l 0,-1 c -2,-12 -5,-27 -17,-27 -3,0 -5,1 -7,3 -10,9 -13,37 -13,57 0,7 3,178 3,180 0,2 -1,3 -3,3 -2,0 -4,-1 -4,-3 0,-7 -2,-160 -3,-178 l -15,0 8,194 c 0,2 -1,4 -3,4 z m -5,-205 16,0 c 0,-6 0,-14 1,-23 l -18,1 z m 66,-25 c 0,2 0,4 0,5 0,2 1,8 1,18 l 14,0 0,-23 z m -70,-83 3,79 19,-1 c 2,-11 6,-21 12,-27 3,-4 7,-5 12,-5 16,0 21,17 23,30 l 16,0 0,-82 z m 151,-57 c -31,0 -59,21 -59,27 0,1 1,2 2,3 8,8 32,14 55,12 23,-2 47,-18 46,-23 0,-4 -15,-19 -44,-19 z m -250,-58 0,16 84,-1 0,-15 z m 67,-7 16,0 -4,-103 -79,2 0,101 22,0 0,-37 c 0,-9 5,-25 20,-25 l 1,0 c 15,0 20,15 21,23 z m -38,0 31,0 -3,-38 c 0,-1 -2,-17 -14,-17 l -1,0 c -12,0 -13,17 -13,18 z m -29,-136 0,29 78,-3 -1,-26 -23,0 -1,0 z m 1,-159 -1,152 24,0 0,-25 c 0,-8 8,-16 16,-16 11,0 15,10 16,16 l 1,25 20,0 -7,-151 z m 39,118 c -5,0 -9,5 -9,9 l 0,25 19,0 -1,-25 c 0,0 -1,-9 -9,-9 z m -76,-126 132,2 16,-46 -36,-2 1,20 c 0,1 0,2 -1,3 0,1 -1,1 -2,1 l -73,0 c -1,0 -3,-2 -3,-3 l 0,-19 -7,0 z m 41,-29 65,0 -5,-96 -60,2 0,75 0,1 0,1 z m 18,653 c -1,0 -3,-1 -3,-3 0,-1 -4,-16 -2,-30 0,-1 0,-1 0,-1 0,-7 2,-13 5,-17 3,-5 8,-7 13,-8 5,-1 10,1 14,4 14,13 14,46 14,48 0,1 -2,3 -3,3 l -37,4 z m 1,-30 c 0,8 1,17 2,23 l 12,-2 c -1,-5 -3,-13 -5,-15 -3,-4 -6,-5 -9,-6 z m 1,-7 c 3,1 9,3 13,8 4,5 6,15 7,20 l 12,-1 c -1,-11 -3,-32 -11,-39 -3,-3 -6,-4 -9,-3 -4,0 -6,2 -8,5 -2,2 -3,6 -4,10 z m 206,-1 c -2,0 -4,-1 -4,-3 -1,-11 -7,-87 9,-121 l 1,-1 c 4,-8 9,-13 15,-15 5,-1 9,0 13,3 12,9 13,35 13,37 0,2 -1,4 -3,4 -2,0 -4,-1 -4,-3 0,-7 -2,-26 -10,-32 -2,-2 -5,-3 -7,-2 -4,1 -8,4 -10,9 1,2 3,5 5,9 5,11 4,70 4,76 0,2 -2,3 -4,4 -2,0 -3,-2 -3,-4 0,-26 0,-66 -3,-74 -1,-1 -2,-3 -3,-4 -10,29 -8,87 -6,113 0,2 -1,4 -3,4 z m -220,-67 c -1,0 -2,0 -2,-1 -1,0 -2,-1 -2,-2 0,-2 -1,-24 5,-41 0,-1 0,-1 0,-1 4,-11 10,-19 21,-20 6,0 11,2 16,6 14,13 15,47 15,49 0,2 -2,3 -3,3 z m 7,-40 c -3,11 -4,24 -4,33 l 19,-3 c 0,-4 0,-15 -5,-23 -4,-4 -8,-6 -10,-7 z m 2,-6 c 4,1 9,3 13,9 6,9 7,20 7,26 l 17,-2 c -1,-9 -3,-32 -13,-41 -3,-3 -6,-4 -10,-4 -7,1 -11,5 -14,12 z m 90,-11 c -1,0 -2,0 -2,-1 -1,0 -1,-1 -1,-2 l -1,-19 c 0,-1 0,-2 1,-3 1,-1 1,-1 2,-1 l 24,-1 c 1,0 3,2 3,4 l 1,19 c 0,1 0,2 -1,2 -1,1 -1,1 -2,1 z m 3,-19 0,12 17,0 -1,-13 z m 42,16 c -1,0 -2,0 -3,-1 0,0 -1,-1 -1,-2 l 0,-17 c -1,-2 1,-4 3,-4 l 22,-1 c 1,0 2,0 3,1 0,0 1,1 1,2 l 1,17 c 0,2 -2,4 -4,4 z m 2,-17 1,10 16,-1 -1,-10 z m -233,-27 c 0,0 -1,0 -1,-1 l -31,-10 c -1,0 -1,0 -1,0 -1,-1 -1,-1 -1,-2 l -1,0 c 0,-1 0,-1 0,-2 l 2,-29 c 0,-1 0,-2 1,-3 1,0 2,0 3,0 l 23,5 8,2 c 1,0 2,2 2,3 l -1,33 c 0,1 0,2 -1,3 -1,0 -1,1 -2,1 z m -22,-15 5,2 14,-9 0,-1 z m -5,-11 -1,6 25,-11 1,-3 -4,-1 z m 0,-14 0,6 8,-4 z m -435,30 c -1,0 -2,0 -2,-1 -2,-1 -2,-4 0,-5 l 19,-19 c 1,-1 3,-1 5,0 1,2 1,4 0,5 l -20,19 c 0,1 -1,1 -2,1 z m 776,-4 c -9,0 -18,-1 -22,-4 -2,-2 -3,-4 -3,-6 0,-7 10,-15 31,-17 17,-2 33,5 34,12 0,1 0,3 -1,5 -4,5 -17,8 -25,9 -4,1 -9,1 -14,1 z m 7,-20 c -19,1 -25,7 -25,10 1,3 18,5 31,2 14,-2 20,-5 21,-6 -1,-2 -12,-8 -27,-6 z m -406,5 -1,0 -33,-12 c -2,-1 -3,-2 -3,-4 l 0,-11 c 0,-1 0,-1 0,-1 l 0,-20 c 0,-1 1,-2 2,-3 1,0 2,-1 3,0 l 18,5 1,0 14,4 c 2,1 3,2 3,4 l 0,3 0,13 0,18 c 0,2 -1,3 -2,3 0,1 -1,1 -2,1 z m -11,-11 8,3 0,-8 z m -11,-4 3,1 16,-10 0,-5 z m -8,-3 26,-18 -10,-3 -16,13 z m 0,-25 0,8 8,-6 z m -277,41 c -1,0 -1,0 -1,0 -1,-1 -2,-2 -2,-3 l -2,-5 0,-1 -1,-12 c 0,-1 0,-1 0,-1 l -2,-13 c 0,-1 1,-3 2,-3 l 27,-9 4,-1 c 1,-1 2,0 3,0 1,1 1,1 2,2 l 1,10 4,25 c 1,2 -1,3 -3,4 z m 4,-8 0,1 4,-1 18,-19 0,-1 z m 23,-10 -7,7 8,-2 z m -27,-3 3,5 21,-20 -1,-4 z m 79,8 c -1,0 -1,-1 -1,-1 -1,-1 -1,-2 -1,-2 l -4,-37 c 0,-1 0,-2 1,-3 1,0 1,-1 2,-1 l 34,-3 c 2,0 4,1 4,3 l 1,16 2,19 c 0,2 -1,3 -3,3 l -26,4 z m 4,-11 0,3 3,0 22,-21 0,-4 z m 26,-9 -11,10 12,-2 z m -27,-3 0,4 22,-20 -8,0 z m 128,12 -21,-1 -14,-1 c -2,0 -3,-1 -3,-3 l 0,-3 0,-14 0,-16 c 0,-1 0,-2 1,-2 1,-1 1,-1 2,-1 l 35,1 c 2,1 3,2 3,4 l 0,33 c 0,1 0,2 -1,2 0,1 -1,1 -2,1 z m -29,-8 7,0 18,-14 0,-5 z m -2,-12 0,5 23,-18 -5,0 z m 514,-7 c -4,0 -9,-1 -16,-3 -7,-2 -12,-7 -16,-11 -5,-6 -10,-11 -20,-11 -8,0 -11,4 -15,8 -3,4 -6,8 -13,11 -21,9 -42,-22 -43,-23 -1,-2 -1,-4 1,-5 1,-1 3,-1 4,1 1,0 20,27 35,20 5,-2 8,-5 11,-8 4,-5 9,-11 20,-11 13,0 19,7 25,13 4,4 7,8 13,10 13,3 19,1 19,1 2,-1 4,0 4,2 1,2 0,4 -1,4 -1,1 -3,2 -8,2 z m 83,-7 c -2,0 -3,-1 -4,-2 -2,-5 -9,-16 -16,-17 -4,-1 -9,1 -13,2 -6,2 -12,5 -19,4 -9,-2 -13,-7 -17,-12 -2,-3 -4,-6 -7,-8 -7,-5 -18,-2 -18,-2 -2,0 -4,-1 -4,-3 -1,-2 1,-4 2,-4 1,0 14,-4 24,4 4,2 7,6 9,9 3,4 6,8 12,9 5,1 10,-1 15,-3 5,-2 11,-4 17,-3 12,2 21,19 22,21 0,1 0,4 -2,4 0,1 -1,1 -1,1 z m -357,-167 c -2,0 -4,-2 -4,-4 l -5,-151 -3,-63 -191,52 0,21 c 0,2 -1,4 -3,4 -2,0 -3,-2 -3,-4 l -1,-21 -181,-53 2,83 c 1,2 -1,4 -3,4 -2,0 -3,-2 -3,-3 l -3,-89 0,-1 0,-1 c 0,0 1,-1 2,-1 l 36,-18 0,-21 0,-1 c 1,-1 1,-1 2,-2 l 42,-25 0,-15 0,-1 c 0,-1 1,-2 1,-2 l 36,-21 0,-32 c 0,-1 0,-2 1,-3 l 38,-36 c 1,0 1,-1 2,-1 l 83,-12 c 1,0 2,0 3,1 l 34,39 c 1,1 1,2 1,3 l 0,47 31,13 c 1,1 1,1 2,2 l 0,1 1,23 28,13 c 1,1 2,1 2,2 0,1 0,1 0,2 l 0,21 46,25 c 1,0 2,1 2,2 l 0,1 1,67 7,151 c 0,2 -1,4 -3,4 z m -385,-225 178,53 189,-51 -35,-19 0,8 c 0,2 -1,3 -2,3 l -141,46 c -1,0 -1,0 -2,0 l -159,-47 c -2,0 -3,-1 -3,-3 l 0,-2 z m 189,7 2,25 134,-43 0,-12 0,-19 z m -157,-20 152,45 -1,-25 -151,-43 0,18 z m 5,-29 149,43 134,-48 -18,-8 0,7 c 0,2 -1,3 -2,3 l -111,37 c -1,0 -1,0 -2,0 l -116,-37 c -1,-1 -2,-2 -2,-4 l 0,-12 z m 38,-9 110,35 0,-23 -110,-40 0,12 z m 116,12 0,23 104,-34 -1,-31 z m -111,-46 108,40 101,-41 -21,-9 0,5 c 0,1 -1,2 -2,3 l -76,31 c -1,0 -2,0 -2,0 l -80,-37 c -1,-1 -2,-2 -2,-3 l 0,-4 z m 109,-34 3,55 68,-29 0,-51 z m -76,21 72,33 -2,-53 -70,-18 0,30 0,1 z m 41,-76 33,49 72,-26 -30,-34 z m -38,32 62,15 -31,-44 z m 382,315 -17,0 c -2,0 -3,-1 -3,-3 l -2,-46 c 0,-1 0,-10 4,-15 2,-2 5,-3 8,-3 9,0 12,12 12,19 l 1,45 c 0,1 0,2 -1,2 0,1 -1,1 -2,1 z m -13,-6 9,0 -1,-42 c 0,0 0,-12 -5,-12 -1,0 -2,0 -3,1 -2,2 -2,8 -2,9 z m -18,6 -16,0 c -2,0 -3,-1 -3,-3 l -2,-46 c 0,-1 0,-10 5,-15 1,-2 4,-3 6,-3 9,0 12,11 12,17 l 1,47 c 0,1 0,2 -1,2 0,1 -1,1 -2,1 z m -13,-6 9,0 -1,-44 c 0,-2 -1,-10 -5,-10 0,0 -1,0 -2,1 -2,2 -2,7 -2,10 z m 5,-135 c -1,0 -1,-1 -2,-1 -1,-1 -1,-2 -1,-3 l -1,-53 c 0,-1 0,-12 5,-18 3,-2 6,-4 10,-4 9,0 12,9 14,12 1,4 3,36 5,62 0,1 0,2 -1,3 -1,1 -2,1 -3,1 z m 11,-72 c -2,0 -4,1 -5,2 -3,3 -3,10 -3,13 l 1,50 19,-1 c -2,-21 -4,-53 -5,-56 -1,-4 -3,-8 -7,-8 z"
           id="path3669"
           inkscape:connector-curvature="0"
           style="fill:#231f20;stroke:none"
           sodipodi:nodetypes="sccccssccccsscccsccssccccscccscccccccccccccsscccccccccsccscccscccsccccccscccsccccccccccscccccccsccccccscccscccssccccccccccccccsccssscccsssccsssscscscsssscccsccccccsccccccccsccccsssscscccccccccccssscccccssscccccccccccsscccccsscccsccccccssscccccccccccsscccscsccsccccccsccccccsccccssssccccscscccsccsccccsccccccccscccccccccsccccccccccccccsccccccccccccccccccccccccccccccccccccccccccccsccscccsscsccccscccccsccsscscccccsccscscccccccccccccccccccccccccccccccccccccccccccccccccccccccccccccccccccccccccccccccccsccscccssccccccccccccsscscscccccssccccscccccccccscccsscccsccccssccccscccccccccccsccsccccccsccccccssccscccsccccsccccsccccccccccccccccccsccccscccccccccccccccccsccccscccccccccccccccccccccccsscccscccscccssccsscccscccsccccscccccccsccsccssccccs" /></g><g
         id="g4133"
         class="com.sun.star.drawing.ClosedBezierShape"><g
           id="id73"><rect
             style="fill:none;stroke:none"
             id="rect4136"
             height="1652"
             width="1630"
             y="2028"
             x="1500"
             class="BoundingBox" /><path
             sodipodi:nodetypes="cccc"
             style="fill:#231f20;stroke:none"
             inkscape:connector-curvature="0"
             id="path4138"
             d="m 2314,3679 c -542.6667,0 -271.3333,0 0,0 z m 0,-17 c -542.6667,11.3333 -271.3333,5.6667 0,0 z" /></g></g><text
         xml:space="preserve"
         style="font-size:67.73332977px;font-style:normal;font-variant:normal;font-weight:normal;font-stretch:normal;text-align:center;line-height:125%;letter-spacing:0px;word-spacing:0px;writing-mode:lr-tb;text-anchor:middle;fill:#000000;fill-opacity:1;stroke:none;font-family:Sathu;-inkscape-font-specification:Sathu"
         x="2287.5227"
         y="1672.0864"
         id="text5046"
         sodipodi:linespacing="125%"><tspan
           sodipodi:role="line"
           id="tspan5048"
           x="2287.5227"
           y="1672.0864"
           style="font-size:101.59999847px">Dipartimento</tspan><tspan
           sodipodi:role="line"
           x="2287.5227"
           y="1799.0864"
           id="tspan5050"
           style="font-size:101.59999847px">di Culture e Civiltà</tspan></text>
<text
         xml:space="preserve"
         style="font-size:67.73332977px;font-style:normal;font-variant:normal;font-weight:normal;font-stretch:normal;text-align:center;line-height:125%;letter-spacing:0px;word-spacing:0px;writing-mode:lr-tb;text-anchor:middle;fill:#000000;fill-opacity:1;stroke:none;font-family:Sathu;-inkscape-font-specification:Sathu"
         x="3344.3279"
         y="1712.7328"
         id="text5052"
         sodipodi:linespacing="125%"><tspan
           sodipodi:role="line"
           x="3354.0513"
           y="1712.7328"
           id="tspan5058"
           style="font-size:101.59999847px">Dipartimento </tspan><tspan
           sodipodi:role="line"
           x="3344.3279"
           y="1839.7328"
           id="tspan5056"
           style="font-size:101.59999847px">di informatica</tspan></text>
<text
         xml:space="preserve"
         style="font-size:67.73332977px;font-style:normal;font-variant:normal;font-weight:normal;font-stretch:normal;text-align:center;line-height:125%;letter-spacing:0px;word-spacing:0px;writing-mode:lr-tb;text-anchor:middle;fill:#000000;fill-opacity:1;stroke:none;font-family:Sathu;-inkscape-font-specification:Sathu"
         x="2617.7742"
         y="3318.2637"
         id="text5066"
         sodipodi:linespacing="125%"><tspan
           sodipodi:role="line"
           id="tspan5068"
           x="2617.7742"
           y="3318.2637"
           style="font-size:101.59999847px">Fondazione Biblioteca</tspan><tspan
           sodipodi:role="line"
           x="2617.7742"
           y="3445.2637"
           id="tspan5070"
           style="font-size:101.59999847px">Capitolare</tspan></text>
</g></g></svg>