<?xml version="1.0" encoding="UTF-8" standalone="no"?>
<svg
   xmlns:ooo="http://xml.openoffice.org/svg/export"
   xmlns:dc="http://purl.org/dc/elements/1.1/"
   xmlns:cc="http://creativecommons.org/ns#"
   xmlns:rdf="http://www.w3.org/1999/02/22-rdf-syntax-ns#"
   xmlns:svg="http://www.w3.org/2000/svg"
   xmlns="http://www.w3.org/2000/svg"
   xmlns:sodipodi="http://sodipodi.sourceforge.net/DTD/sodipodi-0.dtd"
   xmlns:inkscape="http://www.inkscape.org/namespaces/inkscape"
   version="1.2"
   width="700"
   height="700"
   viewBox="1500 2028 19755.548 19755.555"
   preserveAspectRatio="xMidYMid"
   xml:space="preserve"
   id="svg3587"
   inkscape:version="0.48.5 r10040"
   sodipodi:docname="UniversitàVerona_spiraleBN.svg"
   style="fill-rule:evenodd;stroke-width:28.22200012;stroke-linejoin:round"><metadata
     id="metadata4149"><rdf:RDF><cc:Work
         rdf:about=""><dc:format>image/svg+xml</dc:format><dc:type
           rdf:resource="http://purl.org/dc/dcmitype/StillImage" /><dc:title></dc:title></cc:Work></rdf:RDF></metadata><sodipodi:namedview
     pagecolor="#ffffff"
     bordercolor="#666666"
     borderopacity="1"
     objecttolerance="10"
     gridtolerance="10"
     guidetolerance="10"
     inkscape:pageopacity="0"
     inkscape:pageshadow="2"
     inkscape:window-width="1394"
     inkscape:window-height="872"
     id="namedview4147"
     showgrid="false"
     fit-margin-top="0"
     fit-margin-left="0"
     fit-margin-right="0"
     fit-margin-bottom="0"
     inkscape:zoom="0.58781078"
     inkscape:cx="217.79032"
     inkscape:cy="342.506"
     inkscape:window-x="119"
     inkscape:window-y="24"
     inkscape:window-maximized="0"
     inkscape:current-layer="g3641" /><defs
     class="ClipPathGroup"
     id="defs3589"><clipPath
       id="presentation_clip_path"
       clipPathUnits="userSpaceOnUse"><rect
         x="1500"
         y="2028"
         width="1629"
         height="1651"
         id="rect3592" /></clipPath><clipPath
       id="presentation_clip_path_shrink"
       clipPathUnits="userSpaceOnUse"><rect
         x="1501"
         y="2029"
         width="1626"
         height="1648"
         id="rect3595" /></clipPath></defs><defs
     class="TextShapeIndex"
     id="defs3597"><g
       ooo:slide="id1"
       ooo:id-list="id3 id4 id5 id6 id7 id8 id9 id10 id11 id12 id13 id14 id15 id16 id17 id18 id19 id20 id21 id22 id23 id24 id25 id26 id27 id28 id29 id30 id31 id32 id33 id34 id35 id36 id37 id38 id39 id40 id41 id42 id43 id44 id45 id46 id47 id48 id49 id50 id51 id52 id53 id54 id55 id56 id57 id58 id59 id60 id61 id62 id63 id64 id65 id66 id67 id68 id69 id70 id71 id72 id73 id74"
       id="g3599" /></defs><defs
     class="EmbeddedBulletChars"
     id="defs3601"><g
       id="bullet-char-template(57356)"
       transform="scale(4.8828125e-4,-4.8828125e-4)"><path
         d="M 580,1141 1163,571 580,0 -4,571 580,1141 z"
         id="path3604"
         inkscape:connector-curvature="0" /></g><g
       id="bullet-char-template(57354)"
       transform="scale(4.8828125e-4,-4.8828125e-4)"><path
         d="m 8,1128 1129,0 L 1137,0 8,0 8,1128 z"
         id="path3607"
         inkscape:connector-curvature="0" /></g><g
       id="bullet-char-template(10146)"
       transform="scale(4.8828125e-4,-4.8828125e-4)"><path
         d="M 174,0 602,739 174,1481 1456,739 174,0 z m 1184,739 -1049,607 350,-607 699,0 z"
         id="path3610"
         inkscape:connector-curvature="0" /></g><g
       id="bullet-char-template(10132)"
       transform="scale(4.8828125e-4,-4.8828125e-4)"><path
         d="M 2015,739 1276,0 717,0 l 543,543 -1086,0 0,393 1086,0 -543,545 557,0 741,-742 z"
         id="path3613"
         inkscape:connector-curvature="0" /></g><g
       id="bullet-char-template(10007)"
       transform="scale(4.8828125e-4,-4.8828125e-4)"><path
         d="m 0,-2 c -7,16 -16,29 -25,39 l 381,530 c -94,256 -141,385 -141,387 0,25 13,38 40,38 9,0 21,-2 34,-5 21,4 42,12 65,25 l 27,-13 111,-251 280,301 64,-25 24,25 c 21,-10 41,-24 62,-43 C 886,937 835,863 770,784 769,783 710,716 594,584 L 774,223 c 0,-27 -21,-55 -63,-84 l 16,-20 C 717,90 699,76 672,76 641,76 570,178 457,381 L 164,-76 c -22,-34 -53,-51 -92,-51 -42,0 -63,17 -64,51 -7,9 -10,24 -10,44 0,9 1,19 2,30 z"
         id="path3616"
         inkscape:connector-curvature="0" /></g><g
       id="bullet-char-template(10004)"
       transform="scale(4.8828125e-4,-4.8828125e-4)"><path
         d="M 285,-33 C 182,-33 111,30 74,156 52,228 41,333 41,471 c 0,78 14,145 41,201 34,71 87,106 158,106 53,0 88,-31 106,-94 l 23,-176 c 8,-64 28,-97 59,-98 l 735,706 c 11,11 33,17 66,17 42,0 63,-15 63,-46 l 0,-122 c 0,-36 -10,-64 -30,-84 L 442,47 C 390,-6 338,-33 285,-33 z"
         id="path3619"
         inkscape:connector-curvature="0" /></g><g
       id="bullet-char-template(9679)"
       transform="scale(4.8828125e-4,-4.8828125e-4)"><path
         d="M 813,0 C 632,0 489,54 383,161 276,268 223,411 223,592 c 0,181 53,324 160,431 106,107 249,161 430,161 179,0 323,-54 432,-161 108,-107 162,-251 162,-431 0,-180 -54,-324 -162,-431 C 1136,54 992,0 813,0 z"
         id="path3622"
         inkscape:connector-curvature="0" /></g><g
       id="bullet-char-template(8226)"
       transform="scale(4.8828125e-4,-4.8828125e-4)"><path
         d="m 346,457 c -73,0 -137,26 -191,78 -54,51 -81,114 -81,188 0,73 27,136 81,188 54,52 118,78 191,78 73,0 134,-26 185,-79 51,-51 77,-114 77,-187 0,-75 -25,-137 -76,-188 -50,-52 -112,-78 -186,-78 z"
         id="path3625"
         inkscape:connector-curvature="0" /></g><g
       id="bullet-char-template(8211)"
       transform="scale(4.8828125e-4,-4.8828125e-4)"><path
         d="m -4,459 1139,0 0,147 -1139,0 0,-147 z"
         id="path3628"
         inkscape:connector-curvature="0" /></g><g
       id="bullet-char-template(61548)"
       transform="scale(4.8828125e-4,-4.8828125e-4)"><path
         d="m 173,740 c 0,163 58,303 173,419 116,115 255,173 419,173 163,0 302,-58 418,-173 116,-116 174,-256 174,-419 0,-163 -58,-303 -174,-418 C 1067,206 928,148 765,148 601,148 462,206 346,322 231,437 173,577 173,740 z"
         id="path3631"
         inkscape:connector-curvature="0" /></g></defs><defs
     class="TextEmbeddedBitmaps"
     id="defs3633" /><g
     id="g3637"
     transform="matrix(10,0,0,10,-13500,-15006.446)"><g
       id="g3641"
       class="Page"><path
         sodipodi:type="spiral"
         style="fill:#000000;fill-opacity:0.39075635;stroke:#000000;stroke-width:1.34750843;stroke-linecap:butt;stroke-linejoin:miter;stroke-miterlimit:4;stroke-opacity:1;stroke-dasharray:none"
         id="path5082"
         sodipodi:cx="133.22081"
         sodipodi:cy="322.92545"
         sodipodi:expansion="1"
         sodipodi:revolution="3.0282965"
         sodipodi:radius="520.53735"
         sodipodi:argument="-18.222813"
         sodipodi:t0="0.33123112"
         d="M 270.89561,426.72176 C 219.95348,522.53949 94.447665,546.91595 3.5547318,494.91374 -110.76047,429.51104 -138.94485,277.13925 -73.080974,167.38961 6.65787,34.519963 186.06678,2.518898 314.62641,82.310168 466.08602,176.31444 501.90951,382.86032 408.14958,530.20081 299.92382,700.27385 66.177575,739.92384 -99.924315,632.16771 -288.62705,509.74961 -332.10658,248.76017 -210.33495,63.910558 -73.74481,-143.43358 214.51813,-190.74495 418.10546,-54.943805 644.09969,95.80366 695.24471,411.36233 545.40355,633.67986 530.0725,656.42635 512.92373,677.94443 494.18545,697.977"
         transform="matrix(2.0944394,0,0,2.0943612,2121.5193,2078.6786)" /><g
         id="g4133"
         class="com.sun.star.drawing.ClosedBezierShape"
         transform="matrix(0.74212424,0,0,0.7420965,412.58149,816.6203)"><g
           id="id73"><rect
             style="fill:none;stroke:none"
             id="rect4136"
             height="1652"
             width="1630"
             y="2028"
             x="1500"
             class="BoundingBox" /><path
             sodipodi:nodetypes="cccc"
             style="fill:#231f20;stroke:none"
             inkscape:connector-curvature="0"
             id="path4138"
             d="m 2314,3679 c -542.6667,0 -271.3333,0 0,0 z m 0,-17 c -542.6667,11.3333 -271.3333,5.6667 0,0 z" /></g></g><g
         id="id3"
         transform="matrix(0.74212424,0,0,0.7420965,614.88259,606.78606)"><rect
           class="BoundingBox"
           x="1720"
           y="2250"
           width="1190"
           height="1205"
           id="rect3646"
           style="fill:none;stroke:none" /></g><g
         id="id4"
         transform="matrix(0.74212424,0,0,0.7420965,614.88259,606.78606)"><rect
           class="BoundingBox"
           x="1729"
           y="2568"
           width="191"
           height="193"
           id="rect3653"
           style="fill:none;stroke:none" /><path
           d="m 1792,2760 c -1,0 -1,0 -2,-1 0,0 -13,-10 -22,-12 -6,-1 -12,2 -17,5 -2,1 -4,2 -6,3 -6,1 -13,-3 -14,-3 -2,-1 -2,-3 -2,-5 1,-2 3,-2 5,-1 2,1 7,2 10,2 1,0 2,-1 4,-2 6,-3 13,-7 21,-6 11,2 25,14 26,14 1,2 1,4 0,5 -1,1 -2,1 -3,1 z m 51,-43 c -1,0 -3,-1 -3,-3 0,0 -4,-13 -13,-17 -3,-1 -8,2 -14,5 -6,4 -12,8 -18,6 -5,-2 -7,-8 -10,-14 -1,-5 -3,-11 -5,-12 -5,-2 -15,1 -21,3 -2,1 -4,0 -4,-2 -1,-2 0,-4 1,-4 2,-1 18,-8 27,-3 6,3 8,9 10,16 1,3 2,9 4,9 3,2 8,-1 13,-4 6,-4 13,-9 20,-6 12,5 16,21 16,21 1,2 0,4 -2,5 l -1,0 z m 29,-40 c -2,0 -3,-1 -4,-2 -2,-7 -9,-25 -18,-27 -5,-2 -12,1 -18,4 -7,3 -13,6 -19,3 -5,-2 -8,-9 -10,-15 -2,-6 -5,-12 -8,-14 -10,-3 -17,1 -17,1 -1,1 -4,0 -5,-1 0,-2 0,-4 2,-5 0,0 9,-5 22,-1 7,2 10,10 12,17 2,6 4,11 7,12 3,1 8,-1 13,-3 7,-4 15,-7 23,-5 13,4 22,29 23,32 1,1 0,3 -2,4 -1,0 -1,0 -1,0 z m 43,-35 c -1,0 -2,-1 -3,-2 -4,-7 -17,-26 -29,-27 -5,-1 -8,0 -12,1 -4,2 -9,3 -16,3 -10,-1 -15,-6 -25,-19 l -1,-1 c -10,-13 -13,-17 -21,-20 -7,-3 -15,-2 -15,-2 -1,1 -3,0 -4,-2 0,-2 1,-4 3,-4 0,0 9,-2 18,1 10,3 14,8 24,22 l 1,2 c 11,13 13,15 21,16 5,0 9,-1 13,-2 4,-2 9,-3 15,-2 18,2 33,29 34,30 1,2 0,4 -1,5 -1,1 -1,1 -2,1 z"
           id="path3655"
           inkscape:connector-curvature="0"
           style="fill:#231f20;stroke:none" /></g><g
         id="id5"
         transform="matrix(0.74212424,0,0,0.7420965,614.88259,606.78606)"><rect
           class="BoundingBox"
           x="1732"
           y="2430"
           width="963"
           height="1026"
           id="rect3660"
           style="fill:none;stroke:none" /><path
           d="m 2314,3454 c -2,0 -4,-2 -4,-4 l 0,-20 c 0,-5 -2,-28 -3,-36 0,-1 0,-3 0,-5 l -27,9 c 4,25 5,50 5,51 0,2 -1,4 -3,4 -2,0 -4,-1 -4,-3 0,-1 -1,-28 -6,-53 l 0,-1 c -2,-11 -5,-22 -10,-30 l 0,-1 c -2,-2 -3,-4 -5,-6 -2,-2 -5,-3 -8,-3 -3,0 -6,2 -8,5 3,2 8,6 13,14 6,12 6,67 6,73 0,2 -2,3 -4,3 -2,0 -3,-1 -3,-3 0,-24 -2,-62 -6,-69 -3,-7 -7,-11 -10,-13 -10,19 -13,60 -13,77 0,2 -1,4 -3,3 -2,0 -3,-1 -3,-3 0,-3 0,-17 1,-32 l -19,-14 c -1,5 -1,11 -1,17 0,13 -1,23 -1,24 l 0,1 c 0,1 -2,3 -4,3 -1,0 -1,-1 -2,-1 l 0,-1 c 0,0 -1,0 0,0 l -1,0 c 0,-1 0,-2 0,-2 0,0 0,-3 1,-8 0,-8 0,-21 -1,-35 l -22,9 c 1,13 0,24 0,28 0,2 -2,3 -4,3 -1,0 -3,-2 -3,-4 1,-7 1,-17 0,-29 l 0,-1 c 0,-10 -1,-19 -3,-28 0,-1 0,-1 0,-2 -2,-9 -5,-17 -9,-22 l 0,-1 c -1,0 -1,0 -1,-1 -2,-2 -5,-4 -8,-4 -4,0 -7,0 -10,2 3,1 6,4 8,8 4,7 7,69 3,73 l -3,-2 -3,0 c 0,-12 1,-59 -3,-68 -2,-5 -6,-6 -7,-6 -6,6 -9,17 -11,28 l 0,1 c -3,17 -2,34 -2,34 0,2 -2,4 -4,4 -1,0 -3,-1 -3,-3 0,-2 -1,-17 2,-35 l -15,-9 c 0,6 -1,10 -1,11 -1,11 -2,24 -2,24 l -6,-1 c 0,0 0,-12 1,-23 0,-1 0,-1 0,-1 0,-5 1,-11 1,-13 0,-1 0,-1 0,-1 l -15,-1 c 1,16 0,30 0,31 0,2 -2,3 -4,3 -2,0 -3,-1 -3,-3 0,-1 3,-37 -6,-62 l -1,0 c 0,-1 0,-1 0,-1 -2,-6 -5,-11 -8,-14 l 0,-1 c -1,0 -1,0 -1,0 -3,-3 -6,-5 -10,-6 4,6 8,15 11,31 2,17 0,41 0,42 -1,2 -2,4 -4,3 -2,0 -3,-2 -3,-4 0,0 2,-23 0,-40 -3,-19 -9,-28 -12,-31 -1,1 -2,1 -2,2 -11,9 -10,42 -9,53 0,2 -1,4 -3,4 -2,0 -3,-1 -4,-3 0,-1 -2,-23 2,-41 l -13,-13 c -4,20 -3,40 -3,41 0,1 -1,3 -3,3 -1,0 -2,0 -3,-1 -1,-1 -3,-2 -3,-4 0,0 1,-24 -3,-50 l -14,3 c 1,15 1,28 1,31 0,2 -2,4 -4,4 -2,0 -3,-2 -3,-4 1,-17 -1,-64 -19,-70 -2,-1 -5,-1 -7,-1 l -1,0 -1,1 c 5,3 11,9 12,21 1,7 0,31 0,32 0,2 -2,3 -4,3 -2,0 -3,-2 -3,-4 0,-7 1,-25 1,-31 -2,-11 -9,-15 -12,-16 0,1 0,1 -1,1 -5,8 -7,20 -7,24 -1,2 -2,4 -4,3 -2,0 -3,-1 -3,-3 0,-1 1,-15 7,-25 l -13,-14 c -4,12 -3,24 -3,24 0,2 -1,3 -3,4 -2,-1 -4,-2 -4,-4 0,0 0,-2 0,-4 -1,1 -2,1 -3,1 -2,0 -4,-1 -3,-3 l 2,-64 c -3,-3 -9,-12 -6,-24 1,-7 3,-12 6,-14 l 0,-45 c -5,-3 -13,-9 -14,-28 -1,-14 6,-22 9,-24 l -9,-101 0,-1 c 0,-1 0,-2 1,-2 3,-5 12,-13 27,-23 l 0,-135 -49,30 0,387 c 0,2 -1,4 -3,4 -2,0 -4,-2 -4,-4 l 0,-132 -13,4 c -1,1 -2,0 -3,0 -1,-1 -2,-2 -2,-3 l 0,-140 c 0,-1 2,-3 4,-3 l 14,0 0,-17 -25,0 -2,244 c -1,2 -2,4 -4,4 -2,0 -3,-2 -3,-4 l 2,-248 c 0,-2 2,-3 3,-3 l 29,0 0,-29 -53,0 -10,219 c 0,2 -1,4 -3,4 -2,0 -4,-2 -4,-4 l 11,-223 c 0,-1 1,-3 3,-3 l 56,0 0,-17 -88,0 -1,186 c 0,2 -1,3 -3,3 -2,0 -3,-1 -3,-3 l 0,-188 -28,-41 c 0,-1 -1,-2 0,-3 l 0,-1 58,-79 c 0,-1 1,-2 2,-2 l 1,0 118,-61 0,-141 -16,0 c -1,0 -2,-1 -3,-2 0,-2 0,-3 1,-4 l 64,-72 c 0,0 1,0 1,-1 l 85,-42 c 1,-1 3,0 4,1 l 54,51 c 1,1 1,2 1,3 l 0,61 0,23 0,22 439,-23 c 1,0 2,1 3,2 1,1 0,3 0,4 l -63,74 c 0,0 -1,1 -2,1 l -490,31 1,41 c 9,-10 22,-18 43,-18 18,0 31,6 41,16 5,6 8,13 10,19 5,-20 15,-46 39,-57 8,-4 16,-6 26,-6 39,0 56,35 63,66 1,-5 3,-11 4,-17 0,-1 1,-1 1,-2 4,-11 9,-22 17,-32 0,0 0,-1 1,-1 11,-13 26,-21 47,-22 19,0 34,6 45,18 7,8 12,17 15,27 2,-6 5,-13 9,-21 0,0 0,-1 1,-1 4,-9 11,-17 20,-23 l 0,-1 1,0 c 7,-4 15,-7 25,-7 18,0 33,6 43,18 6,6 10,14 13,21 4,-18 15,-48 43,-49 12,0 22,4 30,12 23,24 25,75 25,88 6,0 10,0 19,3 4,2 7,5 9,7 2,2 3,3 4,4 4,2 8,2 9,2 2,0 3,2 3,4 0,1 -1,3 -3,3 -1,0 -8,0 -13,-3 -1,-2 -3,-3 -4,-5 -3,-2 -5,-4 -8,-5 -10,-4 -11,-3 -21,-3 -12,-1 -18,-2 -29,-13 l -3,-4 c -6,-6 -14,-15 -21,-15 -11,0 -16,8 -18,10 0,5 0,10 0,15 -1,11 -1,19 0,22 10,1 16,8 23,17 l 1,1 c 7,9 11,9 15,8 2,0 9,-5 13,-9 2,-1 4,-1 5,1 1,1 1,3 0,4 -2,2 -12,10 -17,11 -8,1 -14,-2 -21,-11 l -1,0 c -7,-9 -12,-15 -20,-15 -12,1 -15,3 -19,7 -2,2 -6,4 -11,5 -9,2 -17,-5 -24,-12 -2,-2 -4,-5 -7,-6 -6,-5 -16,3 -16,3 -2,2 -4,2 -5,0 -1,-1 -1,-3 0,-5 0,0 10,-8 18,-7 1,-6 1,-22 -2,-39 -2,-1 -3,-2 -4,-2 0,0 -1,1 -2,2 -3,1 -6,3 -10,3 -6,-1 -8,-3 -10,-5 -1,-1 -2,-2 -4,-3 -3,-2 -5,-2 -7,-2 -1,4 -1,6 -1,7 l 0,3 0,24 0,1 -1,0 0,34 c 2,3 5,7 7,10 4,7 8,14 15,16 13,5 19,-5 19,-6 1,-2 3,-2 5,-1 2,1 2,3 1,4 -3,6 -12,15 -27,10 -9,-4 -15,-12 -19,-19 -2,-4 -4,-7 -7,-10 l -1,0 c -2,-3 -5,-4 -8,-5 -10,-2 -16,1 -23,5 -4,2 -9,5 -16,5 -10,1 -18,-7 -24,-13 -1,-2 -3,-3 -4,-4 -2,-1 -4,0 -4,0 -2,0 -4,-1 -4,-3 -1,-2 0,-4 2,-4 1,0 4,-1 9,1 2,1 4,2 6,5 1,1 2,2 3,3 0,-15 -2,-58 -18,-74 -4,-4 -8,-5 -13,-5 -4,0 -7,1 -9,2 -1,0 -1,0 -1,0 -2,2 -4,3 -5,5 -1,1 -2,2 -3,3 -3,6 -6,13 -8,21 l 0,1 c -4,24 -2,53 -1,59 2,2 3,5 5,7 4,6 6,9 10,9 11,0 13,-15 13,-15 0,-2 2,-3 4,-3 1,1 3,2 2,4 -1,7 -6,21 -19,21 -8,0 -12,-6 -16,-12 -1,-2 -3,-5 -5,-7 -3,-3 -6,-5 -11,-5 -13,0 -16,6 -20,13 -3,6 -8,13 -19,13 -5,0 -8,-2 -10,-4 -1,-2 -2,-3 -5,-5 -6,-2 -12,1 -12,2 -2,1 -4,0 -5,-2 -1,-1 -1,-3 1,-4 0,0 7,-5 15,-3 0,-11 -2,-47 -6,-59 -6,-14 -11,-21 -20,-24 -4,-2 -8,-1 -10,-1 -2,1 -3,2 -5,4 -2,2 -4,5 -5,8 l -1,1 c -3,7 -5,16 -7,25 l 0,1 c -4,27 -1,57 -1,57 0,1 0,1 0,1 6,3 10,7 13,11 3,3 5,5 7,6 9,1 12,0 14,-1 1,-1 1,-2 1,-2 0,-2 2,-3 4,-3 1,0 3,1 3,3 0,0 0,4 -4,7 -4,3 -10,4 -19,2 -5,-1 -8,-4 -11,-8 -4,-5 -9,-10 -19,-10 l -1,0 c -6,0 -11,4 -17,9 -5,5 -12,10 -21,12 -15,4 -25,-7 -30,-13 -1,-1 -2,-2 -2,-3 -3,0 -4,0 -5,0 0,2 -2,4 -4,4 -2,0 -3,-1 -3,-3 0,-1 0,-4 3,-6 2,-2 6,-3 11,-1 1,0 2,1 3,2 0,-12 2,-42 2,-48 0,-6 -2,-16 -9,-22 -5,-4 -8,-5 -9,-5 -5,4 -8,11 -10,18 l 0,1 c -4,14 -3,29 -3,29 l -2,81 c 0,1 0,1 0,1 l -1,23 c 65,-30 152,-58 248,-66 207,-16 337,97 339,98 1,1 1,3 0,5 -1,1 -3,1 -5,0 -1,-1 -130,-112 -334,-96 -98,8 -185,37 -249,66 -1,1 -2,2 -3,2 -8,4 -17,8 -25,12 0,1 -1,1 -2,1 -7,4 -14,8 -21,11 0,1 -1,1 -2,1 -6,4 -12,7 -17,11 0,0 -1,1 -2,1 -5,3 -10,6 -15,9 0,1 -1,1 -2,2 -14,10 -23,17 -25,20 7,17 142,122 354,122 2,0 4,0 5,0 217,-1 310,-89 311,-90 l -1,-22 c -25,17 -137,87 -300,87 -181,-1 -314,-74 -332,-93 -2,-1 -3,-3 -3,-5 1,-13 181,-104 353,-112 165,-7 282,75 299,87 11,-9 29,-19 52,-19 53,-1 65,23 65,32 0,1 1,3 -5,9 -10,11 -35,29 -63,29 -32,0 -52,-13 -59,-19 l 10,238 5,136 0,1 2,30 c 0,2 -2,4 -4,4 -2,0 -3,-2 -3,-3 l -1,-27 -13,5 c 4,13 6,24 7,27 0,2 -1,4 -3,4 -1,1 -3,-1 -4,-2 -1,-7 -4,-19 -7,-30 l 0,-1 c -3,-7 -5,-15 -8,-21 0,-1 0,-1 0,-1 -4,-9 -8,-17 -12,-21 l 0,-1 c -1,0 -2,-1 -2,-1 -1,-1 -2,-1 -3,-1 l 1,3 c 3,5 4,8 8,18 8,20 10,62 11,64 0,2 -2,3 -4,3 -2,0 -3,-1 -3,-3 0,0 -3,-42 -10,-62 -4,-10 -5,-12 -8,-17 l -1,-2 c 0,1 0,2 -1,3 l 0,1 c -5,12 -5,36 -2,59 l 0,1 c 1,9 2,18 3,26 1,2 0,4 -2,4 -2,1 -4,-1 -4,-2 -1,-3 -2,-12 -4,-24 l -23,8 c 3,12 4,22 4,25 0,2 -1,3 -3,4 -2,0 -4,-2 -4,-3 -1,-9 -2,-18 -4,-27 0,-1 0,-1 0,-1 -3,-13 -7,-27 -11,-37 -1,0 -1,0 -1,0 -4,-9 -10,-16 -16,-16 l -1,0 c 3,2 6,5 9,9 11,16 14,74 14,76 0,2 -1,4 -3,4 -2,0 -3,-2 -3,-4 -1,-16 -5,-60 -13,-72 -5,-6 -8,-8 -10,-8 0,0 -1,1 -1,2 0,1 -1,1 -1,1 -8,20 -5,67 -3,85 0,2 -1,4 -3,4 -2,0 -4,-1 -4,-3 0,-4 -3,-29 -2,-53 l -15,-3 c 1,10 3,22 3,33 l 1,0 0,1 c 1,12 1,23 2,25 0,2 -2,4 -3,4 -2,0 -4,-1 -4,-3 -1,-7 -1,-15 -2,-22 l -21,3 c 1,11 1,20 1,23 0,2 -2,3 -3,3 -2,0 -4,-1 -4,-3 0,-24 -5,-87 -29,-87 l -1,0 c -2,0 -4,0 -5,2 5,3 13,10 16,24 4,14 3,62 3,64 0,2 -2,3 -4,3 -2,0 -3,-1 -3,-3 0,-1 1,-49 -2,-62 -4,-13 -11,-19 -15,-21 -1,0 -1,1 -2,2 l 0,1 c -4,8 -6,19 -8,31 l 0,1 c -1,9 -1,18 -1,25 l 0,1 c -1,14 0,23 0,24 0,2 -1,3 -3,3 -2,0 -4,-1 -4,-3 0,-1 0,-9 0,-21 -5,0 -11,0 -15,0 0,1 0,1 0,1 l 0,20 c 0,2 -1,4 -3,4 z m 3,-32 c 4,0 9,0 15,0 0,-6 0,-13 1,-21 l -16,-5 0,26 z m 74,-30 c 2,8 3,16 4,23 l 21,-3 c 0,-9 -1,-17 -2,-25 l 0,-1 -23,6 z m -190,-3 19,14 c 2,-14 5,-28 10,-38 l -14,-18 c -8,9 -13,24 -15,42 z m -35,-15 c 1,7 2,15 3,22 l 21,-8 c -1,-8 -2,-15 -4,-23 l -20,9 z m 151,15 17,5 c 1,-10 4,-19 7,-27 l -19,-15 c -6,13 -5,27 -5,28 l 0,9 z m -48,-25 c 4,8 7,17 9,28 l 27,-9 c -3,-17 -10,-30 -20,-39 l -16,20 z m 211,-5 c 4,10 7,21 10,32 l 24,-8 c -1,-10 -2,-21 -2,-31 l -16,-7 -16,14 z m -97,8 c 3,5 5,12 7,19 l 23,-7 c 0,-8 -1,-13 -1,-14 -2,-7 -5,-15 -11,-22 l -18,24 z m 37,7 15,3 c 1,-10 3,-19 5,-26 l -16,-13 c -3,11 -4,24 -4,36 z m -255,-56 c 2,2 5,4 7,6 13,13 20,34 24,53 3,-16 9,-29 17,-38 1,0 1,0 1,0 0,-1 1,-2 2,-3 3,-3 7,-5 11,-7 -20,-2 -41,-6 -62,-11 z m 114,14 c 15,7 26,21 31,41 1,-11 5,-34 27,-45 -15,1 -31,3 -48,3 -3,1 -6,1 -10,1 z m -186,30 16,10 c 2,-8 5,-17 9,-23 l -15,-18 c -6,9 -9,21 -10,31 z m 63,-16 c 4,5 7,13 9,21 l 19,-8 c -3,-11 -8,-21 -15,-28 l -13,15 z m 170,0 18,15 c 1,-1 2,-2 2,-3 l 1,0 c 0,-1 0,-1 0,-1 3,-3 6,-5 9,-6 l -2,-22 c -14,3 -22,9 -28,17 z m 37,5 c 6,0 12,4 16,10 l 16,-23 c -7,-7 -18,-11 -34,-10 l 2,23 z m -293,7 16,1 c 0,-9 -1,-19 -4,-30 l -17,6 c 2,7 4,15 5,23 z m 484,-16 c 3,6 5,11 6,17 l 14,-5 0,-15 c 0,0 -1,-4 -3,-9 l -17,12 z m -333,-1 13,17 c 4,-5 9,-9 15,-9 5,0 9,2 13,5 1,1 2,3 3,4 l 15,-18 c -7,-4 -16,-7 -26,-8 -13,-2 -25,2 -33,9 z m 239,-5 c 6,2 12,8 17,16 l 15,-12 c -3,-6 -14,-30 -32,-32 l 0,28 z m -57,-1 c 5,6 9,11 11,17 2,-17 8,-31 18,-41 -16,4 -35,8 -54,11 10,2 18,7 25,13 z m 96,4 13,6 c 1,-8 2,-14 4,-20 l -13,-9 c -3,10 -4,20 -4,23 z m -72,-8 16,13 c 1,-1 1,-1 2,-2 l 0,-1 1,0 c 2,-3 4,-4 7,-5 l 0,-28 c -13,3 -21,11 -26,23 z m -320,-5 15,17 1,0 c 5,-5 11,-8 18,-7 4,0 8,2 11,5 l 12,-15 c -10,-9 -23,-12 -39,-10 -8,1 -14,4 -18,10 z m -19,-2 c 1,5 2,11 3,16 6,-18 18,-29 33,-31 2,0 3,0 5,0 -21,-6 -42,-13 -62,-20 10,10 17,22 20,34 0,0 0,1 1,1 z m 453,-7 c 4,5 8,11 11,19 l 16,-13 c -3,-8 -9,-19 -15,-27 l -12,21 z m -486,-2 c 3,4 6,8 8,13 l 17,-6 c -3,-8 -7,-16 -13,-23 l -12,16 z m 411,-13 c 13,4 22,16 27,25 2,-11 6,-28 15,-40 -12,5 -27,10 -42,15 z m -564,-93 c 12,6 229,123 387,116 176,-9 269,-68 281,-76 l -1,-24 c -4,3 -11,6 -21,11 0,0 -1,0 -1,1 -4,1 -8,3 -13,5 0,1 -1,1 -2,1 -9,4 -19,8 -31,13 0,0 -1,0 -2,1 -9,3 -18,6 -27,9 0,0 -1,1 -2,1 -5,1 -10,3 -16,5 0,0 -1,0 -2,0 -9,3 -17,5 -26,7 -1,1 -1,1 -1,1 -1,0 -1,0 -2,0 -13,3 -27,6 -41,9 -1,0 -1,0 -2,0 -6,1 -12,2 -18,3 0,1 0,1 -1,1 -9,1 -19,2 -29,4 l -1,0 c -19,2 -37,3 -57,3 -20,1 -39,0 -58,-2 l -1,0 c -18,-1 -36,-4 -54,-7 l -1,0 -1,-1 c -6,-1 -13,-2 -20,-4 l -1,0 -1,0 c -8,-2 -16,-4 -23,-6 -1,0 -2,0 -3,-1 -17,-5 -33,-10 -49,-15 -1,0 -2,-1 -2,-1 -7,-3 -13,-5 -19,-7 l -1,0 c 0,-1 -1,-1 -1,-1 -7,-3 -14,-6 -21,-9 -1,0 -1,0 -2,-1 -64,-28 -107,-57 -116,-64 -1,1 -2,4 -3,9 -1,10 4,17 5,19 z m 101,98 13,14 c 2,-5 4,-9 7,-12 1,0 1,0 1,0 l -11,-22 c -5,5 -8,12 -10,20 z m 502,2 14,10 c 1,-2 2,-4 4,-5 l 1,-1 c 1,0 2,-1 3,-1 3,-1 6,-1 9,1 l 12,-23 c -3,-2 -5,-4 -8,-6 -5,-2 -11,-2 -16,0 -10,3 -16,14 -19,25 z m 50,-22 c 7,9 14,20 18,30 l -3,-60 c -6,4 -17,11 -35,19 3,0 6,1 8,2 4,2 8,5 11,9 l 1,0 z m -582,-36 c 13,16 19,41 21,62 1,-2 1,-4 2,-6 l 0,-1 c 3,-11 8,-21 15,-27 0,-1 1,-1 1,-1 l 0,-1 c 4,-2 8,-4 12,-4 -19,-8 -36,-15 -51,-22 z m 62,54 c 1,0 2,0 4,0 4,1 8,3 11,6 l 12,-17 c -5,-5 -12,-9 -20,-12 -10,-4 -18,-4 -24,0 l 12,24 c 2,-1 3,-1 5,-1 z m -73,-33 c 5,8 7,18 9,28 l 14,-3 c -3,-14 -7,-28 -15,-38 l -8,13 z m 289,22 c 4,0 9,0 14,0 0,-23 -4,-74 -28,-75 -2,0 -5,1 -7,3 5,3 14,11 17,23 2,11 4,37 4,49 z m -14,-81 1,0 c 32,1 34,65 34,81 l 2,0 c 18,-1 36,-2 53,-4 -2,-13 -7,-58 6,-75 3,-4 7,-6 11,-7 7,-1 13,1 19,6 17,15 20,55 20,68 12,-3 25,-5 36,-8 -3,-14 -14,-60 -2,-79 4,-5 8,-8 14,-9 6,-1 12,1 17,5 17,14 23,54 25,67 8,-2 15,-5 22,-7 -2,-11 -6,-48 0,-71 0,0 0,-1 1,-1 1,-5 3,-9 6,-12 3,-4 8,-7 14,-7 10,0 23,7 30,38 2,12 3,23 3,30 10,-5 17,-9 20,-10 l -5,-119 c -19,10 -153,80 -328,89 -148,8 -320,-92 -340,-105 -2,3 -7,8 -6,19 0,19 11,22 11,22 2,1 3,2 3,3 l 0,48 c 3,3 11,9 24,17 1,-9 4,-25 13,-33 5,-3 10,-4 17,-2 24,6 25,55 25,65 10,5 21,10 32,15 0,-12 2,-41 14,-50 4,-3 9,-4 13,-3 24,7 24,59 24,74 14,5 28,9 44,14 -1,-14 -2,-46 9,-60 l 0,-1 c 1,0 1,0 1,0 0,-1 1,-1 1,-2 4,-3 9,-4 14,-4 32,6 30,65 29,79 16,3 32,6 48,7 0,-14 -2,-58 13,-73 3,-4 7,-5 12,-5 z m -18,79 c 8,0 17,1 25,1 0,-8 -1,-32 -4,-47 -2,-10 -10,-16 -14,-18 -8,15 -8,48 -7,64 z m 118,-71 c -8,15 -6,51 -3,68 8,-1 16,-2 24,-3 -1,-9 -2,-33 -4,-43 -4,-14 -13,-20 -17,-22 z m 5,-5 c 6,3 15,10 18,26 3,9 4,34 4,43 5,-1 9,-1 13,-2 -1,-11 -4,-50 -19,-64 -4,-3 -8,-4 -13,-4 -1,0 -2,1 -3,1 z m -199,64 c 5,1 10,2 15,3 1,-15 2,-66 -24,-71 -3,0 -5,0 -7,2 5,5 14,16 17,32 2,15 0,28 -1,34 z m -26,-7 c 6,2 13,4 19,6 1,-6 3,-18 1,-32 -2,-13 -10,-23 -14,-28 -7,13 -7,41 -6,54 z m 305,-71 c -8,16 -1,53 4,70 8,-2 15,-4 22,-6 -1,-16 -6,-51 -15,-59 -6,-6 -9,-6 -10,-6 l -1,1 z m -518,15 -2,52 c 1,-10 5,-22 14,-30 5,-3 10,-5 16,-6 1,0 1,0 1,0 1,0 2,0 3,0 -15,-7 -26,-13 -32,-16 z m 10,36 14,14 c 2,-2 3,-3 5,-4 1,-1 1,-1 2,-2 l -5,-20 c -3,0 -7,2 -10,4 -2,2 -5,5 -6,8 z m 28,7 c 3,0 5,0 8,1 3,1 5,3 7,5 l 9,-13 c -4,-4 -8,-7 -13,-9 -6,-2 -11,-3 -16,-4 l 5,20 z m 485,-65 c 3,1 6,3 11,7 11,11 16,48 17,62 4,-1 8,-2 11,-3 -1,-12 -7,-51 -23,-64 -3,-3 -7,-4 -11,-4 -2,0 -4,1 -5,2 z m -382,55 c 5,2 9,3 14,5 0,-20 -2,-60 -18,-64 -2,-1 -3,-1 -4,-1 3,5 8,15 9,24 2,14 0,29 -1,36 z m 456,-67 c -4,19 -2,49 0,65 10,-4 19,-7 27,-11 -1,-13 -5,-42 -12,-49 -6,-7 -12,-6 -15,-5 z m -479,57 c 5,3 11,5 16,7 1,-7 3,-20 2,-32 -1,-8 -6,-16 -9,-21 -7,10 -9,34 -9,46 z m 483,-64 c 5,0 11,1 16,7 9,10 13,39 14,51 3,-1 5,-2 8,-3 -1,-20 -6,-64 -27,-64 -4,0 -7,2 -9,5 -1,1 -2,2 -3,4 l 1,0 z m -539,37 c 3,2 7,4 10,6 0,-17 -4,-47 -17,-54 2,5 5,12 7,19 2,13 1,24 0,29 z m -31,-17 c 7,4 15,9 25,14 0,-6 1,-15 -1,-25 -2,-9 -7,-18 -9,-22 -2,0 -3,1 -4,2 -8,6 -11,23 -11,31 z m -36,-119 c 18,11 189,113 336,105 187,-10 326,-89 328,-90 l 0,-1 -3,-74 c -20,17 -116,87 -311,88 -2,0 -3,0 -5,0 -217,0 -337,-102 -353,-117 l 8,89 z m -55,-111 0,131 11,-3 0,-128 -11,0 z m 180,57 c 58,22 139,43 235,43 106,0 191,-30 243,-56 -20,-12 -101,-57 -216,-57 -161,0 -244,57 -262,70 z m -92,-48 c 5,7 36,26 85,45 8,-7 93,-74 269,-74 125,0 210,52 223,61 28,-14 45,-26 50,-29 l -1,-5 0,-1 1,-1 c 1,-3 5,-9 12,-16 -20,-14 -134,-92 -294,-85 -160,7 -330,91 -345,105 z m 634,-3 c 3,5 23,22 59,22 31,0 59,-26 61,-31 0,-3 -7,-26 -58,-25 -38,0 -59,27 -62,34 z m -649,-419 1,393 c 3,-2 6,-4 10,-6 l 0,-323 c 0,-2 1,-46 31,-46 7,0 12,2 17,7 12,13 11,38 11,39 l 2,57 7,-1 1,-117 -80,-3 z m 42,25 c -23,0 -24,38 -24,39 l 0,319 c 4,-3 8,-5 12,-8 l 6,-305 c 0,-1 0,-21 5,-32 2,-6 6,-11 7,-12 -2,-1 -4,-1 -6,-1 z m 12,5 c -1,0 -4,5 -7,11 -4,10 -5,29 -5,29 l -5,301 c 5,-2 11,-5 16,-8 l 1,-40 0,-1 0,-104 c 0,0 1,-10 5,-23 l 0,-1 c 2,-5 4,-10 7,-16 l -1,-53 -2,-61 c 0,0 1,-23 -9,-34 z m 6,296 0,33 c 7,-3 14,-7 21,-10 l 1,-23 -22,0 z m -212,-4 90,0 0,-27 -113,-7 23,34 z m 212,-3 22,0 1,-31 -22,0 -1,31 z m -236,-38 110,6 -59,-76 -51,70 z m 57,-75 62,81 51,-32 0,-107 -113,58 z m 245,68 c 3,4 8,7 13,8 l 0,-16 0,-42 c 0,-1 0,-8 -3,-15 0,-1 0,-1 -1,-2 -3,-8 -9,-17 -21,-17 1,1 2,2 3,2 10,9 12,21 12,28 0,7 -2,51 -3,53 l 0,1 z m -65,7 22,0 1,-34 -23,1 0,33 z m 85,-12 0,12 c 7,-2 13,-6 18,-10 0,-1 1,-1 2,-2 0,0 0,-1 -1,-1 l 0,-3 -19,4 z m 26,-8 0,3 c 4,-2 8,-4 13,-4 2,0 3,0 5,0 0,-3 -1,-12 -1,-23 l -18,-1 1,24 0,1 z m -26,-26 0,27 19,-4 -1,-23 -18,0 z m 113,17 c 2,1 3,3 4,4 2,2 3,2 5,2 1,0 2,0 3,0 1,-8 1,-39 -7,-63 -3,-9 -6,-17 -12,-23 -4,-4 -9,-7 -14,-9 -2,-1 -3,-1 -5,-1 9,5 14,13 19,25 6,15 7,62 7,65 z m 18,-33 c 1,14 1,26 1,34 1,-1 2,-3 3,-5 3,-5 6,-10 13,-14 0,-2 0,-10 -1,-19 l -16,4 z m -213,-18 c -3,9 -3,16 -3,17 l 0,23 23,-1 c 0,-4 0,-16 3,-28 l -23,-11 z m 325,33 c 3,2 6,3 9,3 3,-1 6,-2 9,-3 0,-10 0,-60 -20,-82 -4,-3 -7,-6 -11,-7 -1,0 -1,0 -1,-1 -3,-1 -7,-2 -11,-2 -2,0 -3,1 -5,1 4,1 7,3 10,6 21,22 20,81 20,85 z m -82,-2 c 3,0 7,1 9,2 0,-5 0,-14 0,-23 l -17,0 c 1,10 2,17 2,22 2,-1 3,-1 6,-1 z m 210,-3 c 3,2 6,3 9,2 4,0 5,-2 8,-4 1,-1 3,-2 5,-3 0,-3 1,-9 1,-17 l -24,0 c 1,10 1,19 1,22 z m -347,0 19,1 c 0,-7 1,-16 2,-24 l -20,-4 c -1,7 -2,12 -2,12 l 0,1 1,14 z m 243,-22 c 1,10 1,18 1,23 4,-2 7,-4 12,-4 0,-3 1,-11 0,-20 l -13,1 z m 20,18 c 2,1 3,1 5,1 3,1 5,1 7,3 l 1,-26 -13,-1 c 1,11 0,19 0,23 z m -287,3 17,0 -1,-19 c 0,0 1,-4 0,-10 l -19,10 c 2,5 3,10 3,14 l 0,5 z m 354,-14 1,0 c 2,2 4,4 6,6 1,1 2,2 3,3 -1,-17 -2,-41 -3,-48 -3,-12 -10,-33 -27,-33 l -1,0 c 7,4 15,11 18,25 0,1 0,2 0,2 0,1 0,1 0,1 5,20 3,41 3,44 z m 47,-14 c 0,9 -1,16 -1,21 2,-1 4,-1 6,-1 0,-4 -1,-11 0,-20 l -5,0 z m -275,-5 c 1,6 3,12 4,17 l 16,-4 c -1,-6 -3,-13 -4,-20 l -16,7 z m -206,-1 23,12 c 2,-8 6,-14 12,-19 l -11,-23 c -8,4 -13,10 -17,16 0,1 -1,1 -1,2 -3,4 -4,8 -6,12 z m 234,10 16,0 c 0,-7 1,-15 2,-22 l -13,-6 c -3,11 -5,21 -5,28 z m -171,-16 c 5,3 9,9 12,14 l 20,-10 c -1,-7 -4,-14 -10,-20 -3,-4 -6,-6 -10,-8 l -12,24 z m 279,-8 c 2,7 3,14 4,21 l 14,-2 c -1,-7 -2,-15 -3,-23 l -15,4 z m 108,20 24,0 c -1,-9 -1,-19 -3,-29 l -23,6 c 1,5 1,14 2,23 z m -344,-5 20,4 c 1,-8 3,-16 6,-22 l -17,-13 c -5,11 -8,22 -9,31 z m 442,-2 c 5,3 9,3 15,4 0,-5 -1,-13 -2,-23 l -14,0 c 1,9 1,16 1,19 z m -181,2 13,1 0,-19 -17,-2 c 2,6 3,13 4,20 z m 113,-2 6,0 c 0,-5 0,-11 1,-18 l -9,0 c 1,6 2,13 2,18 z m -283,-18 c 2,4 5,9 7,14 l 16,-8 c -3,-7 -5,-14 -9,-20 l -14,14 z m 332,-1 c 3,3 5,6 8,9 l 3,3 c 0,0 1,1 2,2 -1,-5 -1,-11 -2,-17 -1,-7 -3,-15 -6,-21 l 0,-1 c -1,-3 -3,-6 -6,-8 -2,-2 -5,-4 -7,-5 -2,0 -4,0 -6,0 5,3 10,7 12,13 3,10 2,21 2,25 z m -481,9 c 3,0 7,1 9,2 l 11,-24 c -5,-2 -11,-3 -18,-3 -8,0 -14,1 -20,3 l 11,23 c 1,0 3,-1 6,-1 l 1,0 z m 193,-13 13,5 c 1,-6 4,-13 7,-18 l -8,-11 c -5,7 -9,15 -12,24 z m 93,-10 c 2,4 4,8 6,13 l 15,-4 c -2,-6 -4,-13 -7,-18 l -14,9 z m 165,-12 c -3,6 -4,14 -5,23 4,-3 9,-6 17,-6 4,0 8,2 11,4 0,-5 0,-12 -2,-18 -2,-7 -11,-11 -14,-12 -3,2 -5,5 -7,9 z m -380,10 17,13 c 1,-3 2,-5 4,-7 2,-1 3,-3 5,-4 l -6,-23 c -9,5 -15,13 -20,21 z m 245,10 16,2 c 1,-3 2,-8 4,-13 l -12,-11 c -4,8 -6,16 -8,22 z m 77,-14 c 2,5 4,10 6,16 l 22,-6 c -2,-9 -5,-18 -9,-25 l -19,15 z m -264,4 c 6,2 10,5 14,10 1,0 1,1 2,1 l 15,-15 c -6,-8 -12,-14 -20,-19 l -11,23 z m 300,10 11,0 c 0,-6 1,-13 3,-20 l -12,-7 c -2,9 -3,17 -4,19 1,3 2,5 2,8 z m -86,-10 c 2,0 5,1 8,3 2,1 4,3 5,4 1,2 2,3 6,3 1,0 2,0 4,-2 1,-1 4,-2 6,-2 1,-1 2,-1 3,0 -7,-17 -19,-18 -23,-18 -4,3 -7,7 -9,11 0,1 0,1 0,1 z m 155,9 14,0 c -1,-8 -3,-16 -5,-24 l -13,7 c 2,5 3,11 4,17 z m -401,-33 6,22 c 6,-2 14,-2 20,0 l 11,-23 c -5,-2 -10,-3 -16,-3 -8,0 -15,2 -21,4 z m 171,6 c 3,2 6,4 9,7 2,2 4,4 5,7 l 14,-9 c -1,-3 -3,-5 -5,-7 -5,-5 -11,-9 -17,-12 l -6,14 z m -58,0 7,11 c 2,-2 4,-4 7,-6 1,0 3,-2 6,-4 l -1,-15 c -8,4 -14,8 -19,14 z m 117,0 12,11 c 3,-5 6,-8 11,-11 0,-1 1,-1 1,-1 l -9,-17 c -6,5 -11,11 -15,18 z m 54,0 c 3,2 6,5 8,8 l 19,-15 c -1,-1 -2,-2 -3,-3 -4,-4 -8,-8 -12,-10 l -12,20 z m 97,-9 c 2,1 5,3 7,5 2,2 4,5 6,8 l 13,-8 c -3,-8 -7,-16 -13,-22 -2,-2 -4,-3 -6,-4 l -7,21 z m -44,3 12,8 c 2,-3 3,-5 6,-7 l -10,-17 c -3,5 -6,11 -8,16 z m -198,-10 1,14 c 4,-1 8,-2 13,-2 4,0 8,0 11,1 l 6,-13 c -5,-2 -10,-2 -16,-2 -6,0 -11,1 -15,2 z m 130,12 c 4,0 6,0 9,1 l 11,-20 c -5,-2 -11,-3 -19,-3 -7,0 -14,2 -19,5 l 10,18 c 2,-1 5,-1 8,-1 z m 81,-24 10,19 c 3,-1 6,-2 9,-2 2,0 4,0 5,0 l 8,-23 c -4,-1 -8,-2 -12,-2 -8,1 -15,4 -20,8 z m -378,-66 -90,73 467,-29 56,-66 -433,22 z m -97,53 0,17 92,-75 0,-17 -92,75 z m 0,-22 0,13 92,-75 0,-12 -92,74 z m 1,-73 -1,64 18,-14 c -1,-9 -3,-45 10,-53 3,-2 6,-2 8,0 7,4 10,20 11,29 l 7,-5 c -1,-11 -3,-49 12,-55 3,-1 6,0 8,1 6,4 8,20 9,29 l 9,-7 0,-54 -86,64 -1,1 -1,0 -3,0 z m 31,3 0,1 c -7,3 -9,24 -8,41 l 17,-13 c -1,-13 -5,-26 -8,-28 0,-1 0,-1 -1,-1 z m 37,-31 -1,1 c -7,3 -9,24 -8,43 l 16,-13 c 0,-12 -2,-28 -6,-30 0,-1 0,-1 -1,-1 z m -71,20 -42,-67 -56,63 10,0 c 1,0 1,0 1,0 l 86,4 1,0 z m -37,-71 44,69 85,-62 -49,-47 -80,40 z m 277,687 c -5,0 -17,0 -18,0 -2,0 -3,-2 -3,-4 l 0,-5 0,-12 0,-14 c 0,-2 1,-4 3,-4 0,0 14,0 18,0 4,1 18,1 18,1 2,0 3,1 3,3 l 3,30 c 0,1 0,2 0,3 -1,0 -2,1 -3,1 0,0 -16,1 -19,1 -1,0 -1,0 -2,0 z m -15,-7 c 3,0 7,0 10,0 l 21,-13 -1,-5 -30,18 z m 32,-6 -9,6 c 3,0 7,-1 9,-1 l 0,-5 z m -32,-6 0,4 27,-16 c -3,0 -7,0 -9,-1 l -18,13 z m 0,-13 0,4 6,-4 -6,0 z m -85,25 c -4,0 -9,-1 -16,-3 -7,-2 -11,-4 -13,-6 l -1,0 c 0,-1 -1,-1 -1,-1 0,-1 -1,-2 -1,-2 l -2,-34 c 0,-1 0,-3 1,-3 1,-1 2,-1 3,-1 0,0 4,1 14,4 1,0 2,0 3,1 12,3 16,5 16,5 2,0 2,1 2,3 l 1,33 c 0,2 -1,3 -3,4 0,0 -1,0 -3,0 z m -21,-12 c 1,0 2,1 3,1 l 17,-10 0,-4 -20,13 z m -4,-9 0,4 23,-16 c 1,0 1,-1 1,-1 l 0,-1 c -1,0 -3,0 -5,-1 l -19,15 z m -1,-10 0,2 12,-10 -1,0 -1,0 -10,8 z m 218,30 c -1,0 -3,-1 -3,-3 l -1,-9 -1,-11 0,-1 -1,-12 c 0,-2 1,-3 3,-3 0,0 11,-2 17,-3 1,0 2,0 3,0 1,0 1,0 1,0 5,-1 12,-3 12,-3 2,0 3,0 3,0 1,1 2,2 2,3 l 0,7 0,1 1,11 0,1 0,12 c 0,1 0,2 -1,3 -1,0 -7,5 -17,6 -4,0 -7,1 -10,1 -5,0 -7,0 -7,0 l -1,0 z m 3,-10 0,3 c 1,0 2,0 3,0 l 23,-17 0,-4 -26,18 z m 26,-6 -9,7 c 4,0 7,-2 9,-3 l 0,-4 z m -27,-6 0,4 26,-18 0,-1 c -2,0 -5,1 -8,1 l -18,14 z m 84,1 c -1,0 -2,0 -3,-1 0,-1 -1,-2 -1,-3 0,0 1,-9 0,-15 -1,-1 -1,-2 -1,-4 -1,-5 -3,-11 -3,-11 0,-2 1,-4 2,-4 0,0 16,-5 22,-8 7,-2 14,-4 14,-4 1,-1 2,0 3,0 0,1 1,2 1,3 l 2,9 c 0,1 0,2 0,3 l 3,19 c 0,2 -1,3 -2,4 0,0 -14,6 -20,8 -6,2 -16,4 -17,4 z m 3,-9 c 0,1 0,1 0,1 2,0 4,-1 6,-1 3,-2 14,-12 21,-18 l 0,-3 -27,21 z m -1,-13 c 0,0 0,1 0,2 0,1 1,2 1,3 l 26,-20 -1,-5 -1,0 -25,20 z m -2,-11 c 0,1 0,2 0,3 l 8,-6 c -3,1 -6,2 -8,3 z m -369,31 c 0,0 -11,-1 -21,-6 l -4,-1 c -8,-4 -12,-6 -14,-10 0,0 0,-1 0,-2 l 0,-1 c 0,-6 1,-19 2,-28 0,-1 0,-2 1,-3 1,0 2,0 3,0 0,0 9,4 15,6 1,1 2,2 3,2 3,1 7,2 10,3 4,0 7,1 7,1 1,0 3,2 3,3 l -1,32 c 0,1 -1,2 -2,3 0,0 -1,1 -2,1 z m -20,-13 1,1 16,-8 0,-2 -17,9 z m -11,-5 c 0,1 1,1 3,2 l 26,-14 0,-3 c -1,0 -2,0 -3,0 l -26,15 z m -1,-11 c 0,1 0,2 0,4 l 17,-11 c 0,0 -1,0 -2,-1 -1,0 -1,0 -2,0 l -13,8 z m 1,-14 c 0,2 0,4 0,5 l 4,-3 c -1,0 -3,-1 -4,-2 z m 481,19 c -1,0 -2,-1 -2,-1 -1,0 -2,-1 -2,-3 l 0,-9 -1,0 -1,-25 c 0,-1 0,-3 2,-3 l 20,-9 10,-4 c 1,0 2,0 3,0 1,1 1,2 2,3 l 2,20 1,14 c 0,2 -1,3 -2,4 l -31,12 c -1,1 -1,1 -1,1 z m 2,-12 1,3 2,-1 21,-22 -24,20 z m 25,-11 -7,7 7,-3 0,-4 z m -26,-2 1,4 23,-20 -1,-5 -5,2 -18,19 z m -538,10 -1,0 -17,-8 -1,0 -10,-5 -4,-1 c -1,-1 -1,-2 -1,-4 l 0,-9 0,-1 0,-25 c 0,-1 1,-2 2,-3 1,0 2,0 3,0 l 33,18 c 1,1 2,2 1,3 l -1,32 c -1,1 -1,2 -2,3 -1,0 -1,0 -2,0 z m -20,-16 3,1 15,-8 0,-3 -18,10 z m -8,-9 0,5 26,-14 -5,-2 -21,11 z m 1,-13 0,5 13,-7 -6,-3 -7,5 z m 51,-55 c -1,0 -1,0 -2,0 -1,-1 -1,-2 -1,-3 l -1,-8 0,-1 -2,-11 -1,-14 c -1,-1 0,-3 2,-3 l 27,-10 1,0 c 1,0 2,0 3,1 0,0 0,1 0,2 l 4,34 c 0,1 -1,3 -2,3 l -27,10 -1,0 z m 3,-11 0,3 19,-17 0,-2 -19,16 z m -2,-11 1,3 19,-16 -1,-5 -19,18 z m 633,7 c -26,0 -37,-14 -37,-15 -1,-1 -1,-3 0,-4 0,-1 15,-17 40,-19 24,-2 43,8 44,9 1,0 1,1 2,2 0,1 0,2 -1,3 0,1 -14,22 -44,24 -1,0 -2,0 -4,0 z m -30,-17 c 4,4 15,11 34,10 19,-1 31,-12 36,-18 -6,-2 -21,-7 -37,-6 -17,1 -28,10 -33,14 z m -542,6 c -1,0 -2,0 -2,0 -1,-1 -2,-2 -2,-3 l -1,-5 c 0,-1 0,-1 0,-1 l -1,-12 -2,-16 c 0,-2 1,-3 2,-4 l 31,-9 c 1,-1 2,0 3,1 1,1 1,1 1,2 l 4,33 c 0,2 -1,3 -2,4 l -30,10 c -1,0 -1,0 -1,0 z m 25,-28 -22,20 23,-8 -1,-12 z m -24,8 0,4 23,-20 -1,-4 -22,20 z m -2,-15 1,7 12,-11 -13,4 z m 513,-60 c -2,0 -4,-1 -6,-2 -8,-3 -12,-11 -16,-18 -3,-5 -6,-11 -9,-13 -4,-2 -11,1 -18,4 -5,2 -10,4 -14,3 -6,0 -9,-4 -11,-8 -2,-3 -5,-6 -9,-9 -8,-5 -21,3 -21,3 -2,1 -4,1 -5,-1 -1,-1 0,-4 1,-5 1,0 16,-10 28,-3 6,3 9,8 11,11 3,3 4,5 7,6 2,0 7,-2 11,-4 7,-3 16,-7 23,-3 5,3 9,9 12,16 4,6 7,13 13,15 6,3 13,-4 14,-4 1,-1 3,-1 4,0 2,1 2,3 0,5 0,0 -7,7 -15,7 z m -738,-51 -64,-2 c -1,0 -2,-1 -3,-2 0,-1 0,-3 1,-4 l 32,-36 c 1,0 2,-1 3,-1 1,0 2,1 2,1 l 32,38 c 1,1 1,3 0,4 0,1 -2,2 -3,2 z m -56,-9 49,2 -25,-29 -24,27 z m 296,-165 c -1,0 -3,-1 -3,-2 -1,-1 0,-3 1,-4 l 40,-38 c 1,0 1,-1 2,-1 l 401,-26 c 1,0 3,0 3,2 1,1 1,2 0,4 l -37,42 c 0,1 -1,2 -2,2 l -405,21 z m 42,-38 -33,31 394,-21 30,-36 -391,26 z m -126,-76 -58,0 c -2,0 -3,-1 -4,-2 0,-1 0,-3 1,-4 l 31,-32 c 1,-1 1,-1 2,-1 1,0 2,0 3,1 l 28,32 c 1,1 1,3 0,4 0,1 -2,2 -3,2 z m -50,-7 43,0 -21,-23 -22,23 z"
           id="path3662"
           inkscape:connector-curvature="0"
           style="fill:#231f20;stroke:none" /></g><rect
         style="fill:none;stroke:none"
         id="rect3667"
         height="788.84857"
         width="635.25836"
         y="2321.0291"
         x="2139.948"
         class="BoundingBox" /><path
         sodipodi:nodetypes="sccccssccccsscccsccssccccscccscccccccccccccsscccccccccsccscccscccsccccccscccsccccccccccscccccccsccccccscccscccssccccccccccccccsccssscccsssccsssscscscsssscccsccccccsccccccccsccccsssscscccccccccccssscccccssscccccccccccsscccccsscccsccccccssscccccccccccsscccscsccsccccccsccccccsccccssssccccscscccsccsccccsccccccccscccccccccsccccccccccccccsccccccccccccccccccccccccccccccccccccccccccccsccscccsscsccccscccccsccsscscccccsccscscccccccccccccccccccccccccccccccccccccccccccccccccccccccccccccccccccccccccccccccccsccscccssccccccccccccsscscscccccssccccscccccccccscccsscccsccccssccccscccccccccccsccsccccccsccccccssccscccsccccsccccsccccccccccccccccccsccccscccccccccccccccccsccccscccccccccccccccccccccccsscccscccscccssccsscccscccsccccscccccccsccsccssccccs"
         style="fill:#231f20;stroke:none"
         inkscape:connector-curvature="0"
         id="path3669"
         d="m 2554.7954,3109.1355 c -1.4843,0 -2.9685,-0.7421 -2.9685,-2.2263 l -0.7422,-62.3361 c 0,-1.4842 0,-32.6522 17.0689,-33.3943 7.4212,0 12.6161,2.2262 17.811,6.6788 16.3267,17.0682 13.3582,58.6257 13.3582,60.8519 0,0.7421 -1.4842,2.2263 -2.9685,2.2263 -1.4842,0 -2.2264,-1.4842 -2.2264,-2.9684 0,0 2.2264,-41.5574 -11.8739,-56.3993 -2.9685,-2.9684 -5.937,-4.4526 -9.6477,-5.1947 2.9685,2.9684 5.937,6.6789 8.1634,12.6157 3.7106,8.163 6.6791,52.6888 6.6791,57.8835 0,1.4842 -0.7421,2.2263 -2.2263,2.2263 -1.4843,0 -2.2264,-0.7421 -2.9685,-2.2263 -0.7422,-13.3577 -3.7107,-49.7205 -5.937,-56.3993 -3.7107,-8.1631 -7.4213,-11.1315 -9.6476,-11.8736 -1.4843,0 -2.9685,0 -3.7107,0.7421 -6.6791,6.6789 -7.4212,24.4892 -7.4212,25.2313 l 1.4842,62.3361 c 0,1.4842 -0.7421,2.2263 -2.2263,2.2263 z m 67.5333,-48.9784 c -1.4843,0 -2.2264,-1.4842 -2.2264,-2.9684 l -6.6791,-146.193 0,-0.7421 -3.7106,-105.3777 c -0.7422,-1.4842 0.7421,-2.9684 2.2263,-2.9684 1.4843,0 2.2264,0.7421 2.2264,2.2263 l 0.7421,19.2945 63.8227,-5.1946 0,-12.6157 c 0,-4.4525 7.4213,-11.1314 17.0689,-16.3261 l -9.6476,-8.9052 -19.2953,23.005 c 0,0 -0.7421,0.7421 -1.4842,0.7421 l -25.9744,3.7105 c -0.7421,0 -0.7421,0 -1.4842,-0.7421 l -23.748,-19.2945 -9.6476,5.9368 c -1.4843,0.7421 -2.9685,0.7421 -3.7106,-0.7421 -0.7422,-0.7421 -0.7422,-2.2263 0.7421,-3.7105 l 4.4527,-2.9684 -0.7421,-27.4575 -63.0805,0.742 0,31.1681 c 0,1.4842 -0.7422,2.2263 -2.2264,2.2263 -1.4843,0 -2.9685,-0.7421 -2.9685,-2.2263 l 0.7421,-155.8403 c 0,-0.7421 0,-0.7421 0,-0.7421 l 0,-0.7421 0,-115.0249 -26.7165,-0.7421 c -1.4842,0 -2.2263,-0.7421 -2.2263,-1.4842 -0.7422,-0.7421 -0.7422,-1.4842 0,-2.2263 l 23.0058,-37.8469 c 0.7421,-0.7421 1.4843,-1.4842 2.2264,-1.4842 l 6.6791,0 0,-53.431 -14.8425,0 c -0.7421,0 -1.4842,-0.7421 -2.2264,-1.4842 0,-0.742 0,-1.4841 0,-2.2262 l 12.6162,-17.8104 c -1.4843,-2.2262 -2.9685,-6.6788 -2.9685,-16.3261 0,-17.0682 28.9428,-37.8469 30.4271,-38.589 0.7421,-0.7421 2.2263,-0.7421 2.9685,0.7421 1.4842,0.7421 0.7421,2.2263 0,2.9684 -8.1634,5.9368 -28.2008,23.005 -28.2008,34.8785 0,11.8736 2.2264,14.842 2.2264,14.842 1.4843,0.742 1.4843,2.2262 0.7421,2.9683 l -10.3897,14.842 76.4388,-1.4842 -12.6161,-17.0682 c -0.7422,-0.7421 -0.7422,-2.2263 0,-2.9684 0.7421,-1.4842 2.9685,-7.421 2.9685,-10.3894 0,-4.4526 -2.9685,-12.6156 -4.4528,-15.584 0,-1.4842 -28.6134,-19.5381 -25.5583,-24.4689 1.4843,0 -0.2104,-4.1609 27.2358,19.0956 0,0.7421 7.9701,14.2784 7.9701,20.9573 0,3.7105 -2.2263,8.9052 -2.9685,11.1315 l 14.8425,20.0366 c 0,0.7421 0.7422,1.4842 0,2.9684 0,0.7421 -1.4842,0.7421 -2.2263,0.7421 l -17.0689,0.742 2.9685,53.431 30.4271,1.4842 c 0.7421,0.7421 1.4842,0.7421 1.4842,1.4842 0.7422,0.7421 0.7422,1.4842 0.7422,2.2263 l -14.1004,39.3311 c 0,0.7421 -1.4842,1.4842 -2.2264,1.4842 l -15.5846,0 5.1949,114.2828 0.7421,23.7471 c 0.7421,0.7421 0.7421,0.7421 0.7421,1.4842 l -0.7421,0.7421 1.4843,18.5524 c 1.4842,2.2263 6.6791,8.1631 14.8424,7.421 4.4528,-0.7421 7.4213,-2.2263 9.6477,-3.7105 4.4527,-2.9684 8.9055,-5.9368 19.2952,-3.7105 7.4212,2.2263 11.1319,6.6789 13.3582,10.3894 2.9685,4.4526 5.937,7.4209 12.6161,8.9051 5.1949,0.7421 8.1634,-0.7421 11.874,-2.2262 3.7106,-2.2263 8.1634,-4.4526 17.811,-2.9684 8.1634,0.7421 13.3582,6.6788 19.2952,12.6156 5.1949,5.9368 10.3898,11.1315 17.0689,11.1315 6.6791,0 8.9055,-0.7421 11.1319,-2.2263 2.2263,-0.7421 4.4527,-1.4842 8.9055,-1.4842 7.4212,0.7421 11.1318,5.9367 11.1318,5.9367 0.7421,1.4842 0.7421,2.9684 -0.7421,3.7105 -1.4843,0.7421 -2.9685,0.7421 -3.7106,-0.7421 0,0 -2.2264,-2.9684 -7.4213,-3.7105 -2.9685,0 -3.7106,0 -5.937,1.4842 -2.2263,0.7421 -5.1948,2.2263 -14.1003,2.2263 -8.1634,0 -14.1004,-6.6788 -20.0374,-12.6156 -5.1949,-5.1947 -10.3897,-10.3894 -15.5846,-11.1315 -8.9055,-1.4842 -11.874,0.7421 -16.3267,2.2263 -3.7106,1.4842 -7.4213,3.7105 -14.1004,2.2263 -8.9055,-0.7421 -12.6161,-5.9368 -15.5846,-10.3893 -2.9685,-3.7105 -5.1949,-6.6789 -10.3897,-8.1631 -8.9055,-2.2263 -11.874,0 -15.5846,2.2263 -2.9685,2.2263 -5.937,4.4526 -11.874,5.1947 -6.6791,0.7421 -11.874,-2.2263 -15.5846,-5.1947 l 4.4527,97.9567 1.4843,-1.4842 c 0.7421,0 2.2263,0 2.9685,0.7421 l 24.4901,20.0366 23.7479,-3.7104 20.0374,-23.7471 c 0.7421,-0.7421 1.4842,-0.7421 2.2264,-0.7421 0.7421,0 0.7421,0 1.4842,0.7421 l 13.3582,11.1314 c 8.1634,-2.9684 17.811,-5.9368 26.7165,-5.9368 23.0059,0 37.8483,12.6157 37.8483,19.2946 0,8.163 -23.0058,20.7787 -38.5904,22.2629 -15.5846,1.4841 -34.1377,-2.2263 -43.0432,-8.9052 l 0,73.4675 0,22.2629 0,84.599 c 0,1.4842 -0.7421,2.2263 -2.2264,2.2263 -1.4842,0 -2.9685,-0.7421 -2.9685,-2.2263 l 0,-81.6306 -10.3897,0 c 0.7421,31.9102 2.2263,94.9884 2.2263,97.9568 0,1.4842 -1.4842,2.9684 -2.2263,2.9684 l -0.7422,0 c -0.7421,0 -2.2263,-1.4842 -2.2263,-2.9684 0,-0.7421 -2.2264,-111.3145 -2.2264,-115.7671 -0.7421,-1.4842 -0.7421,-3.7105 -0.7421,-5.9368 l 0,-0.7421 c -1.4843,-8.9051 -3.7106,-20.0366 -12.6161,-20.0366 -2.2264,0 -3.7107,0.7421 -5.1949,2.2263 -7.4212,6.6789 -9.6476,27.4576 -9.6476,42.2995 0,5.1947 2.2264,132.0932 2.2264,133.5774 0,1.4842 -0.7422,2.2263 -2.2264,2.2263 -1.4843,0 -2.9685,-0.7421 -2.9685,-2.2263 0,-5.1947 -1.4843,-118.7354 -2.2264,-132.0932 l -11.1319,0 5.937,143.9667 c 0,1.4842 -0.7421,2.9684 -2.2263,2.9684 z m -3.7107,-152.1298 11.874,0 c 0,-4.4525 0,-10.3893 0.7422,-17.0682 l -13.3583,0.7421 z m 48.9802,-18.5524 c 0,1.4842 0,2.9684 0,3.7105 0,1.4842 0.7422,5.9368 0.7422,13.3578 l 10.3897,0 0,-17.0683 z m -51.9486,-61.594 2.2263,58.6256 14.1004,-0.742 c 1.4842,-8.1631 4.4527,-15.5841 8.9055,-20.0367 2.2263,-2.9683 5.1948,-3.7104 8.9055,-3.7104 11.874,0 15.5846,12.6156 17.0688,22.2629 l 11.874,0 0,-60.852 z m 112.0607,-42.2995 c -23.0058,0 -43.7853,15.5841 -43.7853,20.0366 0,0.7421 0.7421,1.4842 1.4842,2.2263 5.937,5.9368 23.748,10.3894 40.8169,8.9052 17.0688,-1.4842 34.8798,-13.3578 34.1377,-17.0682 0,-2.9684 -11.1319,-14.0999 -32.6535,-14.0999 z m -185.531,-43.0416 0,11.8736 62.3384,-0.7421 0,-11.1315 z m 49.7223,-5.1946 11.874,0 -2.9685,-76.436 -58.6278,1.4842 0,74.9518 16.3267,0 0,-27.4576 c 0,-6.6789 3.7106,-18.5524 14.8425,-18.5524 l 0.7421,0 c 11.1319,0 14.8425,11.1314 15.5846,17.0682 z m -28.2007,0 23.0058,0 -2.2264,-28.1997 c 0,-0.7421 -1.4842,-12.6157 -10.3897,-12.6157 l -0.7421,0 c -8.9055,0 -9.6476,12.6157 -9.6476,13.3578 z m -21.5216,-100.9252 0,21.5208 57.8856,-2.2263 -0.7421,-19.2945 -17.0688,0 -0.7422,0 z m 0.7421,-117.9933 -0.7421,112.7987 17.8109,0 0,-18.5525 c 0,-5.9367 5.937,-11.8735 11.874,-11.8735 8.1634,0 11.1319,7.421 11.874,11.8735 l 0.7421,18.5525 14.8425,0 -5.1949,-112.0566 z m 28.9428,87.5674 c -3.7106,0 -6.6791,3.7105 -6.6791,6.6788 l 0,18.5525 14.1004,0 -0.7422,-18.5525 c 0,0 -0.7421,-6.6788 -6.6791,-6.6788 z m -56.4014,-93.5042 97.9604,1.4842 11.874,-34.1364 -26.7165,-1.4842 0.7421,14.8419 c 0,0.7421 0,1.4842 -0.7421,2.2263 0,0.7421 -0.7421,0.7421 -1.4843,0.7421 l -54.175,0 c -0.7421,0 -2.2264,-1.4842 -2.2264,-2.2263 l 0,-14.0998 -5.1949,0 z m 30.4271,-21.5208 48.238,0 -3.7106,-71.2413 -44.5274,1.4842 0,55.6573 0,0.7421 0,0.7421 z m 13.3582,484.589 c -0.7421,0 -2.2264,-0.7421 -2.2264,-2.2263 0,-0.7421 -2.9685,-11.8735 -1.4842,-22.2629 0,-0.7421 0,-0.7421 0,-0.7421 0,-5.1946 1.4842,-9.6472 3.7106,-12.6156 2.2264,-3.7105 5.937,-5.1947 9.6476,-5.9368 3.7106,-0.7421 7.4213,0.7421 10.3898,2.9684 10.3897,9.6473 10.3897,34.1365 10.3897,35.6207 0,0.742 -1.4842,2.2262 -2.2264,2.2262 l -27.4586,2.9684 z m 0.7421,-22.2629 c 0,5.9368 0.7422,12.6157 1.4843,17.0683 l 8.9055,-1.4842 c -0.7422,-3.7105 -2.2264,-9.6473 -3.7106,-11.1315 -2.2264,-2.9684 -4.4528,-3.7105 -6.6792,-4.4526 z m 0.7422,-5.1946 c 2.2263,0.7421 6.6791,2.2262 9.6476,5.9367 2.9685,3.7105 4.4527,11.1315 5.1948,14.842 l 8.9055,-0.7421 c -0.7421,-8.1631 -2.2263,-23.7471 -8.1633,-28.9418 -2.2264,-2.2263 -4.4528,-2.9684 -6.6792,-2.2263 -2.9684,0 -4.4527,1.4842 -5.9369,3.7105 -1.4843,1.4842 -2.2264,4.4526 -2.9685,7.421 z m 152.8776,-0.7421 c -1.4843,0 -2.9685,-0.7421 -2.9685,-2.2263 -0.7422,-8.1631 -5.1949,-64.5624 6.6791,-89.7937 l 0.7421,-0.7421 c 2.9685,-5.9368 6.6791,-9.6473 11.1319,-11.1314 3.7106,-0.7421 6.6791,0 9.6476,2.2262 8.9055,6.6789 9.6476,25.9734 9.6476,27.4576 0,1.4842 -0.7421,2.9684 -2.2264,2.9684 -1.4842,0 -2.9685,-0.7421 -2.9685,-2.2263 0,-5.1947 -1.4842,-19.2945 -7.4212,-23.7471 -1.4843,-1.4842 -3.7106,-2.2263 -5.1949,-1.4842 -2.9685,0.7421 -5.937,2.9684 -7.4212,6.6789 0.7421,1.4842 2.2263,3.7105 3.7106,6.6789 3.7106,8.163 2.9685,51.9467 2.9685,56.3993 0,1.4842 -1.4843,2.2263 -2.9685,2.9684 -1.4843,0 -2.2264,-1.4842 -2.2264,-2.9684 0,-19.2945 0,-48.9784 -2.2264,-54.9151 -0.7421,-0.7421 -1.4842,-2.2263 -2.2263,-2.9684 -7.4213,21.5208 -5.937,64.5624 -4.4528,83.8569 0,1.4842 -0.7421,2.9684 -2.2263,2.9684 z m -163.2674,-49.7205 c -0.7421,0 -1.4842,0 -1.4842,-0.7421 -0.7422,0 -1.4843,-0.7421 -1.4843,-1.4842 0,-1.4842 -0.7421,-17.8103 3.7106,-30.426 0,-0.742 0,-0.742 0,-0.742 2.9685,-8.1631 7.4213,-14.0999 15.5847,-14.842 4.4527,0 8.1633,1.4842 11.8739,4.4526 10.3898,9.6473 11.1319,34.8785 11.1319,36.3627 0,1.4842 -1.4842,2.2263 -2.2264,2.2263 z m 5.1949,-29.6839 c -2.2264,8.1631 -2.9685,17.8104 -2.9685,24.4892 l 14.1004,-2.2263 c 0,-2.9684 0,-11.1314 -3.7107,-17.0682 -2.9685,-2.9684 -5.937,-4.4526 -7.4212,-5.1947 z m 1.4842,-4.4525 c 2.9685,0.7421 6.6792,2.2262 9.6477,6.6788 4.4527,6.6789 5.1948,14.842 5.1948,19.2945 l 12.6161,-1.4842 c -0.7421,-6.6788 -2.2263,-23.747 -9.6476,-30.4259 -2.2264,-2.2263 -4.4527,-2.9684 -7.4212,-2.9684 -5.1949,0.7421 -8.1634,3.7105 -10.3898,8.9052 z m 66.7912,-8.1631 c -0.7421,0 -1.4842,0 -1.4842,-0.7421 -0.7422,0 -0.7422,-0.7421 -0.7422,-1.4842 l -0.7421,-14.0998 c 0,-0.7421 0,-1.4842 0.7421,-2.2263 0.7422,-0.7421 0.7422,-0.7421 1.4843,-0.7421 l 17.811,-0.7421 c 0.7421,0 2.2263,1.4842 2.2263,2.9684 l 0.7422,14.0998 c 0,0.7421 0,1.4842 -0.7422,1.4842 -0.7421,0.7421 -0.7421,0.7421 -1.4842,0.7421 z m 2.2264,-14.0998 0,8.9051 12.6161,0 -0.7421,-9.6472 z m 31.1692,11.8735 c -0.7421,0 -1.4842,0 -2.2264,-0.7421 0,0 -0.7421,-0.7421 -0.7421,-1.4842 l 0,-12.6156 c -0.7421,-1.4842 0.7421,-2.9684 2.2264,-2.9684 l 16.3267,-0.7421 c 0.7421,0 1.4843,0 2.2264,0.7421 0,0 0.7421,0.7421 0.7421,1.4842 l 0.7421,12.6156 c 0,1.4842 -1.4842,2.9684 -2.9685,2.9684 z m 1.4843,-12.6156 0.7421,7.4209 11.874,-0.7421 -0.7422,-7.4209 z m -172.915,-20.0366 c 0,0 -0.7421,0 -0.7421,-0.7421 l -23.0059,-7.421 c -0.7421,0 -0.7421,0 -0.7421,0 -0.7421,-0.7421 -0.7421,-0.7421 -0.7421,-1.4842 l -0.7421,0 c 0,-0.7421 0,-0.7421 0,-1.4842 l 1.4842,-21.5208 c 0,-0.7421 0,-1.4842 0.7421,-2.2263 0.7422,0 1.4843,0 2.2264,0 l 17.0689,3.7105 5.937,1.4842 c 0.7421,0 1.4842,1.4842 1.4842,2.2263 l -0.7421,24.4892 c 0,0.7421 0,1.4842 -0.7421,2.2263 -0.7422,0 -0.7422,0.7421 -1.4843,0.7421 z m -16.3267,-11.1315 3.7106,1.4842 10.3897,-6.6789 0,-0.7421 z m -3.7106,-8.163 -0.7422,4.4525 18.5531,-8.163 0.7422,-2.2263 -2.9685,-0.7421 z m 0,-10.3894 0,4.4526 5.9369,-2.9684 z m -322.8241,22.2629 c -0.7421,0 -1.4842,0 -1.4842,-0.7421 -1.4843,-0.7421 -1.4843,-2.9684 0,-3.7105 l 14.1003,-14.0998 c 0.7421,-0.7421 2.2264,-0.7421 3.7106,0 0.7422,1.4842 0.7422,2.9684 0,3.7105 l -14.8424,14.0998 c 0,0.7421 -0.7422,0.7421 -1.4843,0.7421 z m 575.8884,-2.9684 c -6.6791,0 -13.3582,-0.7421 -16.3267,-2.9684 -1.4843,-1.4842 -2.2264,-2.9684 -2.2264,-4.4526 0,-5.1946 7.4213,-11.1314 23.0059,-12.6156 12.6161,-1.4842 24.4901,3.7105 25.2322,8.9052 0,0.7421 0,2.2263 -0.7421,3.7104 -2.9685,3.7105 -12.6161,5.9368 -18.5531,6.6789 -2.9685,0.7421 -6.6792,0.7421 -10.3898,0.7421 z m 5.1949,-14.8419 c -14.1004,0.7421 -18.5531,5.1947 -18.5531,7.4209 0.7421,2.2263 13.3582,3.7105 23.0058,1.4842 10.3898,-1.4842 14.8425,-3.7104 15.5846,-4.4525 -0.7421,-1.4842 -8.9054,-5.9368 -20.0373,-4.4526 z m -301.3025,3.7105 -0.7421,0 -24.4901,-8.9052 c -1.4842,-0.7421 -2.2263,-1.4842 -2.2263,-2.9684 l 0,-8.163 c 0,-0.7421 0,-0.7421 0,-0.7421 l 0,-14.842 c 0,-0.7421 0.7421,-1.4842 1.4842,-2.2263 0.7421,0 1.4842,-0.7421 2.2264,0 l 13.3582,3.7105 0.7421,0 10.3898,2.9684 c 1.4842,0.7421 2.2263,1.4842 2.2263,2.9684 l 0,2.2263 0,9.6472 0,13.3578 c 0,1.4842 -0.7421,2.2263 -1.4842,2.2263 0,0.7421 -0.7421,0.7421 -1.4843,0.7421 z m -8.1633,-8.1631 5.937,2.2263 0,-5.9368 z m -8.1634,-2.9684 2.2264,0.7421 11.874,-7.421 0,-3.7104 z m -5.937,-2.2263 19.2953,-13.3577 -7.4213,-2.2263 -11.874,9.6473 z m 0,-18.5524 0,5.9368 5.937,-4.4526 z m -205.5684,30.426 c -0.7421,0 -0.7421,0 -0.7421,0 -0.7421,-0.7421 -1.4843,-1.4842 -1.4843,-2.2263 l -1.4842,-3.7105 0,-0.7421 -0.7421,-8.9052 c 0,-0.7421 0,-0.7421 0,-0.7421 l -1.4843,-9.6472 c 0,-0.7421 0.7421,-2.2263 1.4843,-2.2263 l 20.0373,-6.6789 2.9685,-0.7421 c 0.7421,-0.7421 1.4843,0 2.2264,0 0.7421,0.7421 0.7421,0.7421 1.4842,1.4842 l 0.7422,7.421 2.9685,18.5524 c 0.7421,1.4842 -0.7422,2.2263 -2.2264,2.9684 z m 2.9685,-5.9368 0,0.7421 2.9685,-0.7421 13.3582,-14.0998 0,-0.7421 z m 17.0689,-7.421 -5.1949,5.1947 5.937,-1.4842 z m -20.0374,-2.2263 2.2264,3.7105 15.5846,-14.8419 -0.7421,-2.9684 z m 58.6278,5.9368 c -0.7421,0 -0.7421,-0.7421 -0.7421,-0.7421 -0.7421,-0.7421 -0.7421,-1.4842 -0.7421,-1.4842 l -2.9685,-27.4575 c 0,-0.7421 0,-1.4842 0.7421,-2.2263 0.7421,0 0.7421,-0.7421 1.4842,-0.7421 l 25.2323,-2.2263 c 1.4842,0 2.9685,0.7421 2.9685,2.2263 l 0.7421,11.8735 1.4842,14.0998 c 0,1.4842 -0.7421,2.2263 -2.2263,2.2263 l -19.2953,2.9684 z m 2.9685,-8.163 0,2.2262 2.2264,0 16.3267,-15.584 0,-2.9684 z m 19.2952,-6.6789 -8.1633,7.4209 8.9055,-1.4841 z m -20.0373,-2.2263 0,2.9684 16.3267,-14.8419 -5.937,0 z m 94.9919,8.9052 -15.5846,-0.7421 -10.3898,-0.7421 c -1.4842,0 -2.2263,-0.7421 -2.2263,-2.2263 l 0,-2.2263 0,-10.3894 0,-11.8735 c 0,-0.7421 0,-1.4842 0.7421,-1.4842 0.7421,-0.7421 0.7421,-0.7421 1.4842,-0.7421 l 25.9744,0.7421 c 1.4842,0.7421 2.2264,1.4842 2.2264,2.9684 l 0,24.4892 c 0,0.7421 0,1.4842 -0.7422,1.4842 0,0.7421 -0.7421,0.7421 -1.4842,0.7421 z m -21.5216,-5.9368 5.1949,0 13.3582,-10.3894 0,-3.7105 z m -1.4843,-8.9052 0,3.7105 17.0689,-13.3577 -3.7106,0 z m 381.4519,-5.1947 c -2.9685,0 -6.6791,-0.742 -11.874,-2.2262 -5.1949,-1.4842 -8.9055,-5.1947 -11.874,-8.1631 -3.7106,-4.4526 -7.4212,-8.1631 -14.8425,-8.1631 -5.9369,0 -8.1633,2.9684 -11.1318,5.9368 -2.2264,2.9684 -4.4528,5.9368 -9.6476,8.1631 -15.5846,6.6788 -31.1693,-16.3262 -31.9114,-17.0683 -0.7421,-1.4841 -0.7421,-2.9683 0.7421,-3.7104 0.7422,-0.7421 2.2264,-0.7421 2.9685,0.7421 0.7422,0 14.8425,20.0366 25.9744,14.8419 3.7106,-1.4842 5.937,-3.7105 8.1634,-5.9368 2.9685,-3.7105 6.6791,-8.163 14.8424,-8.163 9.6477,0 14.1004,5.1946 18.5532,9.6472 2.9684,2.9684 5.1948,5.9368 9.6476,7.421 9.6476,2.2263 14.1003,0.7421 14.1003,0.7421 1.4843,-0.7421 2.9685,0 2.9685,1.4842 0.7421,1.4842 0,2.9684 -0.7421,2.9684 -0.7421,0.7421 -2.2264,1.4841 -5.937,1.4841 z m 61.5963,-5.1946 c -1.4842,0 -2.2264,-0.7421 -2.9685,-1.4842 -1.4842,-3.7105 -6.6791,-11.8736 -11.874,-12.6157 -2.9685,-0.7421 -6.6791,0.7421 -9.6476,1.4842 -4.4527,1.4842 -8.9055,3.7105 -14.1003,2.9684 -6.6792,-1.4842 -9.6477,-5.1947 -12.6162,-8.9051 -1.4842,-2.2263 -2.9685,-4.4526 -5.1948,-5.9368 -5.1949,-3.7105 -13.3583,-1.4842 -13.3583,-1.4842 -1.4842,0 -2.9685,-0.7421 -2.9685,-2.2263 -0.7421,-1.4842 0.7422,-2.9684 1.4843,-2.9684 0.7421,0 10.3897,-2.9684 17.811,2.9684 2.9685,1.4842 5.1948,4.4526 6.6791,6.6789 2.2264,2.9684 4.4527,5.9367 8.9055,6.6788 3.7106,0.7421 7.4212,-0.7421 11.1318,-2.2262 3.7107,-1.4842 8.1634,-2.9684 12.6162,-2.2263 8.9054,1.4842 15.5846,14.0998 16.3267,15.584 0,0.7421 0,2.9684 -1.4843,2.9684 0,0.7421 -0.7421,0.7421 -0.7421,0.7421 z m -264.9383,-123.9301 c -1.4843,0 -2.9685,-1.4842 -2.9685,-2.9684 l -3.7107,-112.0566 -2.2263,-46.7521 -141.7458,38.589 0,15.5841 c 0,1.4842 -0.7421,2.9683 -2.2263,2.9683 -1.4843,0 -2.2264,-1.4841 -2.2264,-2.9683 l -0.7421,-15.5841 -134.3245,-39.3311 1.4842,61.594 c 0.7422,1.4842 -0.7421,2.9684 -2.2263,2.9684 -1.4843,0 -2.2264,-1.4842 -2.2264,-2.2263 l -2.2264,-66.0466 0,-0.7421 0,-0.7421 c 0,0 0.7421,-0.742 1.4843,-0.742 l 26.7164,-13.3578 0,-15.584 0,-0.7421 c 0.7422,-0.7421 0.7422,-0.7421 1.4843,-1.4842 l 31.1692,-18.5524 0,-11.1315 0,-0.7421 c 0,-0.7421 0.7421,-1.4842 0.7421,-1.4842 l 26.7165,-15.584 0,-23.7471 c 0,-0.7421 0,-1.4842 0.7421,-2.2263 l 28.2007,-26.7154 c 0.7422,0 0.7422,-0.7421 1.4843,-0.7421 l 61.5963,-8.9052 c 0.7421,0 1.4843,0 2.2264,0.7421 l 25.2322,28.9418 c 0.7421,0.7421 0.7421,1.4842 0.7421,2.2263 l 0,34.8785 23.0059,9.6473 c 0.7421,0.7421 0.7421,0.7421 1.4842,1.4841 l 0,0.7421 0.7422,17.0683 20.7794,9.6472 c 0.7422,0.7421 1.4843,0.7421 1.4843,1.4842 0,0.7421 0,0.7421 0,1.4842 l 0,15.584 34.1377,18.5524 c 0.7421,0 1.4842,0.7421 1.4842,1.4842 l 0,0.7421 0.7422,49.7205 5.1948,112.0566 c 0,1.4842 -0.7421,2.9684 -2.2263,2.9684 z m -285.7179,-166.9718 132.0981,39.3312 140.2615,-37.847 -25.9743,-14.0998 0,5.9368 c 0,1.4842 -0.7421,2.2263 -1.4843,2.2263 l -104.6395,34.1364 c -0.7421,0 -0.7421,0 -1.4842,0 l -117.9978,-34.8785 c -1.4842,0 -2.2264,-0.7421 -2.2264,-2.2263 l 0,-1.4842 z m 140.2615,5.1947 1.4843,18.5524 99.4446,-31.9101 0,-8.9052 0,-14.0998 z m -116.5135,-14.8419 112.8029,33.3943 -0.7421,-18.5524 -112.0608,-31.9101 0,13.3577 z m 3.7106,-21.5208 110.5765,31.9101 99.4447,-35.6206 -13.3582,-5.9368 0,5.1947 c 0,1.4842 -0.7422,2.2263 -1.4843,2.2263 l -82.3758,27.4576 c -0.7421,0 -0.7421,0 -1.4842,0 l -86.0864,-27.4576 c -0.7422,-0.7421 -1.4843,-1.4842 -1.4843,-2.9684 l 0,-8.9051 z m 28.2007,-6.6789 81.6337,25.9734 0,-17.0682 -81.6337,-29.6839 0,8.9052 z m 86.0865,8.9052 0,17.0682 77.1809,-25.2313 -0.7421,-23.005 z m -82.3758,-34.1365 80.1494,29.6839 74.9545,-30.426 -15.5846,-6.6788 0,3.7105 c 0,0.7421 -0.7421,1.4842 -1.4842,2.2262 l -56.4015,23.005 c -0.7421,0 -1.4842,0 -1.4842,0 l -59.37,-27.4575 c -0.7421,-0.7421 -1.4842,-1.4842 -1.4842,-2.2263 l 0,-2.9684 z m 80.8915,-25.2312 2.2264,40.8153 50.4644,-21.5208 0,-37.847 z m -56.4014,15.584 53.4329,24.4892 -1.4842,-39.3311 -51.9487,-13.3578 0,22.2629 0,0.7421 z m 30.4271,-56.3993 24.4901,36.3627 53.4329,-19.2945 -22.2637,-25.2313 z m -28.2008,23.747 46.0117,11.1315 -23.0058,-32.6523 z m 283.4915,233.7604 -12.6161,0 c -1.4843,0 -2.2264,-0.7421 -2.2264,-2.2263 l -1.4842,-34.1364 c 0,-0.7421 0,-7.421 2.9685,-11.1314 1.4842,-1.4842 3.7106,-2.2263 5.937,-2.2263 6.6791,0 8.9055,8.9051 8.9055,14.0998 l 0.7421,33.3943 c 0,0.7421 0,1.4842 -0.7421,1.4842 0,0.7421 -0.7422,0.7421 -1.4843,0.7421 z m -9.6476,-4.4525 6.6791,0 -0.7421,-31.1681 c 0,0 0,-8.9052 -3.7106,-8.9052 -0.7422,0 -1.4843,0 -2.2264,0.7421 -1.4843,1.4842 -1.4843,5.9368 -1.4843,6.6789 z m -13.3582,4.4525 -11.874,0 c -1.4843,0 -2.2264,-0.7421 -2.2264,-2.2263 l -1.4843,-34.1364 c 0,-0.7421 0,-7.421 3.7107,-11.1314 0.7421,-1.4842 2.9685,-2.2263 4.4527,-2.2263 6.6791,0 8.9055,8.163 8.9055,12.6156 l 0.7421,34.8785 c 0,0.7421 0,1.4842 -0.7421,1.4842 0,0.7421 -0.7421,0.7421 -1.4842,0.7421 z m -9.6477,-4.4525 6.6792,0 -0.7422,-32.6523 c 0,-1.4842 -0.7421,-7.421 -3.7106,-7.421 0,0 -0.7421,0 -1.4842,0.7421 -1.4843,1.4842 -1.4843,5.1947 -1.4843,7.421 z m 3.7107,-100.1831 c -0.7422,0 -0.7422,-0.7421 -1.4843,-0.7421 -0.7421,-0.7421 -0.7421,-1.4842 -0.7421,-2.2263 l -0.7421,-39.3311 c 0,-0.7421 0,-8.9051 3.7106,-13.3577 2.2264,-1.4842 4.4527,-2.9684 7.4212,-2.9684 6.6791,0 8.9055,6.6789 10.3898,8.9052 0.7421,2.9684 2.2263,26.7154 3.7106,46.0099 0,0.7421 0,1.4842 -0.7421,2.2263 -0.7422,0.7421 -1.4843,0.7421 -2.2264,0.7421 z m 8.1633,-53.4309 c -1.4842,0 -2.9685,0.7421 -3.7106,1.4842 -2.2264,2.2263 -2.2264,7.4209 -2.2264,9.6472 l 0.7422,37.1049 14.1003,-0.7421 c -1.4842,-15.5841 -2.9685,-39.3312 -3.7106,-41.5574 -0.7421,-2.9684 -2.2264,-5.9368 -5.1949,-5.9368 z" /><path
         style="fill:#ffcc00;fill-opacity:1;stroke:#4c4c4c;stroke-width:15.39999961999999911;stroke-linejoin:round;stroke-miterlimit:4;stroke-opacity:1;stroke-dasharray:none;stroke-dashoffset:0;opacity:1"
         d="m 549.21839,603.26776 c -20.64926,-25.14652 -38.59967,-46.97229 -39.88977,-48.5017 -1.99446,-2.36442 -0.63842,-5.25594 9.05689,-19.31223 46.13405,-66.88531 56.62844,-150.14589 28.75616,-228.14612 -32.30563,-90.4069 -122.94257,-151.44454 -216.97024,-146.11427 -76.37128,4.32936 -139.35405,43.49264 -171.28734,106.50808 -18.6275,36.75852 -24.38527,82.63117 -15.47858,123.31927 2.05909,9.40647 4.19149,19.5061 4.73865,22.44364 0.54717,2.93752 2.13211,6.47822 3.52208,7.86818 1.38998,1.38998 2.99378,4.85997 3.564,7.71109 0.57023,2.85111 1.6226,5.18384 2.3386,5.18384 0.71601,0 2.84259,3.41717 4.72574,7.5937 1.88315,4.17654 5.24669,9.56066 7.47454,11.96472 2.22785,2.40404 4.05064,5.11514 4.05064,6.02462 0,0.90951 2.43037,3.69866 5.40084,6.19814 2.97046,2.49949 5.40084,5.6877 5.40084,7.0849 0,1.39721 0.85753,2.54039 1.90562,2.54039 1.04808,0 5.1804,3.03798 9.18291,6.75106 4.00253,3.71308 8.81589,8.16877 10.69637,9.90154 1.88047,1.73277 3.78846,3.1505 4.23995,3.1505 0.45151,0 4.70468,2.27553 9.45148,5.05677 22.94741,13.4452 49.03064,20.15269 78.29679,20.13454 45.47489,-0.0281 83.12041,-17.04243 110.47831,-49.9317 5.56566,-6.69096 10.70989,-13.69187 11.43162,-15.5576 1.06719,-2.75871 8.319,5.142 38.83184,42.30661 20.63578,25.13436 39.13388,47.50525 41.1069,49.7131 l 3.5873,4.01426 -16.0321,15.95377 C 467.74999,587.07735 449.3089,600.70674 425.49561,613.17349 318.10958,669.39229 188.70646,649.68884 102.16038,563.94116 45.67833,507.98017 15.395001,433.4392 15.395001,350.37235 c 0,-111.4177 59.505776,-212.99746 157.880739,-269.511418 35.99609,-20.678855 76.12731,-34.195655 122.063,-41.112661 21.69019,-3.266111 73.73157,-2.773868 96.31505,0.911014 114.91748,18.750752 206.43626,86.682945 257.366,191.036615 17.42872,35.71101 29.0739,74.29748 34.50043,114.31786 3.36795,24.83841 2.87881,79.40578 -0.91985,102.61603 -12.3969,75.74644 -40.56049,136.40098 -89.77503,193.34402 l -6.06282,7.01492 -37.54413,-45.72097 z"
         id="path3138"
         inkscape:connector-curvature="0"
         transform="matrix(2.8222221,0,0,2.8222221,1499.9997,1703.4446)" /><path
         style="fill:#5f8dd3;fill-opacity:1;stroke:#4c4c4c;stroke-width:3.90000006;stroke-linejoin:round;stroke-miterlimit:4;stroke-opacity:1;stroke-dasharray:none;stroke-dashoffset:0"
         d="m 474.46673,502.41971 c -39.67942,-48.11964 -46.47291,-55.5902 -50.55188,-55.5902 -3.24673,0 -3.4567,-1.55728 -3.45901,-25.65401 l -0.002,-25.65401 9.96071,0.61999 c 10.67936,0.66473 18.84804,-2.78259 18.84804,-7.95448 0,-3.89618 -11.80711,-8.42855 -18.26304,-7.0106 -3.20519,0.70398 -6.34835,0.28153 -7.97987,-1.07251 -2.20828,-1.83271 -3.56933,-1.42367 -7.57746,2.27728 -7.10128,6.55706 -9.75693,6.92028 -15.73694,2.15238 -5.06974,-4.04212 -5.38493,-5.07935 -5.9911,-19.7154 -0.50866,-12.28109 -0.13953,-15.35134 1.80028,-14.97337 1.34207,0.26149 4.26672,-0.14421 6.49921,-0.90166 2.92339,-0.99179 5.42841,-0.3 8.95303,2.47247 3.72174,2.92753 6.32518,3.58107 10.86947,2.72855 4.71944,-0.88537 7.05727,-0.2108 11.12153,3.20905 3.52095,2.96269 7.05006,4.21448 11.17551,3.964 8.33919,-0.50629 8.49283,-3.47528 0.21622,-4.17796 -3.73377,-0.317 -8.57717,-2.24881 -10.76315,-4.2929 -3.17711,-2.97095 -5.38214,-3.49145 -10.99118,-2.59453 -5.69841,0.91121 -7.64979,0.42247 -10.38627,-2.60129 -2.78157,-3.0736 -4.68738,-3.5257 -10.92157,-2.59082 l -7.552,1.13249 -0.98389,-9.54069 c -0.54115,-5.24738 -1.29131,-17.84448 -1.66705,-27.99357 -0.59771,-16.14539 -0.31571,-18.45288 2.25516,-18.45288 3.00339,0 9.83069,-14.88756 7.77158,-16.94665 -0.58088,-0.58089 -3.35151,-1.05616 -6.15696,-1.05616 -4.92076,0 -5.10079,-0.3177 -5.10079,-9.00141 0,-6.80106 0.66011,-9.00141 2.70042,-9.00141 2.89221,0 3.73254,-4.55046 1.13661,-6.15483 -0.86008,-0.53157 -2.07257,-4.02242 -2.69441,-7.75745 -1.32569,-7.96282 -10.49294,-15.79565 -15.40803,-13.16517 -5.23954,2.80412 -9.53805,8.83545 -9.94018,13.94728 -0.21812,2.77275 -1.40273,6.92134 -2.63245,9.21909 -1.97739,3.69479 -1.80406,4.29064 1.49941,5.15451 3.0635,0.80112 3.73525,2.39598 3.73525,8.86809 0,4.34021 -0.7301,7.8913 -1.62244,7.8913 -2.05848,0 -9.17924,11.95061 -9.17924,15.40529 0,1.5705 1.7795,2.59752 4.5007,2.59752 l 4.5007,0 0,23.23428 0,23.23427 -4.48666,-2.08097 c -4.16261,-1.93067 -4.48767,-3.00342 -4.5007,-14.85295 -0.007,-7.02459 -0.54675,-21.47831 -1.19782,-32.11938 l -1.18379,-19.3474 -6.01733,-2.86947 c -3.49381,-1.66608 -6.01735,-4.21307 -6.01735,-6.07326 0,-1.76208 -1.62026,-4.07092 -3.60057,-5.13075 -1.98031,-1.05983 -3.60056,-3.38867 -3.60056,-5.17521 0,-1.78654 -2.02531,-4.17104 -4.5007,-5.29891 -3.55489,-1.61971 -4.5007,-3.37694 -4.5007,-8.36183 0,-4.34865 -1.54674,-8.04228 -4.97405,-11.87811 -4.87257,-5.45335 -5.20787,-5.54047 -16.43464,-4.27031 -13.73718,1.55419 -23.59835,8.60754 -23.59835,16.87908 0,3.50671 -1.29635,5.51604 -4.5007,6.97604 -2.47539,1.12786 -4.5007,3.20319 -4.5007,4.61185 0,1.40865 -2.83545,4.23414 -6.30099,6.27886 -3.46554,2.04472 -6.30098,4.97755 -6.30098,6.51741 0,1.53985 -2.02532,3.72253 -4.50071,4.85039 -4.16216,1.89641 -4.5007,2.97682 -4.5007,14.36365 l 0,12.313 -5.40084,0 -5.40085,0 0,-14.19277 0,-14.19276 -7.20631,-6.51047 c -3.96347,-3.58076 -8.44227,-6.51047 -9.95288,-6.51047 -6.67221,0 -23.75792,10.93157 -31.89847,20.40888 -9.32815,10.85992 -9.88233,11.99618 -5.85092,11.99618 2.01091,0 2.70043,2.12483 2.70043,8.3217 0,7.05763 -0.39572,7.99329 -2.60511,6.15966 -1.43281,-1.18913 -4.55092,-1.90706 -6.92913,-1.59541 -2.88577,0.37816 -6.62563,-1.45419 -11.24364,-5.50886 l -6.91961,-6.0755 7.52267,-14.60297 c 20.02471,-38.8719 56.41281,-70.34412 100.28733,-86.73893 113.14036,-42.27772 239.40083,22.38725 274.4219,140.54664 20.50737,69.19083 10.92283,139.23543 -27.40544,200.2813 -5.12884,8.16877 -9.74242,14.80708 -10.25239,14.75179 -0.50997,-0.0553 -14.29431,-16.31091 -30.63186,-36.12362 z m -42.88225,-74.04308 c 0.24763,-9.96047 0.4842,-11.02653 0.99878,-4.50071 1.10627,14.02987 4.58249,10.29666 3.7718,-4.05063 -0.71078,-12.57914 0.70775,-16.61803 2.84531,-8.10126 1.06815,4.25581 4.66158,6.42781 4.66158,2.81762 0,-9.01444 -7.8296,-13.96882 -12.73488,-8.05831 -3.09814,3.73302 -4.78407,34.94533 -1.88758,34.94533 1.27816,0 2.1397,-4.79529 2.34499,-13.05204 l 0,0 z m -0.3245,-55.35865 c 0,-0.99016 -1.52106,-1.80028 -3.38014,-1.80028 -1.85906,0 -4.38863,-1.21519 -5.62127,-2.70043 -2.7004,-3.25377 -9.55823,-3.50748 -14.32597,-0.52998 -2.86322,1.78811 -4.12936,1.57865 -7.18773,-1.18914 -4.77303,-4.31954 -7.10436,-2.14795 -2.80009,2.60823 3.44679,3.80864 10.731,4.8548 12.61197,1.81132 1.66218,-2.68946 7.3517,-2.17222 9.90154,0.90014 2.50178,3.01444 10.80169,3.70611 10.80169,0.90014 z m 19.80309,-2.59417 c 0,-3.66541 -3.44789,-5.35316 -10.0303,-4.90985 -3.28234,0.22105 -6.62262,-0.77103 -7.93985,-2.35817 -2.53912,-3.05946 -9.03407,-3.73489 -9.03407,-0.9395 0,0.99016 1.116,1.80028 2.48,1.80028 1.36398,0 3.4885,1.21519 4.72113,2.70042 1.28702,1.55078 5.21304,2.70043 9.22183,2.70043 3.83939,0 6.9807,0.81012 6.9807,1.80028 0,0.99015 0.81013,1.80028 1.80028,1.80028 0.99016,0 1.80028,-1.16738 1.80028,-2.59417 z"
         id="path3144"
         inkscape:connector-curvature="0"
         transform="matrix(2.8222221,0,0,2.8222221,1499.9997,1703.4446)" /><path
         style="fill:#ff8080;fill-opacity:1;stroke:#4c4c4c;stroke-width:1.70000003;stroke-linejoin:round;stroke-miterlimit:4;stroke-opacity:1;stroke-dasharray:none;stroke-dashoffset:0"
         d="m 208.89818,271.83276 -5.52149,-8.72132 10.13567,-5.05651 10.13567,-5.05651 5.95026,5.60132 c 3.27264,3.08073 5.95025,5.84104 5.95025,6.13402 0,0.43566 -9.96094,7.93799 -19.15712,14.42865 l -1.97175,1.39166 -5.52149,-8.72131 z"
         id="path3914"
         inkscape:connector-curvature="0"
         transform="matrix(2.8222221,0,0,2.8222221,1499.9997,1703.4446)" /><path
         style="fill:#ff8080;fill-opacity:1;stroke:#4c4c4c;stroke-width:1.70000017;stroke-linejoin:round;stroke-miterlimit:4;stroke-opacity:1;stroke-dasharray:none;stroke-dashoffset:0"
         d="m 300.53855,230.13127 c -2.25147,-3.22068 -3.97145,-5.97905 -3.82219,-6.12969 0.14927,-0.15065 4.34901,-0.88201 9.33276,-1.62524 l 9.06137,-1.35132 2.86423,3.15777 c 4.86727,5.36611 4.83537,5.25045 1.74566,6.32975 -1.48522,0.51882 -5.48767,1.96283 -8.89433,3.20891 l -6.19391,2.26561 -4.09359,-5.85579 z"
         id="path3916"
         inkscape:connector-curvature="0"
         transform="matrix(2.8222221,0,0,2.8222221,1499.9997,1703.4446)" /><path
         style="fill:#ff8080;fill-opacity:1;stroke:#4c4c4c;stroke-width:1.70000017;stroke-linejoin:round;stroke-miterlimit:4;stroke-opacity:1;stroke-dasharray:none;stroke-dashoffset:0"
         d="m 366.74736,251.16742 c 0.26076,-0.43759 1.00733,-1.52884 1.65905,-2.42499 0.96003,-1.32011 1.05839,-1.96224 0.5182,-3.38304 -1.63777,-4.30767 -0.76954,-6.60022 4.68895,-12.38106 4.24905,-4.49998 4.30412,-4.50236 9.31533,-0.40253 5.16474,4.22543 6.50059,7.05127 5.12788,10.84743 -0.7552,2.08846 -0.67843,2.35744 1.53241,5.3692 l 2.32744,3.17061 -12.82168,0 c -10.08588,0 -12.72053,-0.16977 -12.34758,-0.79562 z"
         id="path3918"
         inkscape:connector-curvature="0"
         transform="matrix(2.8222221,0,0,2.8222221,1499.9997,1703.4446)" /><path
         style="fill:#ff8080;fill-opacity:1;stroke:#4c4c4c;stroke-width:1.70000017;stroke-linejoin:round;stroke-miterlimit:4;stroke-opacity:1;stroke-dasharray:none;stroke-dashoffset:0"
         d="m 167.99053,347.75996 c -4.15166,-5.43349 -7.62917,-10.11916 -7.72781,-10.4126 -0.0986,-0.29343 6.27427,-3.8267 14.16202,-7.85171 l 14.34138,-7.3182 0,13.58888 0,13.58887 -4.29635,2.73162 c -2.36299,1.50239 -5.33909,3.36625 -6.61356,4.14192 l -2.31722,1.41031 -7.54846,-9.87909 z"
         id="path3920"
         inkscape:connector-curvature="0"
         transform="matrix(2.8222221,0,0,2.8222221,1499.9997,1703.4446)" /><path
         style="fill:#fff6d5;fill-opacity:1;stroke:#4c4c4c;stroke-width:1.70000017000000003;stroke-linejoin:round;stroke-miterlimit:4;stroke-opacity:1;stroke-dasharray:none;stroke-dashoffset:0"
         d="m 283.69329,471.16963 c -0.84196,-6.85123 -2.6585,-11.77071 -5.03732,-13.64189 -2.2434,-1.76466 -5.9086,-1.65245 -7.68195,0.2352 -1.70562,1.81555 -3.25609,8.67659 -3.2714,14.47645 l -0.0111,4.18611 -2.06861,-0.23526 c -1.13774,-0.12939 -3.82169,-0.53486 -5.96433,-0.90103 l -3.89573,-0.66578 -0.30051,-6.24084 c -0.23601,-4.90111 -0.62945,-6.90207 -1.83274,-9.3211 -1.93994,-3.89991 -4.85093,-5.74249 -7.77651,-4.9223 -2.98653,0.83727 -4.45058,4.26811 -4.7832,11.20898 -0.1779,3.71221 -0.51796,5.56934 -1.0198,5.56934 -0.4141,0 -2.74206,-0.66954 -5.17324,-1.48787 l -4.42032,-1.48787 -0.73882,-5.90952 c -1.23399,-9.87025 -3.227,-13.39208 -7.5786,-13.39208 -3.28406,0 -5.1155,3.01594 -5.89532,9.70815 l -0.42666,3.66145 -3.9781,-1.88406 c -3.96331,-1.87705 -3.97815,-1.89421 -3.99365,-4.61619 -0.0346,-6.08304 -2.31759,-12.12592 -5.13063,-13.5806 -4.11439,-2.12763 -7.05312,-0.5582 -8.76024,4.67842 l -1.09694,3.36487 -2.68225,-1.943 -2.68224,-1.94301 0,-6.16701 c 0,-5.7828 -0.10367,-6.27522 -1.66397,-7.90383 -1.96614,-2.0522 -2.74795,-6.64257 -1.40934,-8.27489 0.76135,-0.92841 1.63411,-0.59765 8.76228,3.32072 19.68759,10.82231 42.8532,18.98456 62.12441,21.88914 18.60377,2.80398 45.4686,-0.52496 72.85214,-9.02742 8.28026,-2.57099 21.87332,-7.91008 27.91108,-10.96294 2.22338,-1.1242 4.12194,-1.95364 4.21903,-1.84321 0.0971,0.11044 0.42614,6.98513 0.73122,15.27709 l 0.55468,15.07628 -2.0902,0.99523 c -1.14962,0.54738 -2.18427,0.99523 -2.29923,0.99523 -0.11496,0 -0.39773,-1.64693 -0.62839,-3.65985 -0.99453,-8.67917 -4.06088,-13.52553 -8.55776,-13.52553 -4.94005,0 -6.71773,4.50121 -6.37752,16.14839 l 0.22174,7.59112 -2.35774,0.81675 c -2.66005,0.92149 -2.34906,1.32439 -3.72413,-4.8249 -2.23057,-9.97506 -7.05861,-14.99708 -11.9741,-12.45518 -2.87824,1.4884 -3.50291,3.89266 -3.0366,11.68754 0.2242,3.74789 0.57926,7.71906 0.78901,8.82482 l 0.38136,2.01046 -4.0418,0.91188 -4.0418,0.91188 -0.42751,-1.64935 c -0.23512,-0.90715 -0.71609,-3.42398 -1.06882,-5.59296 -1.29157,-7.94208 -3.95964,-11.59531 -8.59571,-11.7696 -4.71976,-0.17743 -6.23765,3.29852 -6.18872,14.17209 0.036,7.9959 0.78661,7.25373 -7.96239,7.87271 l -5.14828,0.36424 -0.75278,-6.12547 0,0 z"
         id="path3922"
         inkscape:connector-curvature="0"
         transform="matrix(2.8222221,0,0,2.8222221,1499.9997,1703.4446)" /><path
         style="fill:#fff6d5;fill-opacity:1;stroke:#4c4c4c;stroke-width:1.70000017;stroke-linejoin:round;stroke-miterlimit:4;stroke-opacity:1;stroke-dasharray:none;stroke-dashoffset:0"
         d="m 292.88951,494.78409 c -0.21993,-0.87629 -1.634,-2.88125 -3.14237,-4.45547 l -2.74249,-2.86223 4.50548,-0.009 c 2.47802,-0.005 5.20102,-0.19475 6.05111,-0.42216 1.52502,-0.40797 1.51959,-0.38029 -0.40791,2.0773 -1.07444,1.36993 -2.29343,3.56486 -2.70885,4.87763 -0.41542,1.31278 -0.84527,2.38686 -0.9552,2.38686 -0.10994,0 -0.37983,-0.71696 -0.59977,-1.59324 z"
         id="path3924"
         inkscape:connector-curvature="0"
         transform="matrix(2.8222221,0,0,2.8222221,1499.9997,1703.4446)" /><path
         style="fill:#fff6d5;fill-opacity:1;stroke:#4c4c4c;stroke-width:1.70000017;stroke-linejoin:round;stroke-miterlimit:4;stroke-opacity:1;stroke-dasharray:none;stroke-dashoffset:0"
         d="m 263.22988,495.89996 c -0.008,-1.42016 -2.94483,-7.75936 -4.27666,-9.23102 -1.47277,-1.62738 -0.64866,-1.9824 2.81641,-1.21327 1.68174,0.37329 4.30232,0.86499 5.82351,1.09267 l 2.7658,0.41396 -1.93758,2.00241 c -1.06567,1.10133 -2.5385,3.36292 -3.27296,5.02576 -1.42227,3.2201 -1.9085,3.70404 -1.91852,1.90949 l 0,0 z"
         id="path3926"
         inkscape:connector-curvature="0"
         transform="matrix(2.8222221,0,0,2.8222221,1499.9997,1703.4446)" /><path
         style="fill:#fff6d5;fill-opacity:1;stroke:#4c4c4c;stroke-width:1.70000017;stroke-linejoin:round;stroke-miterlimit:4;stroke-opacity:1;stroke-dasharray:none;stroke-dashoffset:0"
         d="m 235.40555,484.75471 c -0.3989,-1.49143 -1.46648,-3.80393 -2.3724,-5.13888 -1.35743,-2.00029 -1.449,-2.36713 -0.52061,-2.08578 8.26342,2.50428 11.76343,3.84186 10.67395,4.0792 -1.90695,0.41543 -4.3894,2.35849 -5.38147,4.21219 -0.48419,0.90473 -1.05897,1.64495 -1.27728,1.64495 -0.21831,0 -0.72329,-1.22026 -1.12219,-2.71168 z"
         id="path3928"
         inkscape:connector-curvature="0"
         transform="matrix(2.8222221,0,0,2.8222221,1499.9997,1703.4446)" /><path
         style="fill:#fff6d5;fill-opacity:1;stroke:#4c4c4c;stroke-width:1.70000017;stroke-linejoin:round;stroke-miterlimit:4;stroke-opacity:1;stroke-dasharray:none;stroke-dashoffset:0"
         d="m 210.00375,476.81061 c -0.38678,-2.03523 -1.31158,-4.95954 -2.05511,-6.49847 -0.74353,-1.53893 -1.28224,-2.84418 -1.19713,-2.90057 0.0851,-0.0564 2.48478,0.93787 5.33262,2.20946 l 5.17789,2.31198 -1.71636,0.98506 c -0.95511,0.54816 -2.40877,2.45043 -3.27752,4.289 l -1.56115,3.30395 -0.70324,-3.70041 z"
         id="path3930"
         inkscape:connector-curvature="0"
         transform="matrix(2.8222221,0,0,2.8222221,1499.9997,1703.4446)" /><path
         style="fill:#fff6d5;fill-opacity:1;stroke:#4c4c4c;stroke-width:1.70000017;stroke-linejoin:round;stroke-miterlimit:4;stroke-opacity:1;stroke-dasharray:none;stroke-dashoffset:0"
         d="m 187.71327,463.12082 c -0.44614,-0.72187 -0.37381,-4.32891 0.0966,-4.81793 0.10738,-0.11163 1.58376,0.50633 3.28084,1.37324 3.02882,1.5472 3.05387,1.5843 1.36135,2.01577 -0.94834,0.24176 -2.0575,0.8411 -2.4648,1.33186 -0.91566,1.10331 -1.63319,1.13393 -2.27401,0.0971 z"
         id="path3932"
         inkscape:connector-curvature="0"
         transform="matrix(2.8222221,0,0,2.8222221,1499.9997,1703.4446)" /><path
         style="fill:#fff6d5;fill-opacity:1;stroke:#4c4c4c;stroke-width:1.70000017;stroke-linejoin:round;stroke-miterlimit:4;stroke-opacity:1;stroke-dasharray:none;stroke-dashoffset:0"
         d="m 319.10029,489.0157 c -0.95626,-1.1085 -2.63971,-2.45186 -3.741,-2.98523 l -2.00235,-0.96976 3.10451,-0.65683 c 1.70748,-0.36126 4.20499,-0.85929 5.55003,-1.10673 l 2.44553,-0.44991 -1.08112,2.09064 c -0.59461,1.14986 -1.40867,2.99124 -1.80903,4.09197 l -0.72791,2.00132 -1.73866,-2.01547 z"
         id="path3934"
         inkscape:connector-curvature="0"
         transform="matrix(2.8222221,0,0,2.8222221,1499.9997,1703.4446)" /><path
         style="fill:#fff6d5;fill-opacity:1;stroke:#4c4c4c;stroke-width:1.70000017;stroke-linejoin:round;stroke-miterlimit:4;stroke-opacity:1;stroke-dasharray:none;stroke-dashoffset:0"
         d="m 339.06109,482.23384 c -1.49269,-1.39237 -2.62303,-2.60756 -2.51187,-2.70043 0.42398,-0.35419 7.69384,-2.92332 7.78365,-2.7507 0.0519,0.0998 -0.50232,1.93678 -1.23168,4.08211 l -1.32612,3.90059 -2.71398,-2.53157 z"
         id="path3936"
         inkscape:connector-curvature="0"
         transform="matrix(2.8222221,0,0,2.8222221,1499.9997,1703.4446)" /><path
         style="fill:#fff6d5;fill-opacity:1;stroke:#4c4c4c;stroke-width:1.70000017;stroke-linejoin:round;stroke-miterlimit:4;stroke-opacity:1;stroke-dasharray:none;stroke-dashoffset:0"
         d="m 360.36517,478.17332 c -0.99486,-1.57254 -2.74902,-3.49803 -3.89812,-4.27887 l -2.08928,-1.4197 3.69058,-1.93547 3.69059,-1.93546 0.44789,5.97399 c 0.24634,3.28569 0.33973,6.08214 0.20754,6.21433 -0.13219,0.1322 -1.05433,-1.04627 -2.0492,-2.61882 l 0,0 z"
         id="path3938"
         inkscape:connector-curvature="0"
         transform="matrix(2.8222221,0,0,2.8222221,1499.9997,1703.4446)" /><path
         style="fill:#fff6d5;fill-opacity:1;stroke:#4c4c4c;stroke-width:1.70000017;stroke-linejoin:round;stroke-miterlimit:4;stroke-opacity:1;stroke-dasharray:none;stroke-dashoffset:0"
         d="m 259.78091,447.30257 c -18.92944,-1.99469 -43.21009,-10.37445 -66.16337,-22.83433 -6.6353,-3.60189 -7.40211,-4.19947 -7.68148,-5.98621 -0.43096,-2.75637 -1.62541,-16.31122 -1.62541,-18.44556 l 0,-1.75386 3.65985,2.79704 c 17.36624,13.27213 42.13592,22.66584 68.5824,26.00934 8.18169,1.03438 33.75738,1.02164 42.0087,-0.0209 23.47605,-2.9662 43.58073,-9.65109 56.80723,-18.88863 l 3.9781,-2.77835 0,2.7439 c 0,1.50914 0.18244,5.72578 0.40544,9.37031 l 0.40544,6.6264 -6.92952,3.31308 c -22.01443,10.52533 -48.46632,17.71228 -73.12506,19.86802 -8.61324,0.75299 -13.02619,0.74859 -20.32232,-0.0202 l 0,0 z m 22.3714,-4.00005 c 0.13443,-0.13443 0.0148,-2.35392 -0.26583,-4.93221 l -0.51026,-4.68779 -5.72846,0 -5.72846,0 -0.19484,3.79245 c -0.10717,2.08585 -0.0196,4.4906 0.19454,5.34389 0.38695,1.54175 0.42556,1.54886 6.18915,1.13975 3.18986,-0.22642 5.90974,-0.52166 6.04416,-0.65609 l 0,0 z m -31.32787,-6.70375 0,-5.34076 -3.24339,-1.10246 c -1.78386,-0.60635 -4.14685,-1.30089 -5.25109,-1.54342 l -2.0077,-0.44097 0,5.11774 c 0,5.8586 0.96084,7.39685 5.04436,8.07577 1.25143,0.20806 2.56176,0.47873 2.91183,0.60149 2.1798,0.76439 2.54599,-0.008 2.54599,-5.36739 l 0,0 z m 56.75998,4.07947 2.29873,-0.96047 -0.36526,-4.82965 c -0.2009,-2.65631 -0.5005,-4.96488 -0.66577,-5.13015 -0.16527,-0.16528 -2.61986,0.0386 -5.45463,0.45313 l -5.15414,0.75364 0,3.34794 c 0,1.84136 0.17902,4.24301 0.39781,5.33699 0.3807,1.90346 0.53221,1.98904 3.52117,1.98904 1.71785,0 4.15779,-0.43221 5.42209,-0.96047 l 0,0 z m 18.02824,-5.08735 c 3.47313,-0.91752 6.93413,-2.4061 7.19898,-3.09629 0.15365,-0.40039 -0.0563,-2.7315 -0.46664,-5.18024 l -0.74599,-4.45227 -2.11113,0.17141 c -1.16113,0.0943 -3.72535,0.81982 -5.69829,1.61232 -2.81142,1.12932 -3.55216,1.71164 -3.42539,2.69283 0.089,0.68855 0.32798,2.68402 0.53114,4.43438 0.51139,4.40598 0.73223,4.90609 2.00908,4.54986 0.61435,-0.17139 1.83306,-0.50079 2.70824,-0.732 z m -99.04315,-0.68744 c 0.21249,-0.55374 0.38634,-2.95349 0.38634,-5.33279 l 0,-4.32599 -2.38686,-0.66879 c -1.31277,-0.36784 -3.73147,-1.18237 -5.37489,-1.81007 -1.64341,-0.6277 -3.14004,-0.98926 -3.32583,-0.80347 -0.18579,0.18579 -0.52121,2.32599 -0.74537,4.756 -0.48129,5.21732 0.0108,5.91921 5.52114,7.87515 4.29784,1.52556 5.43615,1.5851 5.92547,0.30996 l 0,0 z m 121.85915,-7.28861 c 2.22165,-0.807 4.1926,-1.86657 4.37987,-2.3546 0.18728,-0.48804 0.0881,-2.94336 -0.2204,-5.45627 -0.67356,-5.48664 -1.13123,-5.71325 -6.59049,-3.26328 l -3.83609,1.72153 0,5.21721 c 0,5.21187 0.29689,6.32742 1.55799,5.85407 0.36836,-0.13826 2.48746,-0.91165 4.70912,-1.71866 z m -144.52119,-7.39297 0.1837,-5.17213 -4.18371,-2.29965 c -6.43296,-3.536 -6.69071,-3.40949 -6.66158,3.26968 l 0.0243,5.56933 4.27205,2.02541 c 2.34963,1.11397 4.70168,1.97008 5.22679,1.90245 0.74275,-0.0957 0.99554,-1.27141 1.13845,-5.29509 l 0,0 z"
         id="path3940"
         inkscape:connector-curvature="0"
         transform="matrix(2.8222221,0,0,2.8222221,1499.9997,1703.4446)" /><path
         style="fill:#fff6d5;fill-opacity:1;stroke:#4c4c4c;stroke-width:1.70000017;stroke-linejoin:round;stroke-miterlimit:4;stroke-opacity:1;stroke-dasharray:none;stroke-dashoffset:0"
         d="m 206.90624,400.64613 c -4.55094,-2.2337 -9.07814,-4.69842 -10.06044,-5.47716 -1.69517,-1.34387 -1.72601,-1.45792 -0.60632,-2.24217 2.32305,-1.62713 15.23412,-7.81794 21.16894,-10.15043 45.68305,-17.95427 80.40587,-20.90739 113.1932,-9.62692 9.11349,3.13549 17.10681,6.79601 24.64296,11.28518 l 6.5138,3.88017 -1.52397,2.2457 c -0.83819,1.23513 -1.52398,2.61462 -1.52398,3.06554 0,0.80287 -4.76298,3.93723 -9.91102,6.5221 l -2.59132,1.30113 -7.413,-3.71455 c -10.73107,-5.37718 -20.82005,-8.55607 -33.55028,-10.57119 -9.26579,-1.46672 -30.27563,-1.47204 -39.78098,-0.0101 -18.37739,2.82654 -35.11783,8.57244 -45.50943,15.62043 -1.57533,1.06845 -3.29386,1.94058 -3.81897,1.93807 -0.52511,-0.002 -4.67824,-1.83214 -9.22919,-4.06583 z m 5.90511,-0.83727 c 1.90906,-0.60178 3.61423,-1.46735 3.78926,-1.92349 0.17504,-0.45613 0.11754,-2.97121 -0.12777,-5.58906 -0.51673,-5.51431 -0.6351,-5.57675 -6.39437,-3.3728 l -3.62425,1.38692 0.40734,3.22768 c 0.72104,5.71345 1.12689,7.36489 1.80994,7.36489 0.36786,0 2.23079,-0.49236 4.13985,-1.09414 l 0,0 z m 137.62464,-9.36462 0,-5.3668 -4.80823,-1.06973 c -2.64452,-0.58835 -4.90565,-0.96592 -5.02473,-0.83903 -0.11908,0.12688 -0.31837,2.37659 -0.44286,4.99937 l -0.22636,4.76867 4.13722,1.3816 c 6.58548,2.19917 6.36496,2.33339 6.36496,-3.87408 z m -119.97941,2.17621 3.18248,-1.09486 -0.15977,-4.98667 c -0.0879,-2.74267 -0.42585,-5.25276 -0.75106,-5.57797 -0.69151,-0.69151 -8.65713,1.29638 -9.51253,2.37393 -0.51973,0.65472 0.13382,8.537 0.86657,10.45143 0.3373,0.88122 0.52226,0.84739 6.37431,-1.16586 z m 20.87428,-5.78284 c 2.0289,-0.43427 3.85041,-1.05091 4.04781,-1.37032 0.19741,-0.3194 0.006,-2.8487 -0.42511,-5.62067 -0.62844,-4.03981 -1.00142,-5.03994 -1.87956,-5.03994 -1.04305,0 -7.74008,2.12711 -8.84287,2.80867 -0.49662,0.30693 0.16262,7.04524 0.92653,9.47047 0.21756,0.6907 0.77826,1.02233 1.42176,0.84092 0.5844,-0.16475 2.72254,-0.65486 4.75144,-1.08913 l 0,0 z m 76.82779,-4.03717 c 0,-3.25825 -0.27875,-5.54492 -0.7083,-5.8104 -0.38956,-0.24076 -2.74337,-0.96122 -5.23069,-1.60102 -3.4622,-0.89056 -4.63681,-0.98326 -5.01042,-0.39543 -0.87282,1.37327 -0.58557,9.13987 0.36729,9.93067 1.17891,0.97841 7.36794,3.14445 9.15,3.20232 1.37572,0.0447 1.43212,-0.16506 1.43212,-5.32614 l 0,0 z m -53.56687,0.471 2.76299,-0.37922 -0.44021,-5.15663 c -0.24212,-2.83616 -0.67692,-5.40787 -0.96623,-5.71491 -0.30153,-0.32003 -2.65089,-0.32003 -5.50526,0 l -4.97924,0.55827 0.15865,4.45546 c 0.2594,7.28527 0.39081,7.5473 3.53249,7.04432 1.4706,-0.23544 3.91717,-0.59872 5.43681,-0.80729 l 0,0 z m 27.7888,-7.19177 0,-5.41021 -5.56934,-0.18391 -5.56934,-0.1839 0,5.40323 0,5.40323 3.65985,0.24352 c 2.01292,0.13394 4.51912,0.21984 5.56934,0.19089 l 1.90949,-0.0526 0,-5.41021 0,0 z"
         id="path3942"
         inkscape:connector-curvature="0"
         transform="matrix(2.8222221,0,0,2.8222221,1499.9997,1703.4446)" /><path
         style="fill:#fff6d5;fill-opacity:1;stroke:#4c4c4c;stroke-width:1.70000017;stroke-linejoin:round;stroke-miterlimit:4;stroke-opacity:1;stroke-dasharray:none;stroke-dashoffset:0"
         d="m 266.83989,327.44915 c -1.3558,-4.30109 -4.13829,-8.14731 -7.50665,-10.37638 -2.05621,-1.36074 -3.58025,-1.79999 -6.89512,-1.9873 -7.92018,-0.44753 -13.80256,3.61381 -16.68527,11.51993 l -1.36052,3.73135 -1.21686,-2.12924 c -3.55622,-6.22265 -15.11108,-8.03579 -21.2706,-3.33769 l -2.1344,1.62798 0,-4.77727 0,-4.77726 2.06861,-0.32314 c 1.68786,-0.26366 124.96144,-8.0688 126.71146,-8.02282 0.28941,0.008 -0.36913,0.7672 -1.46341,1.68798 -2.06479,1.7374 -5.10951,7.03829 -5.10951,8.89569 0,0.65329 -0.61633,0.15652 -1.59493,-1.28554 -5.59308,-8.24185 -15.44485,-9.78245 -22.27809,-3.48379 -1.50446,1.38676 -3.4272,3.98551 -4.27276,5.775 l -1.53736,3.25361 -1.64675,-2.79996 c -2.09238,-3.55771 -4.00247,-5.33311 -7.15468,-6.65018 -3.17555,-1.32684 -10.11092,-1.39571 -13.11786,-0.13027 -4.86695,2.04821 -9.20999,7.34564 -11.45214,13.96878 l -1.01678,3.00347 -1.06638,-3.38295 z"
         id="path3946"
         inkscape:connector-curvature="0"
         transform="matrix(2.8222221,0,0,2.8222221,1499.9997,1703.4446)" /><path
         style="fill:#fff6d5;fill-opacity:1;stroke:#4c4c4c;stroke-width:1.70000017;stroke-linejoin:round;stroke-miterlimit:4;stroke-opacity:1;stroke-dasharray:none;stroke-dashoffset:0"
         d="m 352.86465,313.72989 c -2.19668,-3.93446 -6.19239,-6.07051 -10.45645,-5.58989 -1.70029,0.19165 -2.76569,0.0721 -2.64279,-0.29664 0.37294,-1.11882 13.48269,-16.36364 13.79947,-16.04686 0.24842,0.24842 1.28754,24.49224 1.06633,24.87881 -0.034,0.0594 -0.82893,-1.26605 -1.76656,-2.94542 l 0,0 z"
         id="path3948"
         inkscape:connector-curvature="0"
         transform="matrix(2.8222221,0,0,2.8222221,1499.9997,1703.4446)" /><path
         style="fill:#d38d5f;fill-opacity:1;stroke:#4c4c4c;stroke-width:1.70000017000000003;stroke-linejoin:round;stroke-miterlimit:4;stroke-opacity:1;stroke-dasharray:none;stroke-dashoffset:0"
         d="m 303.33532,287.38201 c 0,-1.57288 0.33013,-2.33793 1.11387,-2.58129 3.52436,-1.09437 48.15847,-13.05407 48.26821,-12.93345 0.0727,0.08 0.33601,3.45355 0.58503,7.49688 l 0.45276,7.3515 -23.45957,1.12187 c -12.90277,0.61702 -24.24724,1.26992 -25.20994,1.45088 -1.63968,0.30822 -1.75036,0.18767 -1.75036,-1.90639 z"
         id="path3950"
         inkscape:connector-curvature="0"
         transform="matrix(2.8222221,0,0,2.8222221,1499.9997,1703.4446)" /><path
         style="fill:#d38d5f;fill-opacity:1;stroke:#4c4c4c;stroke-width:1.70000017;stroke-linejoin:round;stroke-miterlimit:4;stroke-opacity:1;stroke-dasharray:none;stroke-dashoffset:0"
         d="m 305.66914,276.36203 c -0.23339,-0.23338 -0.42286,-1.45067 -0.42106,-2.7051 l 0.003,-2.28078 16.70474,-5.99347 c 9.18761,-3.29641 17.07816,-6.12558 17.53455,-6.28705 0.63416,-0.22436 0.78423,0.58131 0.63649,3.41713 l -0.19331,3.7107 -16.23063,5.26867 c -16.70856,5.42381 -17.31608,5.58787 -18.03404,4.8699 z"
         id="path3952"
         inkscape:connector-curvature="0"
         transform="matrix(2.8222221,0,0,2.8222221,1499.9997,1703.4446)" /><path
         style="fill:#d38d5f;fill-opacity:1;stroke:#4c4c4c;stroke-width:1.70000017;stroke-linejoin:round;stroke-miterlimit:4;stroke-opacity:1;stroke-dasharray:none;stroke-dashoffset:0"
         d="m 305.8813,261.889 0,-2.64716 12.84075,-5.22589 c 7.06241,-2.87424 12.91947,-5.14716 13.01569,-5.05094 0.0962,0.0962 0.26116,1.69522 0.36653,3.55332 l 0.1916,3.37839 -13.20729,4.31972 -13.20728,4.31972 0,-2.64716 z"
         id="path3954"
         inkscape:connector-curvature="0"
         transform="matrix(2.8222221,0,0,2.8222221,1499.9997,1703.4446)" /><path
         style="fill:#d38d5f;fill-opacity:1;stroke:#4c4c4c;stroke-width:1.70000017;stroke-linejoin:round;stroke-miterlimit:4;stroke-opacity:1;stroke-dasharray:none;stroke-dashoffset:0"
         d="m 305.57343,245.21528 c -0.25126,-3.68643 -0.35639,-6.79344 -0.23361,-6.90447 0.25647,-0.23192 17.04694,-6.07913 17.45646,-6.07913 0.14872,0 0.2704,2.80617 0.2704,6.23593 l 0,6.23593 -6.52408,2.76013 c -3.58824,1.51807 -7.42143,3.1413 -8.5182,3.60717 l -1.99412,0.84703 -0.45685,-6.70259 z"
         id="path3956"
         inkscape:connector-curvature="0"
         transform="matrix(2.8222221,0,0,2.8222221,1499.9997,1703.4446)" /><path
         style="fill:#6f8a91;fill-opacity:1;stroke:#4c4c4c;stroke-width:1.70000017000000003;stroke-linejoin:round;stroke-miterlimit:4;stroke-opacity:1;stroke-dasharray:none;stroke-dashoffset:0"
         d="m 402.94932,457.36798 c -0.24111,-3.92512 -0.3403,-14.15394 -0.22041,-22.73072 0.202,-14.45205 0.32023,-15.81556 1.61429,-18.61749 1.1286,-2.44367 1.70547,-3.02336 3.00868,-3.02336 3.7325,0 4.77527,5.6833 4.80453,26.18543 l 0.0197,13.77375 -2.96178,4.04812 c -1.62898,2.22647 -3.60636,4.82498 -4.39418,5.77448 l -1.4324,1.72636 -0.43838,-7.13657 z"
         id="path3960"
         inkscape:connector-curvature="0"
         transform="matrix(2.8222221,0,0,2.8222221,1499.9997,1703.4446)" /><path
         style="fill:#6f8a91;fill-opacity:1;stroke:#4c4c4c;stroke-width:1.70000017;stroke-linejoin:round;stroke-miterlimit:4;stroke-opacity:1;stroke-dasharray:none;stroke-dashoffset:0"
         d="m 364.12064,378.91275 c -4.26092,-3.51814 -17.75664,-10.72232 -26.89378,-14.35624 -6.68803,-2.65989 -18.88964,-5.94817 -27.28623,-7.35353 -9.59901,-1.60661 -31.30966,-1.61584 -41.61257,-0.0177 -18.85284,2.92439 -32.57818,6.91998 -53.3065,15.51809 -0.61494,0.25508 -0.78852,-1.67288 -0.76438,-8.48989 0.0532,-15.01454 0.9269,-25.91237 2.25817,-28.16604 1.35697,-2.29717 1.56426,-2.34976 3.39995,-0.86261 1.80623,1.46329 2.3121,4.28688 2.06164,11.50719 -0.17218,4.96334 -0.36261,5.87775 -1.16037,5.57162 -1.40164,-0.53786 -3.40815,0.75594 -3.40815,2.19758 0,1.37298 1.62971,1.72719 2.09336,0.45497 0.18737,-0.51412 1.11941,-0.007 2.63437,1.43212 2.02054,1.91997 2.77257,2.22773 5.44359,2.22773 2.62004,0 3.69217,-0.4182 6.935,-2.7051 2.10971,-1.48781 4.40526,-2.70511 5.10121,-2.70511 0.69596,0 2.58913,1.14569 4.20703,2.54598 3.24291,2.80672 5.95237,3.30531 8.45107,1.55515 1.76012,-1.23283 1.84001,-2.82814 0.14162,-2.82814 -0.70014,0 -1.27299,0.28643 -1.27299,0.6365 0,0.35007 -0.78766,0.63341 -1.75036,0.62963 -1.18203,-0.005 -2.65805,-0.87477 -4.54591,-2.67989 l -2.79554,-2.67303 0.38198,-7.34491 c 0.56366,-10.83847 2.73436,-16.5741 6.27261,-16.5741 1.81809,0 5.42435,3.9707 6.23177,6.86155 0.36371,1.3022 0.84747,5.16026 1.07503,8.57347 l 0.41374,6.20583 -1.60898,0 c -1.86385,0 -3.51634,1.53863 -2.39608,2.23099 0.38697,0.23916 1.36882,0.26787 2.18188,0.0638 0.95904,-0.2407 2.04358,0.0736 3.08758,0.89482 0.88509,0.69622 2.50798,1.26586 3.60641,1.26586 1.96666,0 2.88049,-0.69291 6.18747,-4.69155 0.9039,-1.09295 2.00781,-1.67003 3.18248,-1.66366 2.1833,0.0118 2.59227,0.29233 4.85789,3.33185 1.53362,2.05748 2.1273,2.38686 4.30208,2.38686 2.1606,0 2.70602,-0.29709 3.79762,-2.06861 1.31776,-2.13854 1.4387,-4.34914 0.25914,-4.73677 -0.37136,-0.12203 -1.08742,0.7148 -1.59124,1.85964 -1.25697,2.85624 -3.23335,3.04609 -5.05649,0.48571 -1.26582,-1.77767 -1.40846,-2.72772 -1.36778,-9.1099 0.0603,-9.46215 1.75601,-14.29719 5.50495,-15.69656 4.40517,-1.64432 7.7226,3.98105 8.96747,15.2062 l 0.45246,4.07984 -1.50835,-1.05648 c -2.07906,-1.45624 -3.77107,-1.3591 -3.77107,0.21651 0,0.70014 0.35803,1.27577 0.79562,1.27916 0.43759,0.003 2.05323,1.00588 3.5903,2.22774 3.27288,2.60169 5.58826,2.83129 9.7066,0.96254 4.9142,-2.22987 6.48783,-1.73954 9.98857,3.11239 2.65408,3.67846 4.15763,4.66418 7.23764,4.74494 2.0421,0.0536 2.84353,-0.28454 4.07883,-1.72067 0.84556,-0.98301 1.37317,-2.05299 1.17247,-2.37773 -0.48184,-0.77962 -2.19927,-0.76113 -2.19927,0.0237 0,1.06487 -2.45287,1.97951 -4.15973,1.55111 -1.01016,-0.25353 -2.48166,-1.66157 -3.83203,-3.66676 l -2.19217,-3.25517 0,-8.33598 c 0,-4.58479 0.18716,-8.52313 0.4159,-8.75187 0.22874,-0.22875 1.38501,0.18304 2.56947,0.91509 1.57864,0.97565 2.72009,1.2247 4.27558,0.93289 1.98646,-0.37266 2.14758,-0.27018 2.52249,1.60437 0.22027,1.10135 0.39758,3.18396 0.39402,4.62801 -0.006,2.4573 -0.1692,2.69388 -2.54598,3.69214 -1.43457,0.60252 -2.53951,1.50257 -2.53951,2.06861 0,1.17592 1.23293,1.28298 3.40066,0.29529 1.37152,-0.6249 1.93422,-0.40386 4.86082,1.90949 3.90693,3.08825 5.70964,3.27414 9.93976,1.02497 1.64599,-0.87519 3.38218,-1.59124 3.85819,-1.59124 0.47601,0 2.57903,1.57532 4.67338,3.50072 3.99736,3.67489 5.29735,4.0855 8.19329,2.58795 2.46981,-1.27719 3.63515,-2.78928 2.7962,-3.62823 -0.46645,-0.46645 -1.44988,-0.21818 -3.25841,0.82259 l -2.59032,1.49068 -3.04775,-2.94978 c -1.67626,-1.62237 -3.6922,-3.27938 -4.47987,-3.68224 -1.27679,-0.65303 -1.43211,-1.21055 -1.43211,-5.14074 0,-3.71523 0.219,-4.61232 1.39301,-5.70607 2.2307,-2.07822 3.99853,-1.62178 7.67384,1.9813 3.58825,3.51774 6.33667,4.99536 9.29151,4.99536 3.2939,0 5.77861,0.76053 7.25155,2.21957 0.79263,0.78516 2.12559,1.64143 2.96212,1.90282 1.48633,0.46444 1.51179,0.59328 1.11769,5.65526 -0.22182,2.849 -0.40501,11.69612 -0.40711,19.66027 -0.002,7.96415 -0.21863,14.46997 -0.48119,14.45738 -0.26255,-0.0126 -1.33664,-0.73237 -2.38686,-1.5995 l 0,0 z m -0.86613,-11.06234 c 2.01969,-1.65031 0.90967,-3.01872 -1.54243,-1.90147 -2.33172,1.06241 -3.23017,0.51143 -5.99641,-3.67727 -2.07516,-3.14226 -2.76361,-3.72662 -4.59773,-3.90262 -1.18641,-0.11384 -3.39241,0.26478 -4.90223,0.84138 l -2.74511,1.04837 -2.46546,-2.59174 c -2.72354,-2.86304 -4.406,-3.2101 -8.09322,-1.66948 -2.76514,1.15535 -3.1354,3.27366 -0.45693,2.61409 4.85208,-1.1948 4.95345,-1.17917 6.92648,1.06799 2.60938,2.97191 3.48555,3.17494 7.84555,1.81795 4.27,-1.32897 4.1882,-1.36749 6.97518,3.28474 2.59043,4.32412 6.07129,5.50388 9.05231,3.06806 l 0,0 z"
         id="path3962"
         inkscape:connector-curvature="0"
         transform="matrix(2.8222221,0,0,2.8222221,1499.9997,1703.4446)" /><path
         style="fill:#217867;fill-opacity:1;stroke:#4c4c4c;stroke-width:1.70000017000000003;stroke-linejoin:round;stroke-miterlimit:4;stroke-opacity:1;stroke-dasharray:none;stroke-dashoffset:0"
         d="m 155.0417,333.088 c -1.56991,-0.85966 -3.64648,-1.56302 -4.61459,-1.56302 -2.08692,0 -2.09879,-0.11199 -0.83606,-7.89135 1.00768,-6.20805 1.40986,-6.95926 3.5564,-6.64281 1.02633,0.15131 1.69252,0.93116 2.29975,2.69211 1.58578,4.59871 2.90469,5.13395 7.2226,2.93111 3.61705,-1.84528 4.68711,-1.62914 6.65475,1.34417 1.11544,1.68554 1.95108,2.39802 2.34755,2.00155 0.92043,-0.92043 -0.005,-3.72182 -1.83243,-5.54969 -1.96514,-1.96514 -4.46246,-2.08273 -7.31361,-0.34439 -1.1462,0.69884 -2.40311,1.27169 -2.79314,1.27299 -0.39003,0.001 -1.20263,-1.28979 -1.80578,-2.86911 -1.17154,-3.06763 -2.47445,-4.12996 -5.06526,-4.12996 -1.82058,0 -1.81014,-0.38966 0.21318,-7.95619 1.00055,-3.74172 1.06608,-3.81898 3.23936,-3.81898 1.96779,0 2.36185,0.29573 3.49115,2.61998 2.47091,5.08544 3.85403,5.6424 9.06752,3.65135 3.6941,-1.41079 5.32585,-0.60722 7.20352,3.54742 1.37014,3.03168 2.60063,3.98394 3.42479,2.65042 0.56661,-0.9168 -1.85096,-5.93201 -3.78628,-7.85457 -2.0078,-1.99456 -4.13104,-2.21869 -7.53693,-0.79562 -3.77288,1.57641 -4.63856,1.29004 -5.87323,-1.9429 -1.26296,-3.30704 -2.94049,-4.74031 -5.54813,-4.74031 -2.02056,0 -2.05115,0.57349 0.36812,-6.90018 1.28538,-3.9708 1.3381,-4.02983 3.26654,-3.65672 1.37196,0.26545 3.42166,1.93236 6.8314,5.55562 l 4.87133,5.17639 5.11432,-0.44613 c 5.86462,-0.51157 7.13182,-2.1e-4 9.9007,3.99528 1.52659,2.20287 1.65688,2.91386 1.65688,9.04176 l 0,6.65089 -14.96554,7.79518 c -8.23104,4.28734 -15.1768,7.78247 -15.43501,7.76695 -0.25822,-0.0155 -1.75396,-0.73158 -3.32387,-1.59124 l 0,0 z"
         id="path3964"
         inkscape:connector-curvature="0"
         transform="matrix(2.8222221,0,0,2.8222221,1499.9997,1703.4446)" /><path
         style="fill:#217867;fill-opacity:1;stroke:#4c4c4c;stroke-width:1.70000017;stroke-linejoin:round;stroke-miterlimit:4;stroke-opacity:1;stroke-dasharray:none;stroke-dashoffset:0"
         d="m 215.52037,361.5994 c 0.0248,-10.87071 0.85407,-21.17337 1.95531,-24.29286 l 0.76769,-2.17465 1.17376,1.44954 c 0.97236,1.2008 1.17377,2.58423 1.17377,8.06223 0,6.16265 -0.0856,6.61268 -1.25832,6.61268 -1.51841,0 -3.37622,2.61173 -2.84413,3.99833 0.43592,1.136 2.03285,1.90422 2.87563,1.38335 0.31228,-0.193 1.64183,0.37891 2.95454,1.27093 3.63621,2.47086 6.90713,2.21476 12.72404,-0.99625 l 4.7428,-2.61808 2.68096,1.92532 c 1.47453,1.05893 3.67187,2.35691 4.88299,2.88441 1.21112,0.5275 1.71743,0.98245 1.12514,1.01101 -2.00695,0.0968 -15.98608,4.56762 -24.16346,7.72804 -4.47461,1.72937 -8.28787,3.14431 -8.47391,3.14431 -0.18603,0 -0.3286,-4.22474 -0.31681,-9.38831 z"
         id="path3966"
         inkscape:connector-curvature="0"
         transform="matrix(2.8222221,0,0,2.8222221,1499.9997,1703.4446)" /><path
         style="fill:#217867;fill-opacity:1;stroke:#4c4c4c;stroke-width:1.70000017;stroke-linejoin:round;stroke-miterlimit:4;stroke-opacity:1;stroke-dasharray:none;stroke-dashoffset:0"
         d="m 361.25641,375.62848 c -6.31106,-4.29404 -22.37344,-11.90875 -30.48485,-14.45199 -3.98902,-1.25071 -10.71996,-3.0511 -14.95765,-4.00087 -7.41142,-1.66108 -8.42002,-1.72771 -26.48149,-1.74921 -19.58502,-0.0233 -18.71131,-0.10358 -35.27032,3.24024 l -1.85429,0.37444 1.34136,-1.70526 c 0.73775,-0.93789 1.18769,-2.10571 0.99987,-2.59515 -0.46884,-1.22178 -2.74411,-1.8552 -3.59773,-1.00158 -1.12973,1.12974 -2.33305,0.82377 -4.96812,-1.26325 -2.43938,-1.93202 -2.47825,-2.02985 -2.46584,-6.20583 0.0274,-9.2122 2.43947,-18.56401 4.78819,-18.56401 1.56333,0 4.63962,3.60107 5.35073,6.26351 0.34216,1.28105 0.8022,4.62056 1.02232,7.42114 l 0.40021,5.09197 -1.96806,1.08426 c -2.18052,1.20132 -2.72772,3.62518 -0.85419,3.78369 0.61263,0.0518 1.5435,0.12592 2.06861,0.16463 0.52511,0.0387 2.31002,0.60607 3.96648,1.26079 3.71247,1.46737 5.66096,0.84963 8.97924,-2.84673 1.23037,-1.37054 2.72952,-2.4919 3.33146,-2.4919 0.60194,0 2.50833,1.32254 4.23643,2.93897 2.85339,2.66901 3.35641,2.90485 5.47622,2.56747 3.2195,-0.51239 5.32635,-3.02851 5.07328,-6.05878 -0.15208,-1.82105 -0.48933,-2.35405 -1.58844,-2.51047 -1.01815,-0.14489 -1.66782,0.32829 -2.40321,1.75037 -1.19904,2.3187 -1.84108,2.42703 -3.16678,0.53432 -1.19322,-1.70355 -1.37775,-11.99451 -0.30479,-16.99754 0.85009,-3.96383 3.72191,-6.82203 5.75908,-5.73176 2.51972,1.34851 3.8061,4.44868 5.36814,12.93719 0.44531,2.41988 0.41774,2.46832 -1.17713,2.06804 -1.53804,-0.38603 -3.63469,0.80288 -3.63469,2.06105 0,0.92825 1.64717,2.43871 4.77372,4.37752 4.50186,2.79167 5.88739,2.991 10.21574,1.46971 2.05867,-0.72357 4.23732,-1.31558 4.84144,-1.31558 0.60412,0 2.58622,1.69025 4.40466,3.75611 3.69417,4.1968 5.31075,5.15483 8.69821,5.15483 1.65276,0 2.83664,-0.49298 4.10727,-1.71032 3.46451,-3.31921 1.26571,-6.82749 -2.52335,-4.02612 -2.26396,1.67382 -3.2912,1.2835 -5.79395,-2.20153 -1.96878,-2.74148 -1.99092,-2.85829 -1.99092,-10.50289 0,-5.23835 0.21551,-7.59739 0.66849,-7.31743 0.36768,0.22723 2.01461,0.60449 3.65985,0.83834 l 2.99135,0.42518 0.18959,3.25561 c 0.18257,3.13525 0.10554,3.30519 -2.08379,4.59692 -2.72828,1.60973 -3.40029,3.02784 -2.06677,4.36136 0.80426,0.80427 1.36158,0.85617 3.0127,0.28059 1.81411,-0.63241 2.31386,-0.50811 4.78053,1.18901 5.05464,3.47768 6.5779,3.51934 13.734,0.37565 0.68904,-0.30269 2.18414,0.5035 4.63253,2.49794 4.86464,3.96271 6.63478,4.41658 10.09293,2.58786 2.24388,-1.18659 2.71554,-1.75724 2.71554,-3.28546 0,-2.25522 -1.40201,-2.69029 -4.18903,-1.29995 -1.94885,0.97222 -1.98765,0.95749 -6.04678,-2.29529 l -4.08534,-3.27379 0,-3.6593 c 0,-3.7195 0.99019,-5.6597 2.88845,-5.6597 0.48841,0 2.38079,1.32577 4.20526,2.94616 4.00064,3.55314 7.62358,5.29551 11.05007,5.3143 1.7469,0.01 3.60525,0.66528 5.90239,2.08259 l 3.35274,2.06861 -0.4165,18.14012 c -0.22908,9.97707 -0.45055,18.17074 -0.49217,18.20815 -0.0416,0.0374 -1.93742,-1.19872 -4.2129,-2.74695 z m 1.7925,-6.56891 c 1.54229,-0.9403 2.05655,-1.66819 1.90949,-2.70273 -0.17514,-1.23212 -0.55136,-1.40029 -2.89941,-1.29602 -2.58602,0.11483 -2.81666,-0.0342 -5.54964,-3.58591 -1.56831,-2.03815 -3.53399,-3.87702 -4.36816,-4.08638 -0.83417,-0.20937 -3.05596,0.0186 -4.93729,0.50663 l -3.42061,0.8873 -2.38606,-2.15567 c -1.31234,-1.18561 -3.10844,-2.33696 -3.99134,-2.55856 -2.26551,-0.5686 -7.65601,2.15714 -7.65601,3.87132 0,1.12089 0.42434,1.27299 3.55143,1.27299 3.12441,0 3.84535,0.25783 5.99607,2.14442 2.55017,2.23698 3.76361,2.3557 9.9526,0.97373 1.45546,-0.325 1.94971,0.0199 3.7235,2.59796 2.04432,2.97131 5.20976,5.4178 7.00994,5.4178 0.52511,0 1.90458,-0.57909 3.06549,-1.28688 l 0,0 z"
         id="path3968"
         inkscape:connector-curvature="0"
         transform="matrix(2.8222221,0,0,2.8222221,1499.9997,1703.4446)" /><path
         style="fill:#217867;fill-opacity:1;stroke:#4c4c4c;stroke-width:1.70000017;stroke-linejoin:round;stroke-miterlimit:4;stroke-opacity:1;stroke-dasharray:none;stroke-dashoffset:0"
         d="m 424.96489,367.64373 c -1.19284,-0.78636 -2.91138,-1.92947 -3.81897,-2.54026 -2.33911,-1.57416 -9.05378,-1.4844 -12.69922,0.16976 -3.60177,1.63434 -3.93572,1.60416 -6.7183,-0.60715 -1.29154,-1.02639 -3.19268,-2.05163 -4.22474,-2.27831 -1.85022,-0.40638 -1.87635,-0.47157 -1.86674,-4.65792 0.005,-2.33517 0.22018,-4.55975 0.47737,-4.94351 0.2572,-0.38376 1.82794,-0.87949 3.49054,-1.10163 1.66261,-0.22214 3.68255,-0.56945 4.48877,-0.7718 1.04238,-0.26162 2.42648,0.29289 4.79105,1.91943 4.72815,3.25239 6.00355,3.6101 13.2942,3.72856 5.07461,0.0825 6.7309,0.33465 7.54442,1.14873 0.9657,0.96636 0.82491,1.01857 -1.91424,0.70983 -2.48372,-0.27995 -3.20683,-0.0982 -4.52107,1.13648 -0.86046,0.80836 -1.56447,1.92893 -1.56447,2.49016 0,1.82852 1.83209,3.69345 4.03427,4.10658 1.18576,0.22245 2.66927,0.9717 3.2967,1.665 1.10699,1.22321 1.09544,1.26047 -0.38999,1.25816 -0.84192,-0.001 -2.50673,-0.64576 -3.69958,-1.43211 l 0,0 z"
         id="path3970"
         inkscape:connector-curvature="0"
         transform="matrix(2.8222221,0,0,2.8222221,1499.9997,1703.4446)" /><path
         style="fill:#217867;fill-opacity:1;stroke:#4c4c4c;stroke-width:1.70000017;stroke-linejoin:round;stroke-miterlimit:4;stroke-opacity:1;stroke-dasharray:none;stroke-dashoffset:0"
         d="m 147.39843,345.81431 c 0.002,-1.38279 0.18653,-4.44117 0.40897,-6.79641 0.33021,-3.4962 0.63431,-4.3552 1.65671,-4.6797 1.39762,-0.44358 6.20424,1.47611 6.20424,2.47788 0,0.53842 -5.96702,8.96105 -7.72758,10.90771 -0.31451,0.34777 -0.54494,-0.46352 -0.54234,-1.90948 z"
         id="path3974"
         inkscape:connector-curvature="0"
         transform="matrix(2.8222221,0,0,2.8222221,1499.9997,1703.4446)" /><path
         style="fill:#ac9d93;fill-opacity:1;stroke:#4c4c4c;stroke-width:1.70000017000000003;stroke-linejoin:round;stroke-miterlimit:4;stroke-opacity:1;stroke-dasharray:none;stroke-dashoffset:0"
         d="m 271.51054,417.03243 c -8.2285,-0.5661 -17.71839,-1.76917 -24.82333,-3.14695 -7.87192,-1.52652 -26.73281,-7.09151 -26.73281,-7.88764 0,-0.22679 2.07657,-1.59458 4.61459,-3.03954 25.93167,-14.76345 66.74128,-18.90895 96.15483,-9.76753 8.64391,2.68643 22.07422,8.57149 22.07422,9.67275 0,0.50242 -6.03355,3.17882 -13.04816,5.78798 -16.90047,6.28631 -40.11895,9.62756 -58.23934,8.38093 z"
         id="path3976"
         inkscape:connector-curvature="0"
         transform="matrix(2.8222221,0,0,2.8222221,1499.9997,1703.4446)" /></g></g></svg>