<?xml version="1.0" standalone="no"?>
<!DOCTYPE svg PUBLIC "-//W3C//DTD SVG 20010904//EN"
 "http://www.w3.org/TR/2001/REC-SVG-20010904/DTD/svg10.dtd">
<svg version="1.0" xmlns="http://www.w3.org/2000/svg"
 width="260.000000pt" height="260.000000pt" viewBox="0 0 260.000000 260.000000"
 preserveAspectRatio="xMidYMid meet">
<metadata>
Created by potrace 1.11, written by Peter Selinger 2001-2013
</metadata>
<g transform="translate(0.000000,260.000000) scale(0.100000,-0.100000)"
fill="#000000" stroke="none">
<path d="M1290 2589 c-198 -15 -323 -44 -460 -106 -95 -44 -175 -85 -180 -93
-3 -4 -18 -14 -35 -23 -16 -8 -48 -31 -70 -51 -22 -20 -43 -36 -47 -36 -19 0
-195 -192 -215 -236 -9 -19 -20 -34 -24 -34 -3 0 -12 -13 -19 -30 -7 -16 -16
-30 -21 -30 -5 0 -9 -6 -9 -13 0 -7 -11 -28 -24 -47 -12 -19 -29 -53 -36 -75
-7 -22 -16 -44 -20 -50 -4 -5 -13 -35 -20 -65 -7 -30 -17 -62 -21 -70 -44 -83
-42 -603 2 -675 4 -5 12 -35 19 -65 7 -30 16 -57 19 -60 4 -3 13 -25 20 -50 7
-24 24 -60 37 -79 13 -20 24 -39 24 -44 0 -4 5 -13 10 -20 6 -7 30 -42 53 -79
45 -71 140 -175 227 -248 29 -25 58 -50 64 -56 18 -18 247 -142 286 -155 19
-7 37 -15 40 -19 3 -3 43 -14 90 -24 47 -10 93 -22 102 -27 9 -4 87 -13 173
-20 161 -11 436 1 473 21 10 5 53 16 96 26 44 9 87 20 95 24 9 5 50 25 91 45
175 85 266 153 392 291 19 21 19 21 -49 86 -100 96 -125 118 -134 118 -5 0 -6
7 -3 14 5 13 -31 67 -76 116 -8 9 -37 42 -65 73 -27 31 -55 57 -60 57 -6 0
-29 -18 -50 -41 -49 -50 -122 -99 -147 -99 -11 0 -17 -4 -14 -9 4 -5 -16 -15
-44 -22 -27 -7 -50 -16 -50 -20 0 -11 -146 -29 -242 -29 -90 0 -214 16 -233
30 -5 4 -31 13 -58 20 -26 7 -47 16 -47 19 0 4 -18 15 -40 25 -22 10 -40 22
-40 27 0 5 -5 9 -10 9 -12 0 -110 95 -110 106 0 4 -6 15 -14 23 -30 34 -77
135 -83 177 -3 24 -10 44 -14 44 -5 0 -9 6 -9 13 0 9 13 14 40 14 22 0 40 -5
40 -11 0 -8 3 -8 8 -1 9 14 183 15 175 2 -4 -6 -1 -7 8 -1 21 13 130 14 122 1
-4 -6 -1 -7 8 -1 20 13 119 12 119 -1 0 -6 3 -6 8 1 8 13 111 13 131 0 9 -6
12 -5 8 1 -8 13 62 12 82 -1 9 -6 12 -5 8 1 -8 13 92 12 112 -1 9 -6 12 -5 8
1 -9 14 115 12 125 -2 5 -6 8 -6 8 1 0 13 108 13 129 0 9 -6 12 -5 8 1 -4 6
20 10 63 10 47 0 67 -4 63 -11 -5 -7 -2 -7 8 0 8 7 52 11 111 10 54 -1 106 3
115 9 16 9 18 27 18 148 0 75 -2 137 -6 137 -3 0 -9 27 -13 61 -3 33 -9 66
-13 72 -4 7 -6 20 -5 30 2 9 -2 17 -7 17 -6 0 -11 7 -11 16 0 19 -30 87 -43
95 -5 4 -7 11 -3 17 3 6 3 12 -1 14 -10 4 -38 53 -54 91 -6 15 -15 27 -19 27
-4 0 24 30 63 68 39 37 100 94 135 128 l63 61 -58 59 c-51 52 -127 118 -204
177 -13 9 -27 17 -33 17 -5 0 -17 6 -25 13 -9 8 -32 20 -51 27 -19 7 -42 19
-50 25 -8 7 -33 18 -55 25 -22 7 -44 16 -50 20 -5 5 -39 14 -75 20 -36 7 -70
17 -75 21 -10 7 -160 24 -295 32 -30 2 -102 0 -160 -4z m200 -651 c0 -5 12 -8
28 -7 22 0 46 -3 70 -10 1 -1 4 -1 7 -1 12 0 131 -64 137 -74 4 -6 8 -7 8 -3
0 16 121 -107 155 -158 18 -28 41 -75 50 -105 9 -30 21 -63 26 -72 5 -10 9
-27 9 -38 0 -19 -8 -20 -585 -22 l-585 -3 0 23 c0 15 4 21 12 16 8 -5 9 0 5
17 -6 21 27 135 43 149 3 3 18 25 34 50 27 41 85 102 132 140 24 19 97 54 107
52 4 -1 7 2 7 8 0 8 66 26 83 22 4 -1 7 2 7 6 0 4 16 7 35 7 19 -1 35 1 35 5
0 4 41 7 90 6 50 0 90 -4 90 -8z"/>
</g>
</svg>
